<svg width="744" height="1020" viewBox="0 0 744 1020" fill="none" xmlns="http://www.w3.org/2000/svg">
<path d="M699.5 38.5C699.5 141.5 559 213 365 234C176.316 254.425 41 358 41 461" stroke="#FFB96A" stroke-width="6" stroke-dasharray="12 12"/>
<circle cx="697" cy="971" r="37" fill="#FFB96A"/>
<path fill-rule="evenodd" clip-rule="evenodd" d="M700 934C700 931.679 699.942 929.371 699.827 927.077L693.849 927.438C693.959 929.611 694.014 931.798 694.014 934H700ZM698.433 913.362C697.733 908.811 696.801 904.321 695.645 899.896L689.89 901.702C690.985 905.895 691.867 910.145 692.53 914.453L698.433 913.362ZM691.524 886.862C689.951 882.636 688.168 878.476 686.18 874.384L680.896 877.466C682.791 881.368 684.487 885.326 685.981 889.34L691.524 886.862ZM679.764 862.561C677.499 858.794 675.056 855.091 672.441 851.45L667.738 855.509C670.253 859.01 672.597 862.564 674.765 866.171L679.764 862.561ZM664.341 841.029C661.571 837.723 658.653 834.474 655.592 831.281L651.466 836.034C654.433 839.129 657.256 842.274 659.931 845.467L664.341 841.029ZM646.307 822.176C643.186 819.292 639.942 816.459 636.58 813.676L632.972 818.912C636.253 821.627 639.413 824.387 642.449 827.193L646.307 822.176ZM626.486 805.741C623.121 803.225 619.654 800.754 616.088 798.329L612.932 803.903C616.426 806.28 619.821 808.7 623.112 811.161L626.486 805.741ZM605.436 791.4C601.898 789.199 598.274 787.038 594.568 784.919L591.799 790.736C595.445 792.82 599.006 794.944 602.48 797.106L605.436 791.4ZM583.516 778.85C579.85 776.917 576.112 775.022 572.303 773.165L569.869 779.159C573.625 780.991 577.31 782.859 580.92 784.762L583.516 778.85ZM560.95 767.834C557.186 766.133 553.36 764.467 549.472 762.835L547.332 768.962C551.173 770.574 554.952 772.22 558.668 773.9L560.95 767.834ZM537.882 758.146C534.039 756.647 530.142 755.181 526.191 753.748L524.31 759.976C528.219 761.395 532.075 762.845 535.875 764.327L537.882 758.146ZM514.443 749.636C510.557 748.324 506.623 747.042 502.642 745.792L500.993 752.098C504.936 753.337 508.832 754.607 512.681 755.906L514.443 749.636ZM490.764 742.191C486.823 741.039 482.839 739.916 478.814 738.823L477.374 745.191C481.365 746.275 485.315 747.389 489.222 748.531L490.764 742.191ZM466.8 735.678C462.837 734.678 458.837 733.707 454.801 732.763L453.552 739.18C457.557 740.116 461.526 741.08 465.458 742.071L466.8 735.678ZM442.741 730.05C438.734 729.183 434.695 728.344 430.623 727.531L429.55 733.986C433.594 734.793 437.604 735.627 441.582 736.487L442.741 730.05ZM418.482 725.206C414.465 724.469 410.419 723.758 406.345 723.072L405.437 729.557C409.485 730.238 413.504 730.945 417.493 731.677L418.482 725.206ZM394.157 721.113C390.106 720.491 386.029 719.895 381.925 719.324L381.171 725.832C385.249 726.4 389.301 726.993 393.327 727.61L394.157 721.113ZM369.733 717.711C367.689 717.455 365.64 717.205 363.584 716.961C361.619 716.728 359.66 716.485 357.706 716.232L357.004 722.748C358.977 723.003 360.955 723.248 362.94 723.484C364.983 723.726 367.021 723.975 369.052 724.23L369.733 717.711ZM346.057 714.597C342.141 714.004 338.25 713.372 334.386 712.701L333.449 719.181C337.353 719.859 341.283 720.498 345.238 721.096L346.057 714.597ZM322.776 710.553C318.901 709.792 315.053 708.992 311.234 708.154L310.058 714.587C313.917 715.434 317.805 716.243 321.72 717.012L322.776 710.553ZM299.704 705.485C295.85 704.547 292.026 703.569 288.234 702.554L286.813 708.927C290.646 709.954 294.511 710.942 298.406 711.89L299.704 705.485ZM276.846 699.361C273.038 698.245 269.264 697.09 265.525 695.898L263.853 702.197C267.633 703.403 271.449 704.571 275.3 705.699L276.846 699.361ZM254.247 692.149C250.482 690.847 246.756 689.506 243.069 688.128L241.136 694.338C244.867 695.732 248.637 697.089 252.445 698.406L254.247 692.149ZM231.997 683.829C228.295 682.338 224.635 680.808 221.019 679.241L218.818 685.343C222.479 686.929 226.184 688.478 229.931 689.987L231.997 683.829ZM210.121 674.347C206.485 672.655 202.896 670.925 199.356 669.159L196.875 675.13C200.462 676.92 204.098 678.673 207.782 680.387L210.121 674.347ZM188.731 663.67C185.187 661.775 181.695 659.843 178.258 657.875L175.486 663.689C178.972 665.686 182.513 667.646 186.106 669.567L188.731 663.67ZM167.932 651.754C164.48 649.636 161.089 647.482 157.759 645.292L154.679 650.918C158.061 653.142 161.505 655.33 165.008 657.479L167.932 651.754ZM147.782 638.498C144.459 636.154 141.204 633.774 138.019 631.361L134.615 636.757C137.855 639.213 141.164 641.633 144.542 644.015L147.782 638.498ZM128.492 623.87C125.324 621.286 122.234 618.667 119.223 616.015L115.473 621.13C118.543 623.833 121.691 626.501 124.917 629.133L128.492 623.87ZM110.24 607.784C107.262 604.944 104.373 602.07 101.575 599.166L97.4584 603.929C100.319 606.898 103.27 609.834 106.309 612.733L110.24 607.784ZM93.2659 590.148C90.5258 587.035 87.8886 583.892 85.3565 580.721L80.8515 585.042C83.4491 588.295 86.152 591.516 88.9576 594.703L93.2659 590.148ZM77.8979 570.876C75.4615 567.481 73.1444 564.057 70.9493 560.61L66.0402 564.365C68.3022 567.918 70.6873 571.441 73.192 574.932L77.8979 570.876ZM64.5786 549.924C62.5337 546.246 60.6271 542.545 58.862 538.826L53.551 541.853C55.3803 545.708 57.3534 549.537 59.4664 553.338L64.5786 549.924ZM53.8836 527.336C52.34 523.4 50.9552 519.448 49.7326 515.485L44.0615 517.587C45.3367 521.72 46.7789 525.835 48.3837 529.927L53.8836 527.336ZM46.5003 503.323C45.5779 499.187 44.834 495.043 44.2722 490.896L38.3506 491.859C38.9401 496.211 39.7199 500.553 40.6851 504.881L46.5003 503.323ZM43.131 478.314C43.0348 476.209 42.9865 474.104 42.9865 472H37C37 474.215 37.0509 476.429 37.1521 478.643L43.131 478.314Z" fill="#FFB96A"/>
<circle cx="690" cy="55" r="37" fill="#FFB96A"/>
<circle cx="37" cy="515" r="37" fill="#FFB96A"/>
</svg>
