<svg width="787" height="748" viewBox="0 0 787 748" fill="none" xmlns="http://www.w3.org/2000/svg">
<path d="M650.906 5.81836C655.887 4.44166 661.202 4.81106 665.929 6.85742C670.654 8.90314 674.477 12.4873 676.76 16.9678L676.762 16.9727L779.686 218.433V218.434C781.895 222.76 782.543 227.675 781.542 232.391L781.439 232.847L665.224 726.277C664.069 731.172 661.191 735.538 657.062 738.599C652.93 741.661 647.815 743.218 642.61 742.976H642.611L137.918 719.312H137.917C133.041 719.085 128.391 717.291 124.684 714.229C120.977 711.169 118.421 707.015 117.387 702.42V702.419L5.51465 205.669V205.668L5.4082 205.167C4.37197 199.986 5.32456 194.6 8.10938 190.042C10.9862 185.334 15.6112 181.852 21.0605 180.344H21.0615L650.905 5.81738L650.906 5.81836Z" stroke="url(#paint0_linear_121_2)" stroke-width="10"/>
<defs>
<linearGradient id="paint0_linear_121_2" x1="361.5" y1="687" x2="365" y2="35.5" gradientUnits="userSpaceOnUse">
<stop stop-color="#FFB96A" stop-opacity="0"/>
<stop offset="1" stop-color="#FFB96A"/>
</linearGradient>
</defs>
</svg>
