<svg width="48" height="48" viewBox="0 0 48 48" fill="none" xmlns="http://www.w3.org/2000/svg">
<path d="M39.6182 0.0641244L1.20315 11.2636C0.797382 11.3818 0.45081 11.6552 0.234367 12.0279C0.0179243 12.4006 -0.0520262 12.8444 0.0388286 13.2685L6.86203 45.1455C6.94016 45.5107 7.13288 45.8392 7.4104 46.0803C7.68793 46.3214 8.03483 46.4617 8.39751 46.4796L39.1793 47.9981C39.5663 48.017 39.9476 47.8954 40.2565 47.6545C40.5654 47.4135 40.7824 47.0685 40.8695 46.6797L47.9577 15.0156C48.0441 14.6299 47.9973 14.2253 47.8255 13.8712L41.548 0.943206C41.3761 0.588176 41.0892 0.30609 40.7369 0.145602C40.3846 -0.0148864 39.989 -0.0437024 39.6182 0.0641244Z" fill="#FFB96A"/>
</svg>
