<svg width="129" height="66" viewBox="0 0 129 66" fill="none" xmlns="http://www.w3.org/2000/svg">
<path d="M100.475 0.0881711L47.6543 15.4875C47.0964 15.65 46.6199 16.026 46.3223 16.5384C46.0246 17.0509 45.9285 17.6611 46.0534 18.2442L55.4353 62.0751C55.5427 62.5772 55.8077 63.0289 56.1893 63.3605C56.5709 63.692 57.0479 63.8849 57.5466 63.9094L99.8715 65.9974C100.404 66.0234 100.928 65.8562 101.353 65.5249C101.777 65.1936 102.076 64.7193 102.196 64.1846L111.942 20.6465C112.061 20.1161 111.996 19.5598 111.76 19.073L103.129 1.29691C102.892 0.808743 102.498 0.420874 102.013 0.200202C101.529 -0.0204688 100.985 -0.0600908 100.475 0.0881711Z" fill="#FFB96A"/>
<path d="M23.08 44.18C23.3733 44.18 23.6333 44.2933 23.86 44.52L25.98 46.82C24.8067 48.2733 23.36 49.3867 21.64 50.16C19.9333 50.9333 17.88 51.32 15.48 51.32C13.3333 51.32 11.4 50.9533 9.68 50.22C7.97333 49.4867 6.51333 48.4667 5.3 47.16C4.08667 45.8533 3.15333 44.2933 2.5 42.48C1.86 40.6667 1.54 38.6867 1.54 36.54C1.54 34.3667 1.88667 32.38 2.58 30.58C3.27333 28.7667 4.24667 27.2067 5.5 25.9C6.76667 24.5933 8.27333 23.58 10.02 22.86C11.7667 22.1267 13.7 21.76 15.82 21.76C17.9267 21.76 19.7933 22.1067 21.42 22.8C23.06 23.4933 24.4533 24.4 25.6 25.52L23.8 28.02C23.6933 28.18 23.5533 28.32 23.38 28.44C23.22 28.56 22.9933 28.62 22.7 28.62C22.5 28.62 22.2933 28.5667 22.08 28.46C21.8667 28.34 21.6333 28.2 21.38 28.04C21.1267 27.8667 20.8333 27.68 20.5 27.48C20.1667 27.28 19.78 27.1 19.34 26.94C18.9 26.7667 18.3867 26.6267 17.8 26.52C17.2267 26.4 16.56 26.34 15.8 26.34C14.5067 26.34 13.32 26.5733 12.24 27.04C11.1733 27.4933 10.2533 28.16 9.48 29.04C8.70667 29.9067 8.10667 30.9733 7.68 32.24C7.25333 33.4933 7.04 34.9267 7.04 36.54C7.04 38.1667 7.26667 39.6133 7.72 40.88C8.18667 42.1467 8.81333 43.2133 9.6 44.08C10.3867 44.9467 11.3133 45.6133 12.38 46.08C13.4467 46.5333 14.5933 46.76 15.82 46.76C16.5533 46.76 17.2133 46.72 17.8 46.64C18.4 46.56 18.9467 46.4333 19.44 46.26C19.9467 46.0867 20.42 45.8667 20.86 45.6C21.3133 45.32 21.76 44.98 22.2 44.58C22.3333 44.46 22.4733 44.3667 22.62 44.3C22.7667 44.22 22.92 44.18 23.08 44.18ZM37.5356 30.16C39.0556 30.16 40.4356 30.4067 41.6756 30.9C42.929 31.3933 43.9956 32.0933 44.8756 33C45.769 33.9067 46.4556 35.0133 46.9356 36.32C47.4156 37.6267 47.6556 39.0867 47.6556 40.7C47.6556 42.3267 47.4156 43.7933 46.9356 45.1C46.4556 46.4067 45.769 47.52 44.8756 48.44C43.9956 49.36 42.929 50.0667 41.6756 50.56C40.4356 51.0533 39.0556 51.3 37.5356 51.3C36.0023 51.3 34.609 51.0533 33.3556 50.56C32.1023 50.0667 31.029 49.36 30.1356 48.44C29.2556 47.52 28.569 46.4067 28.0756 45.1C27.5956 43.7933 27.3556 42.3267 27.3556 40.7C27.3556 39.0867 27.5956 37.6267 28.0756 36.32C28.569 35.0133 29.2556 33.9067 30.1356 33C31.029 32.0933 32.1023 31.3933 33.3556 30.9C34.609 30.4067 36.0023 30.16 37.5356 30.16ZM37.5356 47.5C39.2423 47.5 40.5023 46.9267 41.3156 45.78C42.1423 44.6333 42.5556 42.9533 42.5556 40.74C42.5556 38.5267 42.1423 36.84 41.3156 35.68C40.5023 34.52 39.2423 33.94 37.5356 33.94C35.8023 33.94 34.5156 34.5267 33.6756 35.7C32.849 36.86 32.4356 38.54 32.4356 40.74C32.4356 42.94 32.849 44.62 33.6756 45.78C34.5156 46.9267 35.8023 47.5 37.5356 47.5ZM64.3044 35.72C63.7444 35.04 63.131 34.56 62.4644 34.28C61.811 34 61.1044 33.86 60.3444 33.86C59.5977 33.86 58.9244 34 58.3244 34.28C57.7244 34.56 57.211 34.9867 56.7844 35.56C56.3577 36.12 56.031 36.84 55.8044 37.72C55.5777 38.5867 55.4644 39.6133 55.4644 40.8C55.4644 42 55.5577 43.02 55.7444 43.86C55.9444 44.6867 56.2244 45.3667 56.5844 45.9C56.9444 46.42 57.3844 46.8 57.9044 47.04C58.4244 47.2667 59.0044 47.38 59.6444 47.38C60.671 47.38 61.5444 47.1667 62.2644 46.74C62.9844 46.3133 63.6644 45.7067 64.3044 44.92V35.72ZM69.2444 21.28V51H66.2244C65.571 51 65.1577 50.7 64.9844 50.1L64.5644 48.12C63.7377 49.0667 62.7844 49.8333 61.7044 50.42C60.6377 51.0067 59.391 51.3 57.9644 51.3C56.8444 51.3 55.8177 51.0667 54.8844 50.6C53.951 50.1333 53.1444 49.46 52.4644 48.58C51.7977 47.6867 51.2777 46.5867 50.9044 45.28C50.5444 43.9733 50.3644 42.48 50.3644 40.8C50.3644 39.28 50.571 37.8667 50.9844 36.56C51.3977 35.2533 51.991 34.12 52.7644 33.16C53.5377 32.2 54.4644 31.4533 55.5444 30.92C56.6244 30.3733 57.8377 30.1 59.1844 30.1C60.331 30.1 61.311 30.28 62.1244 30.64C62.9377 31 63.6644 31.4867 64.3044 32.1V21.28H69.2444ZM87.3397 38.38C87.3397 37.74 87.2464 37.14 87.0597 36.58C86.8864 36.0067 86.6197 35.5067 86.2597 35.08C85.8997 34.6533 85.4397 34.32 84.8797 34.08C84.333 33.8267 83.693 33.7 82.9597 33.7C81.533 33.7 80.4064 34.1067 79.5797 34.92C78.7664 35.7333 78.2464 36.8867 78.0197 38.38H87.3397ZM77.9197 41.36C77.9997 42.4133 78.1864 43.3267 78.4797 44.1C78.773 44.86 79.1597 45.4933 79.6397 46C80.1197 46.4933 80.6864 46.8667 81.3397 47.12C82.0064 47.36 82.7397 47.48 83.5397 47.48C84.3397 47.48 85.0264 47.3867 85.5997 47.2C86.1864 47.0133 86.693 46.8067 87.1197 46.58C87.5597 46.3533 87.9397 46.1467 88.2597 45.96C88.593 45.7733 88.913 45.68 89.2197 45.68C89.633 45.68 89.9397 45.8333 90.1397 46.14L91.5597 47.94C91.013 48.58 90.3997 49.12 89.7197 49.56C89.0397 49.9867 88.3264 50.3333 87.5797 50.6C86.8464 50.8533 86.093 51.0333 85.3197 51.14C84.5597 51.2467 83.8197 51.3 83.0997 51.3C81.673 51.3 80.3464 51.0667 79.1197 50.6C77.893 50.12 76.8264 49.42 75.9197 48.5C75.013 47.5667 74.2997 46.42 73.7797 45.06C73.2597 43.6867 72.9997 42.1 72.9997 40.3C72.9997 38.9 73.2264 37.5867 73.6797 36.36C74.133 35.12 74.7797 34.0467 75.6197 33.14C76.473 32.22 77.5064 31.4933 78.7197 30.96C79.9464 30.4267 81.3264 30.16 82.8597 30.16C84.153 30.16 85.3464 30.3667 86.4397 30.78C87.533 31.1933 88.473 31.8 89.2597 32.6C90.0464 33.3867 90.6597 34.36 91.0997 35.52C91.553 36.6667 91.7797 37.98 91.7797 39.46C91.7797 40.2067 91.6997 40.7133 91.5397 40.98C91.3797 41.2333 91.073 41.36 90.6197 41.36H77.9197ZM100.147 34.04C100.787 32.8133 101.547 31.8533 102.427 31.16C103.307 30.4533 104.347 30.1 105.547 30.1C106.494 30.1 107.254 30.3067 107.827 30.72L107.507 34.42C107.44 34.66 107.34 34.8333 107.207 34.94C107.087 35.0333 106.92 35.08 106.707 35.08C106.507 35.08 106.207 35.0467 105.807 34.98C105.42 34.9133 105.04 34.88 104.667 34.88C104.12 34.88 103.634 34.96 103.207 35.12C102.78 35.28 102.394 35.5133 102.047 35.82C101.714 36.1133 101.414 36.4733 101.147 36.9C100.894 37.3267 100.654 37.8133 100.427 38.36V51H95.4869V30.48H98.3869C98.8935 30.48 99.2469 30.5733 99.4469 30.76C99.6469 30.9333 99.7802 31.2533 99.8469 31.72L100.147 34.04ZM120.975 42.24C119.549 42.3067 118.349 42.4333 117.375 42.62C116.402 42.7933 115.622 43.02 115.035 43.3C114.449 43.58 114.029 43.9067 113.775 44.28C113.522 44.6533 113.395 45.06 113.395 45.5C113.395 46.3667 113.649 46.9867 114.155 47.36C114.675 47.7333 115.349 47.92 116.175 47.92C117.189 47.92 118.062 47.74 118.795 47.38C119.542 47.0067 120.269 46.4467 120.975 45.7V42.24ZM109.655 33.34C112.015 31.18 114.855 30.1 118.175 30.1C119.375 30.1 120.449 30.3 121.395 30.7C122.342 31.0867 123.142 31.6333 123.795 32.34C124.449 33.0333 124.942 33.8667 125.275 34.84C125.622 35.8133 125.795 36.88 125.795 38.04V51H123.555C123.089 51 122.729 50.9333 122.475 50.8C122.222 50.6533 122.022 50.3667 121.875 49.94L121.435 48.46C120.915 48.9267 120.409 49.34 119.915 49.7C119.422 50.0467 118.909 50.34 118.375 50.58C117.842 50.82 117.269 51 116.655 51.12C116.055 51.2533 115.389 51.32 114.655 51.32C113.789 51.32 112.989 51.2067 112.255 50.98C111.522 50.74 110.889 50.3867 110.355 49.92C109.822 49.4533 109.409 48.8733 109.115 48.18C108.822 47.4867 108.675 46.68 108.675 45.76C108.675 45.24 108.762 44.7267 108.935 44.22C109.109 43.7 109.389 43.2067 109.775 42.74C110.175 42.2733 110.689 41.8333 111.315 41.42C111.942 41.0067 112.709 40.6467 113.615 40.34C114.535 40.0333 115.602 39.7867 116.815 39.6C118.029 39.4 119.415 39.28 120.975 39.24V38.04C120.975 36.6667 120.682 35.6533 120.095 35C119.509 34.3333 118.662 34 117.555 34C116.755 34 116.089 34.0933 115.555 34.28C115.035 34.4667 114.575 34.68 114.175 34.92C113.775 35.1467 113.409 35.3533 113.075 35.54C112.755 35.7267 112.395 35.82 111.995 35.82C111.649 35.82 111.355 35.7333 111.115 35.56C110.875 35.3733 110.682 35.16 110.535 34.92L109.655 33.34Z" fill="white"/>
</svg>
