<svg width="41" height="40" viewBox="0 0 41 40" fill="none" xmlns="http://www.w3.org/2000/svg">
<path d="M40.149 20.0745C40.149 8.98647 31.1625 0 20.0745 0C8.98647 0 0 8.98647 0 20.0745C0 29.4844 6.485 37.3887 15.2284 39.5609V26.2066H11.088V20.0745H15.2284V17.4319C15.2284 10.6018 18.318 7.43384 25.0304 7.43384C26.3007 7.43384 28.4964 7.68477 29.3982 7.9357V13.4876C28.9277 13.4405 28.1043 13.4091 27.077 13.4091C23.7836 13.4091 22.5132 14.6559 22.5132 17.8945V20.0745H29.0688L27.9396 26.2066H22.5054V40C32.4485 38.8002 40.149 30.3391 40.149 20.0745Z" fill="#E8EBFF"/>
</svg>
