<svg width="371" height="371" viewBox="0 0 371 371" fill="none" xmlns="http://www.w3.org/2000/svg">
<path d="M126.913 25.5146H122.092V129.158H126.913V25.5146Z" fill="#3E629B"/>
<path d="M52.166 26.3866V129.233C52.166 129.272 52.1972 129.303 52.2358 129.303H121.29C121.329 129.303 121.36 129.272 121.36 129.233V26.3866C121.36 26.3481 121.329 26.3169 121.29 26.3169H52.2358C52.1972 26.3169 52.166 26.3481 52.166 26.3866Z" fill="#5274B8"/>
<path d="M122.093 130.104H51.435C51.3964 130.104 51.3652 130.073 51.3652 130.034V25.5844C51.3652 25.5458 51.3964 25.5146 51.435 25.5146H122.093C122.131 25.5146 122.162 25.5458 122.162 25.5844V130.034C122.162 130.073 122.131 130.104 122.093 130.104ZM53.0377 128.501H120.488C120.527 128.501 120.558 128.469 120.558 128.431V27.1879C120.558 27.1493 120.527 27.1181 120.488 27.1181H53.0377C52.9991 27.1181 52.968 27.1493 52.968 27.1879V128.432C52.9687 128.469 52.9999 128.501 53.0377 128.501Z" fill="#5274B8"/>
<path d="M59.1348 32.7397V122.812C59.1348 122.85 59.1659 122.882 59.2045 122.882H114.446C114.485 122.882 114.516 122.85 114.516 122.812V32.7397C114.516 32.7011 114.485 32.6699 114.446 32.6699H59.2045C59.1659 32.6699 59.1348 32.7011 59.1348 32.7397Z" fill="white"/>
<path d="M102.265 94.6922H71.2643C71.2383 94.6922 71.2168 94.6706 71.2168 94.6447V58.2926C71.2168 58.2659 71.2383 58.2451 71.2643 58.2451H102.265C102.292 58.2451 102.313 58.2666 102.313 58.2926V94.6447C102.313 94.6706 102.291 94.6922 102.265 94.6922Z" fill="#5274B8"/>
<path d="M99.851 90.2313C99.8911 90.3486 98.3567 91.0208 95.4361 90.6788C93.9981 90.4836 92.2084 89.9664 90.4729 88.6954C88.7745 87.4236 87.1628 85.372 86.6167 82.6303C86.0498 79.9101 86.9595 76.5192 89.5662 74.3392C90.2139 73.7983 90.9671 73.3419 91.8026 73.0288C92.69 72.6994 93.6487 72.5903 94.5999 72.7068C95.546 72.8225 96.5484 73.152 97.3965 73.9281C98.2535 74.7057 98.7225 76.0183 98.4991 77.1862C98.2966 78.3653 97.654 79.269 96.9639 79.9828C96.2516 80.7107 95.4443 81.2479 94.6214 81.7087C92.949 82.6325 91.0368 83.2113 89.0327 83.3048C87.0374 83.4005 84.9287 82.9909 83.0774 81.9491C81.2432 80.9192 79.6753 79.3581 78.6944 77.4059C77.7001 75.4774 77.384 73.1364 77.9079 71.0432C78.4124 68.9575 79.5974 67.0928 81.2617 65.801C82.0972 65.154 83.0418 64.6754 84.0732 64.3815C85.112 64.1152 86.1827 64.0655 87.2385 64.2829C88.2833 64.5025 89.351 65.016 90.1116 65.9034C90.8825 66.7827 91.2275 67.9313 91.2379 68.973C91.2542 70.0207 90.9686 71.0425 90.4885 71.8973C90.0173 72.755 89.3829 73.4503 88.7151 74.029C87.3699 75.168 85.8599 75.9174 84.3099 76.37C82.7606 76.8152 81.1719 76.9325 79.6753 76.7277C78.1832 76.517 76.7778 75.9679 75.6418 75.1828C73.3498 73.6276 72.0253 71.2643 71.7893 69.0814C71.5296 66.8583 72.3429 65.0345 73.217 63.8503C74.1155 62.6423 75.1476 62.0242 75.857 61.7415C76.5834 61.4662 76.9974 61.4759 77.0153 61.5449C77.0457 61.6436 76.6865 61.8038 76.0974 62.1971C75.5209 62.5978 74.7054 63.273 74.0443 64.4038C73.3987 65.5123 72.866 67.121 73.2036 68.8721C73.5108 70.6173 74.7047 72.4923 76.6287 73.6692C78.5126 74.866 81.1556 75.1739 83.694 74.3422C84.9517 73.9363 86.2049 73.2581 87.2296 72.3417C88.2462 71.4298 88.9385 70.256 88.8813 69.0287C88.8487 67.7977 88.0725 66.9296 86.7533 66.6773C86.1099 66.5519 85.388 66.592 84.7202 66.773C84.0568 66.9756 83.3824 67.3139 82.8021 67.7777C81.6283 68.7007 80.7408 70.1016 80.3832 71.6324C80.0152 73.1616 80.2348 74.7829 80.9768 76.2528C81.7077 77.719 82.9253 78.9403 84.3225 79.7306C85.7137 80.523 87.3328 80.8606 88.9258 80.8013C90.5211 80.7441 92.0868 80.2937 93.4528 79.5636C94.1436 79.1904 94.7795 78.7704 95.2596 78.2903C95.7515 77.8095 96.0936 77.2604 96.1759 76.7967C96.2657 76.327 96.1225 75.9189 95.8057 75.5946C95.4725 75.2645 94.9056 75.0151 94.3083 74.935C93.708 74.8437 93.0862 74.9001 92.5453 75.0849C91.9502 75.2889 91.396 75.5991 90.9025 75.9849C89.9157 76.7581 89.1751 77.8169 88.7604 78.9359C88.3382 80.0578 88.2395 81.2183 88.3998 82.3253C88.7285 84.5491 89.981 86.3893 91.3626 87.5742C92.7716 88.7659 94.3269 89.3795 95.6216 89.7001C98.2513 90.3122 99.8303 90.0095 99.851 90.2313Z" fill="#FCB86A"/>
<path d="M309.191 327.921C308.266 327.146 306.205 324.691 307.795 321.835C308.378 320.788 309.616 320.27 310.736 319.808C311.857 319.347 313.034 318.946 313.962 318.174C315.71 316.719 316.193 314.303 317.353 312.363C318.686 310.135 321.173 308.467 323.801 308.583C326.809 308.717 329.319 311.12 330.456 313.86C331.594 316.6 331.634 319.643 331.657 322.602C331.669 324.238 331.595 326.082 330.367 327.187C329.235 328.206 327.53 328.219 325.995 328.173C320.514 328.008 315.032 327.843 309.551 327.678" fill="#FCB86A"/>
<path d="M340.641 283.706H297.396L305.186 329.125C305.527 331.109 306.994 332.637 308.878 333.169C308.928 333.184 308.979 333.195 309.03 333.209C309.158 333.241 309.283 333.284 309.415 333.307C309.7 333.364 309.995 333.393 310.294 333.405C310.296 333.419 310.299 333.435 310.301 333.449L310.511 333.416C310.512 333.416 310.512 333.416 310.513 333.416H329.786C330.149 333.416 330.502 333.38 330.845 333.313C333.122 332.969 334.943 331.183 335.22 328.874L338.975 297.579L339.144 296.335H339.124L340.611 283.941L340.641 283.706ZM332.483 312.678H328.045L328.492 299.497H333.634L332.483 312.678ZM334.065 299.497H338.314L336.732 312.678H332.914L334.065 299.497ZM321.387 327.29L321.117 315.839H327.508L327.119 327.29H321.387ZM314.478 315.839H320.688L320.957 327.29H315.388L314.478 315.839ZM314.957 327.29H309.751C309.256 324.198 308.613 320.181 307.915 315.839H314.047L314.957 327.29ZM314.227 312.678L313.179 299.497H320.303L320.613 312.678H314.227ZM321.043 312.678L320.732 299.497H328.063L327.615 312.678H321.043ZM320.657 296.336L320.37 284.128H328.585L328.17 296.336H320.657ZM320.228 296.336H312.927L311.958 284.128H319.941L320.228 296.336ZM312.498 296.336H304.773C304.5 294.65 304.241 293.054 304.006 291.618C303.2 286.683 302.898 284.826 302.729 284.128H311.527L312.498 296.336ZM312.748 299.497L313.796 312.678H307.408C307.193 311.34 306.976 309.988 306.758 308.634C306.257 305.522 305.757 302.411 305.285 299.497H312.748ZM306.974 312.678H302.801L300.54 299.497H304.851C305.509 303.57 306.239 308.104 306.974 312.678ZM307.482 315.839C308.118 319.801 308.744 323.709 309.317 327.29H305.307L303.343 315.839H307.482ZM327.548 327.29L327.937 315.839H332.207L331.206 327.29H327.548ZM328.6 296.336L329.015 284.128H334.977L333.911 296.336H328.6ZM302.32 284.128C302.492 285.01 303.281 289.814 304.339 296.336H299.998L297.904 284.128H302.32ZM334.979 327.29H331.637L332.637 315.839H336.353L334.979 327.29ZM338.693 296.336H334.341L335.408 284.128H340.158L338.693 296.336Z" fill="#5274B8"/>
<path d="M360.866 333.374C360.866 333.41 284.548 333.439 190.427 333.439C96.272 333.439 19.9707 333.41 19.9707 333.374C19.9707 333.338 96.2728 333.309 190.427 333.309C284.548 333.309 360.866 333.338 360.866 333.374Z" fill="#263238"/>
<path d="M310.267 161.438H166.796C164.173 161.438 162.047 159.311 162.047 156.688V26.2017C162.047 23.5787 164.173 21.4521 166.796 21.4521H310.267C312.89 21.4521 315.017 23.5787 315.017 26.2017V156.688C315.017 159.311 312.89 161.438 310.267 161.438Z" fill="white"/>
<path d="M310.267 161.438C310.262 161.409 310.786 161.477 311.728 161.185C312.193 161.033 312.757 160.766 313.31 160.294C313.854 159.82 314.406 159.143 314.712 158.235C315.063 157.331 314.956 156.236 314.968 155.052C314.965 153.864 314.962 152.566 314.959 151.159C314.954 148.344 314.948 145.098 314.941 141.445C314.927 126.822 314.906 105.67 314.88 79.535C314.872 66.4654 314.865 52.1508 314.856 36.7832C314.855 34.8622 314.855 32.9248 314.853 30.9711C314.853 29.9947 314.852 29.0137 314.852 28.0291L314.851 26.5488C314.861 26.048 314.831 25.5835 314.715 25.1138C314.499 24.1789 313.954 23.3285 313.222 22.7015C312.483 22.0812 311.546 21.6894 310.573 21.6345C308.58 21.6041 306.531 21.6271 304.49 21.6212C296.304 21.6241 287.879 21.6264 279.239 21.6293C244.681 21.6338 206.687 21.639 166.809 21.6442C165.609 21.6382 164.423 22.1265 163.579 22.9731C162.729 23.813 162.237 24.9951 162.239 26.186C162.239 28.6642 162.239 31.1344 162.239 33.5963C162.239 38.521 162.238 43.413 162.238 48.2694C162.237 57.9822 162.236 67.5525 162.235 76.9566C162.231 95.764 162.227 113.905 162.224 131.187C162.221 139.828 162.219 148.254 162.216 156.441C162.175 157.447 162.452 158.424 162.994 159.245C163.55 160.049 164.347 160.694 165.272 161.006C166.185 161.361 167.192 161.254 168.198 161.272C169.198 161.273 170.195 161.273 171.187 161.274C175.158 161.275 179.066 161.277 182.908 161.279C198.277 161.287 212.592 161.295 225.662 161.303C251.797 161.329 272.946 161.349 287.568 161.364C294.873 161.38 300.546 161.392 304.398 161.401C306.319 161.409 307.785 161.415 308.775 161.42C309.762 161.424 310.267 161.438 310.267 161.438C310.267 161.438 309.762 161.451 308.775 161.458C307.785 161.462 306.319 161.468 304.398 161.477C300.546 161.485 294.873 161.498 287.568 161.513C272.946 161.528 251.797 161.549 225.662 161.575C212.592 161.582 198.277 161.59 182.908 161.599C179.066 161.6 175.158 161.602 171.187 161.604C170.194 161.605 169.198 161.605 168.198 161.605L166.691 161.601C166.17 161.6 165.653 161.49 165.161 161.323C164.169 160.988 163.312 160.297 162.715 159.435C162.131 158.563 161.833 157.485 161.877 156.443C161.874 148.256 161.871 139.83 161.868 131.189C161.865 113.907 161.861 95.7655 161.857 76.9581C161.856 67.554 161.855 57.9836 161.854 48.2709C161.854 43.4145 161.854 38.5225 161.854 33.5978C161.854 31.1351 161.854 28.665 161.854 26.1867C161.851 24.8956 162.386 23.6112 163.308 22.7015C164.221 21.7837 165.512 21.2531 166.81 21.2598C206.69 21.265 244.682 21.2702 279.241 21.2747C287.88 21.2776 296.305 21.2799 304.491 21.2828C306.542 21.291 308.559 21.268 310.596 21.3014C311.64 21.3622 312.647 21.7829 313.438 22.4493C314.222 23.1215 314.806 24.0342 315.037 25.0373C315.161 25.5308 315.193 26.0635 315.181 26.551L315.18 28.0313C315.18 29.016 315.18 29.9969 315.179 30.9733C315.178 32.927 315.177 34.8644 315.177 36.7854C315.169 52.153 315.16 66.4677 315.153 79.5373C315.127 105.672 315.106 126.823 315.091 141.447C315.085 145.101 315.079 148.347 315.074 151.161C315.071 152.568 315.067 153.866 315.065 155.054C315.046 156.231 315.149 157.342 314.786 158.263C314.468 159.184 313.903 159.867 313.348 160.341C312.784 160.815 312.211 161.078 311.74 161.226C311.266 161.368 310.892 161.417 310.643 161.431C310.393 161.438 310.267 161.438 310.267 161.438Z" fill="#263238"/>
<path d="M229.813 118.36C220.693 118.36 213.299 125.754 213.299 134.875C213.299 143.996 220.693 151.39 229.813 151.39C238.934 151.39 246.328 143.996 246.328 134.875C246.328 125.754 238.934 118.36 229.813 118.36ZM229.813 144.101C224.718 144.101 220.587 139.97 220.587 134.875C220.587 129.78 224.718 125.649 229.813 125.649C234.909 125.649 239.04 129.78 239.04 134.875C239.04 139.97 234.909 144.101 229.813 144.101Z" fill="#FCB86A"/>
<path d="M229.813 151.39C238.836 151.39 246.165 144.151 246.321 135.164H239.025C238.87 140.124 234.811 144.101 229.813 144.101C224.815 144.101 220.755 140.124 220.601 135.164H213.305C213.46 144.151 220.788 151.39 229.813 151.39Z" fill="#5274B8"/>
<path d="M229.814 118.36C229.717 118.36 229.621 118.366 229.524 118.367V125.663C229.621 125.661 229.716 125.649 229.814 125.649C234.909 125.649 239.04 129.779 239.04 134.875C239.04 134.973 239.028 135.068 239.025 135.165H246.321C246.323 135.068 246.328 134.972 246.328 134.875C246.328 125.754 238.934 118.36 229.814 118.36Z" fill="#E0E0E0"/>
<path d="M246.412 135.257H238.929L238.932 135.161C238.933 135.118 238.936 135.076 238.939 135.034C238.943 134.981 238.947 134.928 238.947 134.875C238.947 129.838 234.849 125.741 229.813 125.741C229.758 125.741 229.704 125.745 229.65 125.748C229.609 125.751 229.568 125.754 229.526 125.756L229.43 125.759V118.276L229.635 118.27C229.694 118.268 229.753 118.267 229.812 118.267C238.97 118.267 246.42 125.716 246.42 134.874C246.42 134.931 246.418 134.987 246.416 135.043C246.415 135.084 246.414 135.124 246.413 135.166L246.412 135.257ZM239.123 135.072H246.23C246.231 135.06 246.231 135.049 246.232 135.037C246.233 134.983 246.235 134.929 246.235 134.875C246.235 125.82 238.868 118.453 229.813 118.453C229.756 118.453 229.699 118.454 229.643 118.457L229.616 118.457V125.565C229.624 125.564 229.631 125.564 229.638 125.564C229.696 125.56 229.753 125.555 229.813 125.555C234.952 125.555 239.132 129.736 239.132 134.875C239.132 134.933 239.129 134.99 239.124 135.047C239.123 135.055 239.123 135.063 239.123 135.072Z" fill="#E0E0E0"/>
<path d="M239.031 135.165C238.946 137.903 237.672 140.341 235.703 141.975L240.246 147.675C243.887 144.704 246.232 140.21 246.32 135.165H239.031Z" fill="black"/>
<path d="M254.161 126.552C254.161 127.366 253.502 128.026 252.687 128.026C251.873 128.026 251.213 127.367 251.213 126.552C251.213 125.737 251.873 125.078 252.687 125.078C253.501 125.078 254.161 125.738 254.161 126.552Z" fill="#FCB86A"/>
<path d="M254.161 133.194C254.161 134.008 253.502 134.669 252.687 134.669C251.873 134.669 251.213 134.008 251.213 133.194C251.213 132.38 251.873 131.72 252.687 131.72C253.501 131.72 254.161 132.38 254.161 133.194Z" fill="#E0E0E0"/>
<path d="M254.161 139.713C254.161 140.527 253.502 141.187 252.687 141.187C251.873 141.187 251.213 140.527 251.213 139.713C251.213 138.899 251.873 138.238 252.687 138.238C253.501 138.238 254.161 138.899 254.161 139.713Z" fill="#5274B8"/>
<path d="M254.161 146.144C254.161 146.958 253.502 147.619 252.687 147.619C251.873 147.619 251.213 146.959 251.213 146.144C251.213 145.33 251.873 144.67 252.687 144.67C253.501 144.67 254.161 145.33 254.161 146.144Z" fill="black"/>
<path d="M265.65 127.337H258.423C258.084 127.337 257.809 127.062 257.809 126.723V126.466C257.809 126.126 258.084 125.851 258.423 125.851H265.65C265.989 125.851 266.264 126.126 266.264 126.466V126.723C266.264 127.063 265.989 127.337 265.65 127.337Z" fill="#FCB86A"/>
<path d="M265.65 133.865H258.423C258.084 133.865 257.809 133.589 257.809 133.25V132.993C257.809 132.654 258.084 132.379 258.423 132.379H265.65C265.989 132.379 266.264 132.654 266.264 132.993V133.25C266.264 133.589 265.989 133.865 265.65 133.865Z" fill="#E0E0E0"/>
<path d="M265.65 140.391H258.423C258.084 140.391 257.809 140.116 257.809 139.777V139.52C257.809 139.18 258.084 138.905 258.423 138.905H265.65C265.989 138.905 266.264 139.18 266.264 139.52V139.777C266.264 140.116 265.989 140.391 265.65 140.391Z" fill="#5274B8"/>
<path d="M265.65 146.918H258.423C258.084 146.918 257.809 146.643 257.809 146.304V146.046C257.809 145.707 258.084 145.432 258.423 145.432H265.65C265.989 145.432 266.264 145.707 266.264 146.046V146.304C266.264 146.644 265.989 146.918 265.65 146.918Z" fill="black"/>
<path d="M299.487 95.3079H180.057V44.1797H299.487V95.3079ZM180.327 95.0631H299.217V44.4245H180.327V95.0631Z" fill="#EBEBEB"/>
<path d="M299.352 86.582H180.191V86.8269H299.352V86.582Z" fill="#EBEBEB"/>
<path d="M299.352 78.1016H180.191V78.3464H299.352V78.1016Z" fill="#EBEBEB"/>
<path d="M299.352 69.6206H180.191V69.8655H299.352V69.6206Z" fill="#EBEBEB"/>
<path d="M299.352 61.1401H180.191V61.385H299.352V61.1401Z" fill="#EBEBEB"/>
<path d="M299.352 52.6602H180.191V52.905H299.352V52.6602Z" fill="#EBEBEB"/>
<path d="M195.413 60.6135H191.486V95.0052H195.413V60.6135Z" fill="#FCB86A"/>
<path d="M202.55 52.2964H197.699V95.0052H202.55V52.2964Z" fill="#5274B8"/>
<path d="M222.888 85.2462H218.961V95.005H222.888V85.2462Z" fill="#FCB86A"/>
<path d="M229.101 65.1499H225.174V95.0057H229.101V65.1499Z" fill="#5274B8"/>
<path d="M248.515 45.9175H244.588V95.0052H248.515V45.9175Z" fill="#FCB86A"/>
<path d="M255.651 83.3016H251.724V95.0052H255.651V83.3016Z" fill="#5274B8"/>
<path d="M274.141 50.8872H270.215V95.005H274.141V50.8872Z" fill="#FCB86A"/>
<path d="M280.352 69.6436H276.426V95.0051H280.352V69.6436Z" fill="#5274B8"/>
<path d="M293.353 91.5807H289.426V95.0058H293.353V91.5807Z" fill="#FCB86A"/>
<path d="M200.203 100.856H192.202C191.863 100.856 191.588 100.581 191.588 100.242V99.8488C191.588 99.5097 191.863 99.2344 192.202 99.2344H200.203C200.542 99.2344 200.818 99.5097 200.818 99.8488V100.242C200.818 100.581 200.543 100.856 200.203 100.856Z" fill="#E0E0E0"/>
<path d="M226.945 100.856H218.944C218.605 100.856 218.33 100.581 218.33 100.242V99.8488C218.33 99.5097 218.605 99.2344 218.944 99.2344H226.945C227.285 99.2344 227.56 99.5097 227.56 99.8488V100.242C227.559 100.581 227.285 100.856 226.945 100.856Z" fill="#E0E0E0"/>
<path d="M250.551 100.856H242.55C242.211 100.856 241.936 100.581 241.936 100.242V99.8488C241.936 99.5097 242.211 99.2344 242.55 99.2344H250.551C250.89 99.2344 251.165 99.5097 251.165 99.8488V100.242C251.165 100.581 250.89 100.856 250.551 100.856Z" fill="#E0E0E0"/>
<path d="M274.863 100.856H266.862C266.523 100.856 266.248 100.581 266.248 100.242V99.8488C266.248 99.5097 266.523 99.2344 266.862 99.2344H274.863C275.203 99.2344 275.478 99.5097 275.478 99.8488V100.242C275.478 100.581 275.203 100.856 274.863 100.856Z" fill="#E0E0E0"/>
<path d="M295.467 100.856H287.466C287.127 100.856 286.852 100.581 286.852 100.242V99.8488C286.852 99.5097 287.127 99.2344 287.466 99.2344H295.467C295.806 99.2344 296.081 99.5097 296.081 99.8488V100.242C296.081 100.581 295.807 100.856 295.467 100.856Z" fill="#E0E0E0"/>
<path d="M230.025 136.023H229.339V136.934H228.389V136.023H226.121V135.347L228.106 132.594H229.128L227.288 135.205H228.419V134.392H229.339V135.205H230.025V136.023Z" fill="#263238"/>
<path d="M233.059 134.59C233.342 134.834 233.483 135.16 233.483 135.569C233.483 135.834 233.419 136.074 233.291 136.292C233.162 136.509 232.967 136.682 232.704 136.813C232.441 136.943 232.118 137.008 231.733 137.008C231.436 137.008 231.144 136.968 230.857 136.887C230.571 136.806 230.327 136.692 230.127 136.543L230.512 135.774C230.672 135.898 230.857 135.994 231.066 136.063C231.273 136.131 231.488 136.165 231.709 136.165C231.953 136.165 232.146 136.115 232.286 136.016C232.426 135.917 232.496 135.778 232.496 135.6C232.496 135.415 232.423 135.274 232.277 135.179C232.13 135.084 231.877 135.036 231.516 135.036H230.44L230.656 132.594H233.224V133.4H231.468L231.402 134.224H231.745C232.339 134.224 232.777 134.346 233.059 134.59Z" fill="#263238"/>
<path d="M175.617 31.2799C175.617 32.3491 174.751 33.2165 173.681 33.2165C172.612 33.2165 171.744 32.3498 171.744 31.2799C171.744 30.2107 172.612 29.3433 173.681 29.3433C174.751 29.3433 175.617 30.2099 175.617 31.2799Z" fill="#263238"/>
<path d="M181.012 31.2799C181.012 32.3491 180.145 33.2165 179.075 33.2165C178.006 33.2165 177.139 32.3498 177.139 31.2799C177.139 30.2107 178.006 29.3433 179.075 29.3433C180.145 29.3433 181.012 30.2099 181.012 31.2799Z" fill="#263238"/>
<path d="M186.406 31.2799C186.406 32.3491 185.54 33.2165 184.47 33.2165C183.401 33.2165 182.533 32.3498 182.533 31.2799C182.533 30.2107 183.401 29.3433 184.47 29.3433C185.54 29.3433 186.406 30.2099 186.406 31.2799Z" fill="#263238"/>
<path d="M165.939 153.422C165.939 153.422 165.577 156.836 164.93 158.418C164.283 160 163.308 160.553 163.346 162.998C163.383 165.444 163.307 168.076 163.307 168.076C163.307 168.076 159.703 173.146 159.945 173.167C160.188 173.187 166.396 179.209 166.396 179.209L172.238 169.638L180.652 160.554L182.679 151.907L182.16 151.398L182.172 149.811C182.172 149.811 180.876 148.382 179.93 150.037C179.93 150.037 179.513 147.987 177.856 149.978C176.2 151.968 173.532 156.653 173.251 156.8C172.97 156.947 169.645 159.573 169.645 159.573L167.757 159.951C167.757 159.951 168.851 158.577 168.788 157.009C168.725 155.44 169.387 154.25 168.218 153.345C167.048 152.441 165.939 153.422 165.939 153.422Z" fill="#FDD7C6"/>
<path d="M168.823 165.1C168.844 165.117 169.012 164.944 169.333 164.659C169.668 164.386 170.177 164.019 170.868 163.648C172.248 162.911 174.315 162.128 176.715 161.53L176.772 161.516L176.809 161.47C177.092 161.117 177.389 160.747 177.691 160.369C177.839 160.185 177.984 160.002 178.129 159.822L178.165 159.776L178.166 159.723C178.184 158.77 178.201 157.852 178.216 156.983C178.216 156.574 178.303 156.178 178.525 155.909C178.74 155.637 179.118 155.538 179.429 155.567L179.316 155.469C180.115 158 180.787 159.611 180.883 159.566C180.905 159.552 180.738 159.161 180.513 158.43C180.281 157.704 179.96 156.658 179.585 155.388L179.559 155.3L179.473 155.29C179.064 155.241 178.601 155.353 178.293 155.711C177.994 156.063 177.898 156.536 177.892 156.982C177.87 157.846 177.847 158.759 177.822 159.708L177.859 159.609C177.715 159.79 177.569 159.972 177.422 160.156C177.12 160.534 176.824 160.905 176.542 161.259L176.635 161.2C174.203 161.818 172.134 162.647 170.756 163.452C170.068 163.855 169.565 164.261 169.249 164.569C168.947 164.889 168.81 165.09 168.823 165.1Z" fill="#F7996E"/>
<path d="M175.513 157.754C175.596 157.799 176.618 156.091 177.795 153.938C178.972 151.785 179.858 150.003 179.775 149.957C179.692 149.912 178.671 151.62 177.494 153.774C176.316 155.926 175.429 157.708 175.513 157.754Z" fill="#F7996E"/>
<path d="M179.93 155.247C179.979 155.254 180.058 154.987 180.164 154.558C180.273 154.131 180.408 153.539 180.685 152.95C180.962 152.364 181.361 151.919 181.702 151.67C182.041 151.416 182.305 151.332 182.291 151.28C182.285 151.24 181.985 151.24 181.571 151.466C181.158 151.686 180.678 152.159 180.375 152.803C180.074 153.445 179.974 154.073 179.924 154.516C179.878 154.962 179.884 155.24 179.93 155.247Z" fill="#F7996E"/>
<path d="M172.838 157.88C172.842 157.984 173.955 157.882 175.14 158.464C176.337 159.022 176.955 159.953 177.038 159.891C177.074 159.869 176.971 159.603 176.687 159.245C176.405 158.888 175.921 158.458 175.288 158.154C174.654 157.852 174.016 157.744 173.561 157.749C173.104 157.752 172.832 157.839 172.838 157.88Z" fill="#F7996E"/>
<path d="M113.076 310.467H121.213V266.943H113.076V310.467Z" fill="#E0E0E0"/>
<path d="M146.255 259.935C146.122 259.935 121.213 267.752 121.213 267.752H113.076L84.5195 259.935H146.255Z" fill="#E0E0E0"/>
<path d="M151.703 325.909C151.703 325.909 147.938 314.414 142.747 311.633C134.406 307.166 115.183 305.027 115.183 305.027L113.076 310.468C113.076 310.468 138.714 311.475 142.748 316.649C146.473 321.427 149.185 325.909 149.185 325.909H151.703V325.909Z" fill="#E0E0E0"/>
<path d="M152.365 331.892C154.491 329.765 154.491 326.318 152.365 324.191C150.238 322.065 146.791 322.065 144.664 324.191C142.538 326.318 142.538 329.765 144.665 331.892C146.791 334.018 150.238 334.018 152.365 331.892Z" fill="#263238"/>
<path d="M82.2109 325.685C82.2109 325.685 85.9758 314.19 91.1669 311.41C99.5084 306.942 118.731 304.803 118.731 304.803L120.838 310.243C120.838 310.243 95.1996 311.252 91.1661 316.425C87.4413 321.203 84.7293 325.685 84.7293 325.685H82.2109Z" fill="#E0E0E0"/>
<path d="M87.5422 331.891C89.6685 329.764 89.6685 326.317 87.5422 324.191C85.4159 322.064 81.9685 322.064 79.8422 324.191C77.7159 326.317 77.7159 329.764 79.8422 331.891C81.9685 334.017 85.4159 334.017 87.5422 331.891Z" fill="#263238"/>
<path d="M119.95 307.946L118.757 322.736L115.395 323.4V307.946" fill="#E0E0E0"/>
<path d="M122.089 329.281C122.778 326.354 120.963 323.423 118.036 322.734C115.109 322.046 112.178 323.86 111.489 326.787C110.801 329.715 112.615 332.646 115.542 333.334C118.469 334.023 121.401 332.208 122.089 329.281Z" fill="#263238"/>
<path d="M113.266 267.924C113.266 268.019 115.002 268.096 117.143 268.096C119.285 268.096 121.022 268.019 121.022 267.924C121.022 267.829 119.285 267.752 117.143 267.752C115.002 267.752 113.266 267.829 113.266 267.924Z" fill="#263238"/>
<path d="M113.111 305.951C113.055 306.011 114.708 306.981 117.004 307.029C119.3 307.101 121.001 306.218 120.948 306.155C120.916 306.049 119.22 306.757 117.013 306.685C114.806 306.643 113.149 305.847 113.111 305.951Z" fill="#263238"/>
<path d="M124.057 141.479H85.8675C76.4329 141.479 68.7852 149.127 68.7852 158.561V242.882C68.7852 247.599 72.6087 251.423 77.3256 251.423H132.6C137.317 251.423 141.141 247.599 141.141 242.882V158.561C141.14 149.127 133.492 141.479 124.057 141.479Z" fill="#455B64"/>
<path d="M150.585 259.935H73.2646C70.7908 259.935 68.7852 257.929 68.7852 255.455V253.993C68.7852 251.52 70.7908 249.514 73.2646 249.514H150.585C153.059 249.514 155.065 251.52 155.065 253.993V255.455C155.066 257.929 153.06 259.935 150.585 259.935Z" fill="#455B64"/>
<path d="M142.678 249.458C142.678 249.353 126.757 249.268 107.122 249.268C87.4799 249.268 71.5625 249.353 71.5625 249.458C71.5625 249.562 87.4799 249.647 107.122 249.647C126.757 249.647 142.678 249.562 142.678 249.458Z" fill="#263238"/>
<path d="M162.285 304.72L158.214 319.775C158.214 319.775 171.726 329.088 171.237 331.945L142.57 324.874L147.979 301.148L162.285 304.72Z" fill="black"/>
<path d="M149.648 316.311C149.056 316.33 148.523 316.877 148.518 317.486C148.512 318.093 149.048 318.656 149.639 318.648C150.231 318.64 150.89 318.003 150.83 317.397C150.769 316.793 150.105 316.168 149.532 316.322" fill="#E0E0E0"/>
<path d="M142.57 324.874L143.206 322.505L170.454 330.17C170.454 330.17 171.597 331.056 171.237 331.945L142.57 324.874Z" fill="#263238"/>
<path d="M158.714 319.739C158.675 319.881 157.961 319.775 157.164 320.068C156.36 320.339 155.86 320.876 155.744 320.787C155.621 320.727 156.031 319.918 157.001 319.581C157.969 319.234 158.776 319.614 158.714 319.739Z" fill="white"/>
<path d="M161.421 321.76C161.42 321.907 160.757 322.002 160.14 322.494C159.508 322.967 159.235 323.596 159.096 323.555C158.96 323.546 159.059 322.679 159.838 322.082C160.613 321.479 161.451 321.622 161.421 321.76Z" fill="white"/>
<path d="M162.267 325.882C162.133 325.881 162.106 325.114 162.649 324.414C163.188 323.71 163.92 323.562 163.952 323.697C164.003 323.835 163.48 324.153 163.042 324.735C162.592 325.305 162.41 325.902 162.267 325.882Z" fill="white"/>
<path d="M159.271 316.203C159.182 316.319 158.586 315.963 157.782 315.823C156.981 315.666 156.301 315.787 156.257 315.646C156.201 315.522 156.926 315.137 157.871 315.315C158.816 315.486 159.366 316.106 159.271 316.203Z" fill="white"/>
<path d="M137.056 314.263L140.082 332.911L146.61 346.951C147.08 347.962 146.619 349.173 145.606 349.586C145.038 349.818 144.402 349.756 143.889 349.413C140.631 347.236 128.919 338.966 128.673 337.987C128.284 336.433 124.072 318.331 124.072 318.331L137.056 314.263Z" fill="black"/>
<path d="M145.606 349.587L128.301 336.531L128.446 337.317C128.662 338.105 128.926 338.611 129.451 339.046C130.854 340.207 134.797 343.326 143.835 349.426C144.361 349.78 145.028 349.842 145.606 349.587Z" fill="#263238"/>
<g opacity="0.6">
<path d="M130.897 329.814C131.409 330.047 131.688 330.722 131.482 331.258C131.277 331.793 130.612 332.09 130.096 331.866C129.58 331.643 129.222 330.843 129.485 330.334C129.747 329.825 130.546 329.521 130.995 329.866" fill="white"/>
</g>
<path d="M139.976 342.281C140.087 342.312 140.314 341.26 141.291 340.526C142.247 339.762 143.293 339.829 143.295 339.71C143.301 339.662 143.046 339.562 142.613 339.583C142.182 339.601 141.582 339.782 141.049 340.194C140.517 340.608 140.182 341.151 140.045 341.571C139.906 341.994 139.928 342.275 139.976 342.281Z" fill="white"/>
<path d="M141.722 344.516C141.823 344.579 142.29 343.862 143.173 343.404C144.047 342.926 144.886 342.946 144.893 342.825C144.928 342.72 143.986 342.496 142.987 343.035C141.983 343.564 141.618 344.485 141.722 344.516Z" fill="white"/>
<path d="M136.99 339.562C137.091 339.633 137.805 338.526 139.118 337.691C140.418 336.833 141.697 336.648 141.677 336.524C141.689 336.419 140.299 336.423 138.903 337.339C137.498 338.24 136.894 339.527 136.99 339.562Z" fill="white"/>
<path d="M135.612 333.972C135.681 334.074 136.598 333.45 137.888 333.148C139.173 332.827 140.265 332.965 140.283 332.842C140.316 332.741 139.178 332.402 137.795 332.744C136.41 333.072 135.538 333.897 135.612 333.972Z" fill="white"/>
<path d="M134.588 328.521C134.664 328.617 135.553 327.802 136.936 327.598C138.314 327.362 139.401 327.863 139.444 327.747C139.467 327.702 139.226 327.508 138.764 327.342C138.306 327.175 137.617 327.069 136.873 327.187C136.13 327.308 135.505 327.622 135.117 327.924C134.726 328.226 134.554 328.486 134.588 328.521Z" fill="white"/>
<path d="M136.711 326.567C136.734 326.562 136.728 326.305 136.605 325.859C136.482 325.417 136.233 324.781 135.722 324.126C135.463 323.819 135.177 323.415 134.628 323.269C134.355 323.195 133.99 323.316 133.821 323.604C133.653 323.884 133.642 324.203 133.691 324.499C133.928 325.674 135.123 326.621 136.444 326.538C137.766 326.43 138.798 325.44 139.122 324.322C139.186 324.036 139.203 323.698 139.005 323.412C138.809 323.122 138.418 323.068 138.168 323.164C137.647 323.351 137.367 323.735 137.096 324.033C136.569 324.669 136.284 325.286 136.13 325.717C135.977 326.151 135.949 326.407 135.972 326.413C136.044 326.449 136.259 325.411 137.308 324.229C137.577 323.951 137.882 323.607 138.261 323.495C138.445 323.438 138.621 323.484 138.718 323.627C138.814 323.763 138.82 324.004 138.761 324.229C138.482 325.147 137.536 326.049 136.418 326.123C135.305 326.204 134.256 325.37 134.057 324.426C134.012 324.198 134.028 323.956 134.122 323.797C134.214 323.641 134.385 323.57 134.564 323.607C134.942 323.683 135.25 324.027 135.503 324.315C136.517 325.53 136.634 326.601 136.711 326.567Z" fill="white"/>
<path d="M143.601 225.558C149.061 228.486 170.348 240.759 176.058 244.479C180.24 247.204 182.814 254.585 181.482 259.191C175.951 278.31 160.234 317.122 160.234 317.122L142.121 314.841L154.776 260.672L129.195 248.642L104.219 223.845L143.601 225.558Z" fill="black"/>
<path d="M113.706 226.712C113.706 226.712 136.45 253.314 136.925 258.796C137.566 266.178 143.602 331.469 143.602 331.469L124.639 334.327L110.074 266.923L92.2635 246.169L89.996 234.676L92.4898 222.588L113.706 226.712Z" fill="black"/>
<path d="M119.873 234.676C119.868 234.679 119.919 234.754 120.023 234.895C120.14 235.05 120.295 235.256 120.491 235.516C120.922 236.076 121.534 236.872 122.314 237.887C123.899 239.945 126.203 242.914 129.002 246.619C130.402 248.471 131.929 250.505 133.518 252.722C134.304 253.834 135.133 254.982 135.877 256.216C136.274 256.812 136.391 257.511 136.532 258.25C136.673 258.978 136.768 259.729 136.871 260.487C137.604 266.574 138.064 273.314 138.654 280.375C138.955 283.906 139.248 287.354 139.532 290.685C139.852 294.011 140.161 297.219 140.456 300.276C141.052 306.385 141.59 311.887 142.042 316.516C142.506 321.121 142.882 324.854 143.145 327.46C143.281 328.734 143.388 329.732 143.464 330.434C143.502 330.759 143.533 331.014 143.556 331.207C143.579 331.38 143.594 331.469 143.6 331.469C143.607 331.468 143.605 331.378 143.594 331.203C143.58 331.009 143.562 330.753 143.539 330.427C143.481 329.723 143.398 328.723 143.292 327.446C143.058 324.837 142.722 321.1 142.309 316.491C141.88 311.86 141.37 306.356 140.804 300.245C140.516 297.188 140.214 293.979 139.901 290.653C139.62 287.323 139.329 283.875 139.032 280.344C138.442 273.283 137.972 266.548 137.218 260.442C137.111 259.68 137.013 258.926 136.867 258.187C136.809 257.816 136.715 257.449 136.622 257.085C136.526 256.724 136.366 256.336 136.163 256.046C135.399 254.792 134.566 253.651 133.772 252.538C132.169 250.325 130.629 248.299 129.214 246.456C126.386 242.771 124.049 239.826 122.429 237.796C121.624 236.799 120.993 236.018 120.549 235.469C120.341 235.218 120.176 235.021 120.051 234.871C119.939 234.738 119.878 234.671 119.873 234.676Z" fill="#455B64"/>
<path d="M161.358 254.724C161.286 254.647 159.642 256.081 157.685 257.924C155.728 259.768 154.2 261.324 154.272 261.4C154.344 261.477 155.988 260.044 157.945 258.2C159.901 256.357 161.43 254.8 161.358 254.724Z" fill="#455B64"/>
<path d="M127.25 157.782C127.25 157.782 133.142 158.32 135.703 161.814C138.705 165.911 152.642 184.535 152.642 184.535L162.896 167.798L173.517 173.135C173.517 173.135 163.638 198.98 159.764 201.234C155.889 203.489 150.742 203.727 148.415 201.234C146.088 198.742 133.265 181.917 133.265 181.917L127.25 157.782Z" fill="black"/>
<path d="M142.341 225.072L118.469 157.149L115.234 153.157L97.2992 150.837L94.2422 159.427L104.218 225.609L142.341 225.072Z" fill="#FAFBFB"/>
<path d="M120.664 209.85C120.677 209.849 120.681 209.701 120.676 209.419C120.667 209.096 120.655 208.687 120.64 208.184C120.627 207.648 120.582 206.993 120.523 206.234C120.472 205.473 120.4 204.609 120.294 203.655C119.915 199.837 119.101 194.595 117.93 188.864C116.754 183.131 115.491 177.986 114.533 174.276C114.056 172.421 113.652 170.923 113.365 169.891C113.226 169.409 113.113 169.016 113.024 168.705C112.942 168.435 112.893 168.294 112.88 168.297C112.868 168.3 112.892 168.447 112.95 168.723C113.021 169.039 113.111 169.437 113.222 169.927C113.481 171.018 113.837 172.514 114.272 174.34C115.163 178.066 116.385 183.215 117.558 188.939C118.728 194.662 119.582 199.884 120.027 203.684C120.15 204.633 120.241 205.494 120.311 206.251C120.39 207.007 120.457 207.658 120.492 208.193C120.536 208.693 120.572 209.099 120.6 209.421C120.629 209.703 120.65 209.851 120.664 209.85Z" fill="#263238"/>
<path d="M142.852 215.607C142.852 214.904 134.761 166.498 134.761 166.498L133.48 162.729C132.37 160.038 130.041 158.039 127.214 157.348L118.868 155.309L115.341 152.577L115.189 154.222L118.868 166.195L133.988 215.717L142.852 215.607Z" fill="black"/>
<path d="M106.72 214.296C106.72 212.89 108.036 202.478 107.151 194.197C106.497 188.087 104.745 177.627 103.44 170.193C102.447 164.538 100.702 159.043 98.2485 153.852L96.7526 150.687L93.634 155.657L80.1504 160.992L85.2361 214.296H106.72Z" fill="black"/>
<path d="M80.1501 215.874L72.7383 242.645L102.852 250.919L105.313 213.398L80.1501 215.874Z" fill="black"/>
<path d="M80.1514 215.874C80.1469 215.873 80.1306 215.914 80.1024 215.996C80.0713 216.095 80.0334 216.216 79.9859 216.367C79.8828 216.716 79.7396 217.198 79.5578 217.813C79.1883 219.105 78.6592 220.954 77.9922 223.287C76.6655 228.016 74.7912 234.696 72.5741 242.599L72.5273 242.765L72.6936 242.811C78.6459 244.451 85.3758 246.307 92.4782 248.265C96.0384 249.242 99.505 250.192 102.802 251.097L103.022 251.157L103.036 250.931C103.714 240.192 104.306 230.819 104.73 224.104C104.925 220.774 105.082 218.104 105.191 216.241C105.237 215.34 105.273 214.635 105.298 214.13C105.306 213.905 105.313 213.725 105.317 213.584C105.32 213.461 105.319 213.398 105.313 213.398C105.307 213.397 105.297 213.46 105.284 213.582C105.27 213.723 105.253 213.902 105.232 214.126C105.191 214.629 105.135 215.333 105.063 216.232C104.928 218.093 104.734 220.761 104.492 224.087C104.035 230.801 103.398 240.171 102.667 250.906L102.9 250.74C99.6037 249.832 96.1378 248.879 92.5791 247.899C85.473 245.954 78.7394 244.11 72.7848 242.48L72.9043 242.691C75.0672 234.773 76.8955 228.081 78.1895 223.342C78.8173 220.999 79.3144 219.14 79.6624 217.843C79.8227 217.221 79.9481 216.735 80.0394 216.382C80.0757 216.228 80.1054 216.106 80.1291 216.004C80.1484 215.919 80.1558 215.875 80.1514 215.874Z" fill="#455B64"/>
<path d="M110.59 203.28L86.9511 201.473L86.2603 175.758L80.8949 160.697C80.8949 160.697 72.5689 163.728 72.3723 173.805C72.1749 183.88 71.9033 205.298 73.6774 211.624C73.7405 211.85 73.8088 212.07 73.8822 212.283C75.4701 216.943 80.279 219.709 85.1584 219.054L112.673 215.358L110.59 203.28Z" fill="black"/>
<path d="M85.9378 177.12C85.9244 177.121 85.9192 177.289 85.92 177.61C85.9259 177.969 85.9334 178.434 85.943 179.011C85.9808 180.274 86.0328 182.022 86.0973 184.162C86.2658 188.551 86.4958 194.537 86.7495 201.151C86.754 201.264 86.7592 201.377 86.7636 201.481L86.7703 201.649L86.9373 201.662C93.4646 202.169 99.3561 202.626 103.671 202.962C105.775 203.107 107.493 203.226 108.734 203.312C109.3 203.343 109.757 203.368 110.11 203.388C110.425 203.402 110.591 203.403 110.591 203.389C110.592 203.376 110.429 203.351 110.116 203.313C109.764 203.275 109.309 203.227 108.745 203.167C107.507 203.052 105.793 202.892 103.692 202.697C99.3799 202.333 93.4914 201.835 86.9677 201.284L87.1421 201.465C87.1376 201.361 87.1332 201.248 87.1287 201.136C86.8319 194.524 86.5626 188.539 86.3659 184.151C86.2517 182.013 86.1589 180.266 86.0914 179.005C86.0528 178.429 86.0216 177.965 85.9979 177.606C85.9704 177.287 85.9504 177.119 85.9378 177.12Z" fill="#455B64"/>
<path d="M80.9019 162.318C80.8054 162.4 82.7473 164.181 84.0702 167.067C85.4281 169.939 85.5409 172.571 85.6663 172.55C85.7093 172.548 85.7405 171.895 85.5958 170.848C85.4533 169.804 85.0942 168.374 84.4138 166.907C83.7289 165.443 82.8652 164.248 82.1581 163.466C81.4517 162.683 80.9308 162.286 80.9019 162.318Z" fill="#455B64"/>
<path d="M93.3118 156.51C93.2992 156.512 93.3036 156.654 93.3229 156.926C93.3444 157.197 93.3712 157.598 93.4305 158.114C93.5381 159.145 93.7355 160.638 94.0657 162.479C94.7171 166.157 95.9874 171.23 98.2001 176.632L98.258 176.774L98.4086 176.746C99.0044 176.639 99.6388 176.523 100.279 176.408C100.586 176.352 100.891 176.296 101.176 176.245L100.997 175.937C100.04 177.081 99.0267 178.325 98.882 179.851C98.8041 180.603 99.0022 181.332 99.2567 181.973C99.5179 182.621 99.8169 183.214 100.088 183.807C101.191 186.155 102.185 188.269 103.026 190.057C103.857 191.794 104.535 193.211 105.028 194.24C105.257 194.701 105.442 195.074 105.588 195.367C105.72 195.622 105.794 195.754 105.806 195.748C105.818 195.743 105.766 195.601 105.656 195.335C105.527 195.034 105.363 194.651 105.16 194.179C104.694 193.137 104.052 191.703 103.266 189.946C102.447 188.148 101.478 186.021 100.402 183.661C99.8993 182.477 99.1202 181.25 99.2493 179.885C99.3776 178.515 100.328 177.317 101.286 176.181L101.626 175.778L101.108 175.872C100.825 175.923 100.519 175.979 100.212 176.035C99.5713 176.151 98.9369 176.266 98.3411 176.374L98.5496 176.489C96.3406 171.118 95.034 166.084 94.3179 162.431C93.9558 160.604 93.7199 159.121 93.5693 158.097C93.498 157.616 93.4402 157.226 93.3949 156.918C93.3526 156.649 93.3244 156.509 93.3118 156.51Z" fill="#455B64"/>
<path d="M128.537 192.263C128.551 192.263 128.561 192.128 128.568 191.872C128.574 191.616 128.585 191.237 128.58 190.751C128.563 189.777 128.511 188.367 128.344 186.633C128.027 183.161 127.162 178.417 125.934 173.255C125.321 170.673 124.755 168.209 124.133 165.989C123.515 163.77 122.823 161.803 122.092 160.216C121.37 158.624 120.628 157.414 120.064 156.619C119.791 156.214 119.549 155.923 119.386 155.724C119.224 155.526 119.133 155.425 119.123 155.434C119.093 155.457 119.423 155.882 119.941 156.701C120.464 157.516 121.162 158.735 121.847 160.325C122.54 161.91 123.199 163.869 123.796 166.082C124.395 168.294 124.952 170.761 125.564 173.341C126.79 178.499 127.694 183.212 128.077 186.661C128.278 188.384 128.37 189.786 128.432 190.755C128.456 191.205 128.476 191.574 128.491 191.872C128.509 192.128 128.525 192.263 128.537 192.263Z" fill="#455B64"/>
<path d="M80.8003 206.858C80.9072 206.92 81.6388 204.996 83.5398 203.464C85.4156 201.9 87.4442 201.559 87.4049 201.443C87.3989 201.401 86.8892 201.421 86.1034 201.655C85.3198 201.887 84.2736 202.375 83.2986 203.171C82.3274 203.97 81.6432 204.901 81.2633 205.623C80.8797 206.348 80.7603 206.844 80.8003 206.858Z" fill="#455B64"/>
<path d="M111.896 169.796L113.906 217.084L119.874 227.922L123.851 215.414L114.226 169.384L111.896 169.796Z" fill="#5274B8"/>
<path d="M162.363 185.332C162.272 185.602 145.745 221.668 145.745 221.668H115.188L128.631 187.586C128.631 187.586 139.093 188.941 148.391 188.172C155.813 187.558 162.363 185.332 162.363 185.332Z" fill="#E0E0E0"/>
<path d="M162.363 185.332C162.355 185.334 162.317 185.357 162.217 185.393C162.105 185.432 161.96 185.483 161.776 185.547C161.385 185.676 160.802 185.862 160.036 186.082C158.502 186.52 156.233 187.117 153.293 187.635C147.417 188.757 138.803 188.89 128.611 187.75L128.786 187.647C124.919 197.473 120.325 209.148 115.409 221.638L115.369 221.738L115.19 221.474C126.192 221.481 136.601 221.488 145.746 221.494L145.588 221.595C155.457 200.26 161.726 186.709 162.363 185.332C161.738 186.713 155.587 200.318 145.903 221.741L145.857 221.842H145.745C136.599 221.848 126.19 221.855 115.188 221.862H114.904L115.009 221.597L115.048 221.497C119.983 209.015 124.596 197.346 128.478 187.526L128.525 187.408L128.653 187.423C138.809 188.593 147.402 188.51 153.261 187.447C156.197 186.957 158.469 186.392 160.009 185.986C160.764 185.776 161.349 185.613 161.762 185.498C161.949 185.444 162.095 185.402 162.21 185.369C162.308 185.34 162.371 185.329 162.363 185.332Z" fill="#263238"/>
<path d="M110.561 203.515L112.643 203.639C112.643 203.639 119.522 197.237 120.514 197.237C121.507 197.237 124.49 198.087 124.49 198.087L123.652 200.214C123.652 200.214 128.722 199.943 130.255 200.214C131.788 200.485 133.592 201.296 132.962 203.19C132.962 203.19 134.224 205.265 131.609 206.257C131.609 206.257 132.231 207.362 130.694 208.363C130.474 208.506 130.211 208.647 129.896 208.782C127.371 209.864 127.551 210.079 127.551 210.079C127.551 210.079 127.46 211.217 126.559 212.119C125.657 213.021 120.57 214.958 117.792 215.072C115.014 215.186 112.489 214.374 112.489 214.374L110.561 203.515Z" fill="#FDD7C6"/>
<path d="M117.818 200.197C117.821 200.302 119.16 200.384 120.808 200.381C122.457 200.378 123.795 200.291 123.797 200.186C123.8 200.081 122.462 199.999 120.807 200.002C119.154 200.005 117.815 200.092 117.818 200.197Z" fill="#F7996E"/>
<path d="M119.139 204.146C119.145 204.2 119.912 204.156 121.148 204.069C122.511 203.977 124.157 203.867 125.977 203.744C127.799 203.65 129.447 203.565 130.811 203.495C132.049 203.435 132.815 203.387 132.815 203.334C132.815 203.283 132.047 203.236 130.805 203.227C129.563 203.218 127.847 203.254 125.955 203.366C124.063 203.478 122.355 203.646 121.123 203.802C119.89 203.958 119.133 204.096 119.139 204.146Z" fill="#F7996E"/>
<path d="M122.031 207.771C122.046 207.875 124.265 207.646 126.988 207.261C129.712 206.876 131.907 206.48 131.892 206.376C131.877 206.272 129.658 206.501 126.934 206.886C124.212 207.272 122.016 207.668 122.031 207.771Z" fill="#F7996E"/>
<path d="M122.57 210.787C122.574 210.888 123.765 210.915 125.207 210.666C126.649 210.42 127.763 209.998 127.732 209.901C127.702 209.797 126.559 210.051 125.142 210.292C123.726 210.537 122.564 210.679 122.57 210.787Z" fill="#F7996E"/>
<g opacity="0.3">
<path d="M147.775 227.926L155.097 232.127L74.7402 235.412L76.8156 227.917L147.775 227.926Z" fill="black"/>
</g>
<path d="M111.896 169.796L110.242 167.701L111.473 164.159H113.413L114.978 167.381L114.226 169.384L111.896 169.796Z" fill="#5274B8"/>
<path d="M118.427 163.622C118.442 163.625 118.422 163.763 118.361 164.018C118.295 164.272 118.18 164.643 117.976 165.095C117.572 165.99 116.777 167.252 115.327 168.262L115.163 168.376L115.095 168.184C114.785 167.315 114.446 166.355 113.952 165.397C113.461 164.447 112.786 163.487 111.803 162.838L112.092 162.73C111.917 163.366 111.721 164.029 111.507 164.7C110.948 166.454 110.316 168.099 109.676 169.567L109.586 169.776L109.405 169.641C107.272 168.058 105.595 166.53 104.462 165.403C103.895 164.839 103.463 164.377 103.174 164.053C102.886 163.728 102.741 163.544 102.755 163.531C102.77 163.517 102.945 163.673 103.258 163.971C103.619 164.31 104.07 164.734 104.614 165.244C105.785 166.321 107.484 167.802 109.618 169.351L109.346 169.425C109.966 167.96 110.584 166.324 111.139 164.582C111.351 163.917 111.548 163.258 111.724 162.628L111.795 162.374L112.014 162.52C113.072 163.225 113.774 164.252 114.27 165.236C114.767 166.23 115.094 167.208 115.387 168.085L115.155 168.008C116.567 167.068 117.378 165.874 117.82 165.02C118.261 164.153 118.387 163.609 118.427 163.622Z" fill="#263238"/>
<path d="M119.94 108.122C116.942 107.558 114.209 110.49 111.168 110.238C109.322 110.086 107.797 108.794 106.089 108.076C103.536 107 100.112 107.162 97.7966 108.682C95.4801 110.202 94.0465 111.71 94.0161 114.48C91.6387 113.447 88.2241 116.675 87.2565 119.531C86.2889 122.386 86.9204 125.156 87.9651 127.984C89.7637 132.853 92.5299 137.363 96.0551 141.174C96.3675 141.512 96.8454 141.87 97.2371 141.629C97.5087 141.463 97.5621 141.097 97.5777 140.78C97.7083 138.072 97.0694 135.396 96.5404 132.737C96.0113 130.079 95.5899 127.324 96.1523 124.673C96.7148 122.021 98.4555 119.466 101.041 118.649C102.95 118.046 105.048 118.455 106.892 119.236C108.736 120.017 110.406 121.15 112.182 122.075C113.957 122.999 115.917 123.727 117.914 123.592C119.912 123.457 121.94 122.283 122.587 120.388C123.233 118.492 121.998 116.04 120.005 115.844C121.774 115.481 123.164 113.762 123.149 111.956C123.133 110.151 121.715 108.455 119.94 108.122Z" fill="#9E724D"/>
<path d="M121.67 140.117C121.176 136.441 119.543 128.958 117.986 122.201C116.312 114.934 109.34 110.172 101.962 111.256L101.229 111.363C93.3936 112.987 91.3605 120.718 93.1999 128.506L97.2238 151.684L111.84 162.678L115.772 155.923L115.488 149.949C115.488 149.949 122.694 147.726 121.67 140.117Z" fill="#FDD7C6"/>
<path d="M115.489 149.949C115.489 149.949 110.535 151.115 104.961 148.661C104.961 148.661 108.1 153.644 115.579 151.845L115.489 149.949Z" fill="#F6BAA6"/>
<path d="M116.713 129.673C116.818 130.243 116.421 130.801 115.828 130.921C115.236 131.04 114.67 130.677 114.566 130.107C114.461 129.537 114.857 128.978 115.449 128.858C116.043 128.739 116.609 129.104 116.713 129.673Z" fill="#263238"/>
<path d="M116.899 126.154C116.786 126.315 115.875 125.828 114.708 126.003C113.54 126.161 112.771 126.887 112.623 126.763C112.552 126.709 112.651 126.433 112.984 126.107C113.311 125.783 113.899 125.427 114.627 125.323C115.355 125.22 116.005 125.398 116.397 125.621C116.797 125.843 116.957 126.081 116.899 126.154Z" fill="#9E724D"/>
<path d="M105.975 131.55C106.079 132.12 105.682 132.679 105.089 132.798C104.497 132.918 103.932 132.555 103.827 131.984C103.723 131.415 104.119 130.856 104.711 130.736C105.305 130.616 105.87 130.98 105.975 131.55Z" fill="#263238"/>
<path d="M105.457 128.059C105.343 128.22 104.431 127.733 103.264 127.907C102.096 128.066 101.328 128.792 101.18 128.667C101.109 128.613 101.207 128.338 101.541 128.011C101.869 127.686 102.456 127.332 103.184 127.228C103.912 127.125 104.563 127.303 104.955 127.525C105.354 127.748 105.514 127.986 105.457 128.059Z" fill="#9E724D"/>
<path d="M110.966 136.093C110.951 136.028 111.658 135.796 112.812 135.472C113.106 135.398 113.379 135.297 113.399 135.087C113.438 134.861 113.266 134.558 113.071 134.233C112.684 133.553 112.28 132.839 111.855 132.093C110.156 129.041 108.879 126.513 109.002 126.447C109.126 126.379 110.604 128.798 112.303 131.85C112.715 132.604 113.108 133.322 113.483 134.009C113.646 134.332 113.897 134.687 113.81 135.156C113.762 135.391 113.567 135.584 113.384 135.665C113.201 135.751 113.034 135.779 112.888 135.809C111.714 136.046 110.98 136.159 110.966 136.093Z" fill="#263238"/>
<path d="M104.694 122.061C104.625 122.395 103.437 122.416 102.092 122.783C100.74 123.122 99.6941 123.686 99.47 123.427C99.3691 123.303 99.5175 122.976 99.9189 122.603C100.316 122.231 100.98 121.836 101.789 121.623C102.598 121.412 103.37 121.432 103.898 121.562C104.432 121.69 104.721 121.903 104.694 122.061Z" fill="#F6BAA6"/>
<path d="M115.974 122.839C115.808 123.134 114.963 122.977 113.994 123.107C113.02 123.203 112.234 123.548 112.005 123.298C111.903 123.176 111.992 122.892 112.314 122.587C112.629 122.285 113.189 121.995 113.856 121.917C114.524 121.84 115.135 121.996 115.512 122.218C115.893 122.44 116.045 122.696 115.974 122.839Z" fill="#F6BAA6"/>
<path d="M94.278 133.74C94.14 133.703 88.2367 133.094 89.1656 138.263C90.0954 143.432 95.4897 141.696 95.4897 141.696L94.278 133.74Z" fill="#FDD7C6"/>
<path d="M93.1451 139.609C93.1191 139.596 93.0664 139.688 92.9269 139.785C92.7912 139.88 92.5441 139.972 92.2562 139.921C91.6737 139.818 91.0586 139.034 90.8657 138.107C90.7677 137.64 90.7863 137.174 90.8857 136.773C90.9755 136.366 91.1729 136.058 91.4385 135.96C91.7004 135.847 91.9252 135.977 92.0143 136.111C92.1093 136.243 92.0952 136.352 92.1241 136.356C92.1404 136.366 92.2191 136.249 92.1397 136.044C92.0996 135.945 92.0172 135.834 91.8778 135.756C91.7353 135.678 91.5439 135.659 91.3561 135.714C90.9621 135.814 90.6698 136.245 90.5592 136.685C90.4279 137.131 90.396 137.656 90.5065 138.182C90.7269 139.218 91.4355 140.096 92.2213 140.178C92.6019 140.208 92.8854 140.043 93.0204 139.893C93.1584 139.735 93.1644 139.615 93.1451 139.609Z" fill="#F7996E"/>
<path d="M117.035 115.099C116.139 113.705 114.758 112.689 113.305 111.894C110.173 110.18 106.515 109.363 102.975 109.827C99.4353 110.293 96.0421 112.085 93.8472 114.901C92.0909 117.155 91.1434 119.981 90.9297 122.83C90.716 125.679 90.9765 129.431 91.8847 132.14C92.2831 133.33 93.0362 133.669 94.0253 134.441C94.6434 134.923 95.6177 135.156 96.1623 134.593C96.4836 134.262 96.5452 133.765 96.5904 133.306C97.0007 129.151 97.3532 124.697 95.3179 121.052C96.12 119.612 97.0994 118.237 98.4113 117.238C99.7232 116.24 101.405 115.648 103.035 115.899C105.455 116.272 107.212 118.314 109.291 119.609C112.261 121.46 116.145 121.754 119.359 120.371L117.035 115.099Z" fill="#9E724D"/>
<path d="M87.3418 126.206C87.341 126.148 87.9005 126.134 88.7694 125.946C89.6375 125.762 90.8091 125.352 91.9414 124.61C93.0708 123.862 93.9107 122.948 94.4234 122.224C94.9398 121.5 95.1736 120.992 95.2263 121.015C95.2582 121.027 95.0994 121.575 94.6193 122.355C94.1437 123.134 93.2978 124.113 92.1247 124.889C90.9494 125.659 89.7154 126.049 88.8124 126.178C87.9064 126.311 87.3403 126.239 87.3418 126.206Z" fill="#E0E0E0"/>
<path d="M87.9433 127.68C87.9426 127.622 88.5021 127.608 89.3709 127.42C90.2391 127.236 91.4107 126.826 92.543 126.084C93.6723 125.337 94.5123 124.423 95.025 123.698C95.5414 122.974 95.7751 122.465 95.8278 122.489C95.8597 122.5 95.7009 123.049 95.2209 123.829C94.7452 124.607 93.8994 125.587 92.7263 126.362C91.5509 127.133 90.317 127.523 89.414 127.652C88.508 127.785 87.9411 127.714 87.9433 127.68Z" fill="#E0E0E0"/>
<path d="M108.144 138.188C108.144 138.188 109.43 138.422 110.565 138.766L112.194 139.134C112.01 139.814 111.702 140.919 111.109 141.316C110.514 141.713 109.421 141.88 108.81 141.468C108.321 141.137 108.006 140.636 107.837 139.898C107.692 139.262 108.144 138.188 108.144 138.188Z" fill="#F6BAA6"/>
<path d="M111.797 140.353C111.823 140.358 111.811 140.528 111.691 140.796C111.63 140.929 111.549 141.09 111.423 141.261C111.359 141.346 111.286 141.436 111.182 141.52C111.067 141.61 110.941 141.652 110.814 141.694C110.552 141.776 110.261 141.807 109.954 141.82C109.639 141.832 109.289 141.79 108.948 141.651C108.611 141.512 108.283 141.277 108.05 140.94C107.811 140.613 107.698 140.164 107.719 139.755C107.728 139.341 107.812 138.956 107.896 138.596C107.92 138.503 107.931 138.429 107.971 138.311C107.991 138.202 108.156 138.018 108.329 138.029C108.484 138.031 108.554 138.07 108.639 138.088L108.885 138.156C109.495 138.33 110.069 138.494 110.607 138.648C111.584 138.938 112.181 139.144 112.168 139.196C112.154 139.248 111.533 139.135 110.537 138.912C109.994 138.783 109.413 138.646 108.795 138.5L108.547 138.439C108.464 138.419 108.368 138.392 108.344 138.398C108.337 138.409 108.324 138.367 108.342 138.398C108.342 138.398 108.332 138.411 108.323 138.438C108.305 138.49 108.285 138.596 108.265 138.681C108.187 139.036 108.113 139.398 108.105 139.763C108.052 140.489 108.518 141.085 109.088 141.323C109.646 141.568 110.281 141.518 110.74 141.432C110.986 141.385 111.116 141.281 111.254 141.125C111.384 140.983 111.481 140.841 111.558 140.725C111.712 140.491 111.77 140.347 111.797 140.353Z" fill="#263238"/>
<path d="M137.272 188.224C137.166 188.241 136.458 184.33 135.689 179.491C134.92 174.649 134.382 170.713 134.488 170.696C134.593 170.679 135.302 174.589 136.07 179.43C136.839 184.269 137.377 188.207 137.272 188.224Z" fill="#455B64"/>
<path d="M112.06 215.414C112.063 215.427 111.943 215.458 111.715 215.503C111.442 215.553 111.111 215.612 110.713 215.684C109.779 215.835 108.532 216.036 107.018 216.28C103.896 216.766 99.5792 217.411 94.8081 218.1C92.4218 218.438 90.1498 218.791 88.0633 218.995C85.979 219.205 84.081 219.255 82.4961 219.136C80.9097 219.027 79.6438 218.762 78.792 218.518C78.3624 218.406 78.0396 218.282 77.8207 218.202C77.6019 218.121 77.4898 218.072 77.4943 218.059C77.5061 218.023 77.9706 218.179 78.8291 218.371C79.6854 218.57 80.9431 218.789 82.5132 218.863C84.0817 218.947 85.9575 218.868 88.027 218.64C90.0971 218.418 92.3654 218.055 94.7532 217.716C99.5242 217.028 103.847 216.425 106.98 216.008C108.501 215.814 109.755 215.654 110.692 215.534C111.094 215.49 111.428 215.455 111.704 215.425C111.936 215.406 112.059 215.401 112.06 215.414Z" fill="#455B64"/>
<path d="M243.669 219.006H233.217C233.204 218.922 233.193 218.838 233.173 218.754L226.035 188.72C225.671 187.19 224.305 186.111 222.732 186.111H183.764C181.527 186.111 179.901 188.237 180.488 190.396L188.651 220.43C188.967 221.59 189.557 222.779 191.009 222.934H191.927H229.871H246.973V222.31C246.973 220.485 245.493 219.006 243.669 219.006Z" fill="#E0E0E0"/>
<path d="M243.669 219.006C243.669 219.006 243.794 219.001 244.04 219.016C244.284 219.044 244.656 219.102 245.103 219.309C245.547 219.513 246.066 219.882 246.472 220.496C246.676 220.8 246.841 221.167 246.934 221.583C247.037 222 247.017 222.459 247.021 222.933L247.022 222.982H246.973C237.658 222.996 217.051 223.026 191.008 223.065H191.002L190.994 223.065C190.346 223.005 189.708 222.67 189.304 222.145C188.892 221.627 188.666 221.001 188.501 220.384C188.167 219.158 187.829 217.919 187.489 216.667C186.808 214.164 186.112 211.61 185.406 209.013C183.994 203.82 182.535 198.456 181.045 192.978C180.895 192.426 180.746 191.875 180.596 191.325C180.461 190.779 180.253 190.233 180.232 189.63C180.176 188.442 180.786 187.273 181.746 186.606C182.224 186.268 182.787 186.054 183.367 185.994C183.955 185.947 184.492 185.981 185.055 185.971C186.167 185.971 187.274 185.971 188.375 185.971C192.777 185.973 197.08 185.974 201.26 185.976C205.441 185.978 209.499 185.98 213.414 185.983C215.37 185.984 217.29 185.986 219.172 185.987C220.113 185.988 221.044 185.988 221.965 185.989C222.421 186 222.885 185.96 223.357 186.047C223.821 186.133 224.263 186.311 224.654 186.565C225.434 187.075 225.988 187.899 226.17 188.785C226.373 189.641 226.572 190.485 226.77 191.319C227.164 192.987 227.548 194.611 227.921 196.189C228.666 199.344 229.368 202.315 230.02 205.078C231.318 210.607 232.443 215.292 233.281 218.996L233.218 218.943C236.617 218.956 239.228 218.966 240.997 218.973C241.873 218.981 242.539 218.986 242.994 218.99C243.442 218.995 243.669 219.006 243.669 219.006C243.669 219.006 243.442 219.017 242.994 219.023C242.539 219.027 241.873 219.032 240.997 219.039C239.228 219.046 236.618 219.056 233.218 219.07H233.169L233.156 219.016C232.275 215.329 231.155 210.64 229.836 205.122C229.176 202.361 228.466 199.392 227.711 196.238C227.334 194.662 226.947 193.038 226.548 191.372C226.35 190.538 226.148 189.694 225.944 188.839C225.769 188 225.252 187.242 224.524 186.765C224.158 186.529 223.746 186.364 223.314 186.285C222.887 186.204 222.427 186.242 221.965 186.233C221.044 186.234 220.113 186.235 219.172 186.236C217.29 186.237 215.37 186.239 213.414 186.24C209.499 186.242 205.441 186.244 201.26 186.247C197.08 186.248 192.776 186.25 188.375 186.251C187.274 186.251 186.167 186.252 185.055 186.252C184.506 186.262 183.925 186.23 183.398 186.274C182.864 186.33 182.346 186.527 181.907 186.838C181.022 187.453 180.461 188.531 180.513 189.624C180.527 190.162 180.728 190.699 180.867 191.255C181.017 191.805 181.166 192.356 181.317 192.908C182.805 198.387 184.263 203.751 185.673 208.944C186.378 211.541 187.071 214.095 187.751 216.599C188.091 217.851 188.427 219.091 188.76 220.316C188.921 220.92 189.138 221.51 189.512 221.982C189.882 222.456 190.433 222.746 191.024 222.805L191.01 222.804C217.052 222.843 237.66 222.874 246.975 222.888L246.927 222.936C246.926 222.456 246.949 222.009 246.853 221.603C246.766 221.197 246.608 220.837 246.412 220.537C246.022 219.933 245.518 219.563 245.084 219.355C244.195 218.944 243.659 219.041 243.669 219.006Z" fill="#263238"/>
<path d="M222.516 189.072H183.389L191.162 216.855H229.223L222.516 189.072Z" fill="white"/>
<path d="M229.247 216.874H191.148L191.144 216.859L183.363 189.053H222.53L222.533 189.068L229.247 216.874ZM191.177 216.836H229.2L222.502 189.091H183.413L191.177 216.836Z" fill="#263238"/>
<path d="M233.603 219.083C233.603 219.16 224.382 219.223 213.01 219.223C201.633 219.223 192.414 219.16 192.414 219.083C192.414 219.005 201.633 218.942 213.01 218.942C224.382 218.942 233.603 219.005 233.603 219.083Z" fill="#263238"/>
<path d="M225.406 214.248C225.406 214.253 225.362 214.257 225.276 214.262C225.174 214.265 225.049 214.27 224.897 214.276C224.539 214.282 224.051 214.291 223.435 214.302C222.141 214.312 220.311 214.328 218.06 214.346C213.5 214.357 207.241 214.372 200.327 214.387C198.173 214.386 196.082 214.384 194.121 214.383H194.018L193.991 214.284C192.548 209.06 191.294 204.519 190.394 201.259C189.962 199.655 189.615 198.367 189.369 197.453C189.259 197.024 189.172 196.685 189.106 196.431C189.049 196.198 189.023 196.075 189.031 196.072C189.039 196.07 189.08 196.188 189.152 196.417C189.229 196.668 189.33 197.004 189.459 197.428C189.723 198.335 190.096 199.617 190.56 201.211C191.484 204.466 192.771 208.996 194.251 214.21L194.121 214.111C196.081 214.11 198.172 214.108 200.327 214.107C207.241 214.123 213.499 214.137 218.059 214.147C220.31 214.166 222.14 214.182 223.434 214.192C224.051 214.203 224.538 214.212 224.896 214.218C225.049 214.224 225.173 214.228 225.276 214.232C225.362 214.238 225.406 214.242 225.406 214.248Z" fill="#263238"/>
<path d="M199.254 204.706H194.551L196.825 212.138H201.527L199.254 204.706Z" fill="#5274B8"/>
<path d="M221.264 204.706H216.561L218.834 212.138H223.537L221.264 204.706Z" fill="#FCB86A"/>
<path d="M205.768 202.105H201.064L203.994 212.138H208.697L205.768 202.105Z" fill="#FCB86A"/>
<path d="M211.84 197.461H207.137L211.68 212.138H216.383L211.84 197.461Z" fill="#5274B8"/>
<path d="M258.423 230.739H250.43V333.449H258.423V230.739Z" fill="#E0E0E0"/>
<path d="M258.424 333.449C258.424 333.449 258.415 333.263 258.41 332.914C258.407 332.554 258.403 332.039 258.397 331.368C258.391 330.002 258.381 328.006 258.37 325.436C258.357 320.281 258.337 312.827 258.312 303.579C258.291 285.095 258.263 259.446 258.231 230.739L258.424 230.932C255.884 230.932 253.172 230.932 250.435 230.933H250.43L250.623 230.74C250.567 277.415 250.521 317.316 250.501 333.45L250.43 333.378C253.026 333.396 255.013 333.41 256.366 333.419C257.034 333.427 257.543 333.432 257.897 333.436C258.242 333.44 258.424 333.449 258.424 333.449C258.424 333.449 258.26 333.458 257.922 333.463C257.571 333.467 257.068 333.473 256.407 333.48C255.045 333.49 253.043 333.503 250.429 333.521L250.358 333.522V333.45C250.339 317.316 250.291 277.415 250.236 230.74V230.547H250.43H250.435C253.172 230.547 255.884 230.547 258.424 230.548H258.616V230.741C258.585 259.503 258.556 285.201 258.535 303.721C258.51 312.95 258.491 320.389 258.477 325.533C258.465 328.085 258.456 330.065 258.45 331.421C258.444 332.082 258.44 332.588 258.437 332.942C258.432 333.281 258.424 333.449 258.424 333.449Z" fill="#263238"/>
<path d="M44.2162 227.176H36.2227V333.439H44.2162V227.176Z" fill="#E0E0E0"/>
<path d="M44.2158 333.439C44.2158 333.439 44.2069 333.247 44.2024 332.885C44.1995 332.514 44.195 331.981 44.1891 331.285C44.1831 329.872 44.1735 327.807 44.1624 325.146C44.149 319.812 44.129 312.098 44.1045 302.529C44.0837 283.402 44.0555 256.866 44.0236 227.176L44.2165 227.368C41.6781 227.368 38.9646 227.368 36.2282 227.369H36.223L36.4159 227.176C36.3587 275.654 36.3113 317.052 36.292 333.439L36.2222 333.369C38.8318 333.387 40.8197 333.4 42.1686 333.409C42.8349 333.417 43.341 333.422 43.6934 333.425C44.0362 333.43 44.2158 333.439 44.2158 333.439C44.2158 333.439 44.0533 333.448 43.7179 333.452C43.3692 333.456 42.8683 333.461 42.2087 333.469C40.8508 333.477 38.8489 333.491 36.2222 333.509L36.1525 333.509V333.439C36.1332 317.053 36.0857 275.654 36.0293 227.176V226.983H36.223H36.2282C38.9646 226.983 41.6781 226.984 44.2165 226.984H44.4094V227.177C44.3775 256.923 44.3486 283.509 44.3278 302.671C44.3033 312.222 44.284 319.92 44.2699 325.244C44.2581 327.886 44.2492 329.936 44.2432 331.338C44.2373 332.023 44.2329 332.547 44.2299 332.913C44.2247 333.265 44.2158 333.439 44.2158 333.439Z" fill="#263238"/>
<path d="M105.103 227.176H97.1094V333.487H105.103V227.176Z" fill="#E0E0E0"/>
<path d="M105.103 333.487C105.103 333.487 105.094 333.295 105.09 332.934C105.087 332.562 105.082 332.028 105.077 331.332C105.07 329.919 105.061 327.853 105.049 325.191C105.036 319.854 105.016 312.137 104.991 302.563C104.97 283.427 104.942 256.879 104.91 227.176L105.103 227.368C102.565 227.368 99.8514 227.368 97.1149 227.369H97.1097L97.3026 227.176C97.2462 275.679 97.1987 317.097 97.1794 333.487L97.1097 333.417C99.7193 333.435 101.707 333.449 103.056 333.457C103.722 333.465 104.228 333.47 104.581 333.474C104.924 333.478 105.103 333.487 105.103 333.487C105.103 333.487 104.941 333.496 104.605 333.5C104.257 333.504 103.756 333.51 103.096 333.517C101.738 333.526 99.7364 333.539 97.1089 333.557L97.0392 333.558V333.487C97.0199 317.097 96.9724 275.679 96.916 227.176V226.983H97.1097H97.1149C99.8514 226.983 102.565 226.984 105.103 226.984H105.296V227.177C105.264 256.936 105.235 283.535 105.215 302.705C105.191 312.261 105.171 319.962 105.157 325.288C105.146 327.931 105.137 329.982 105.131 331.385C105.125 332.07 105.12 332.594 105.117 332.961C105.113 333.313 105.103 333.487 105.103 333.487Z" fill="#263238"/>
<path d="M275.817 222.084H22.8691V235.041H275.817V222.084Z" fill="#6F453A"/>
<g opacity="0.3">
<path d="M91.7685 222.11H23.2715V235.016H91.7685V222.11Z" fill="black"/>
</g>
<path d="M70.163 211.137H89.1797V203.644H70.163V211.137Z" fill="#EBEBEB"/>
<path d="M30.2471 203.927H89.9707V202.357H30.2471V203.927Z" fill="#FCB86A"/>
<path d="M30.2485 212.372H89.6953V210.803H30.2485V212.372Z" fill="#FCB86A"/>
<path d="M70.1632 202.731L70.0734 212.072H30.248V202.731H70.1632Z" fill="#FCB86A"/>
<path d="M60.4843 207.392C60.4843 208.676 61.4481 209.717 62.6368 209.717C63.8255 209.717 64.7894 208.676 64.7894 207.392C64.7894 206.109 63.8255 205.068 62.6368 205.068C61.4481 205.068 60.4843 206.109 60.4843 207.392Z" fill="#263238"/>
<path d="M60.1504 207.392C60.1504 205.926 61.2664 204.734 62.6376 204.734C64.008 204.734 65.124 205.926 65.124 207.392C65.124 208.859 64.008 210.051 62.6376 210.051C61.2664 210.051 60.1504 208.859 60.1504 207.392ZM60.8182 207.392C60.8182 208.49 61.6344 209.383 62.6368 209.383C63.6393 209.383 64.4547 208.49 64.4547 207.392C64.4547 206.295 63.6393 205.402 62.6368 205.402C61.6344 205.402 60.8182 206.295 60.8182 207.392Z" fill="#E0E0E0"/>
<path d="M71.5918 209.3C71.5918 209.396 75.4992 209.473 80.3177 209.473C85.1385 209.473 89.0451 209.395 89.0451 209.3C89.0451 209.204 85.1385 209.126 80.3177 209.126C75.4992 209.126 71.5918 209.204 71.5918 209.3Z" fill="#263238"/>
<path d="M71.5918 207.994C71.5918 208.091 75.4992 208.169 80.3177 208.169C85.1385 208.169 89.0451 208.091 89.0451 207.994C89.0451 207.899 85.1385 207.821 80.3177 207.821C75.4992 207.821 71.5918 207.899 71.5918 207.994Z" fill="#263238"/>
<path d="M71.5918 206.69C71.5918 206.785 75.4992 206.863 80.3177 206.863C85.1385 206.863 89.0451 206.785 89.0451 206.69C89.0451 206.593 85.1385 206.516 80.3177 206.516C75.4992 206.515 71.5918 206.593 71.5918 206.69Z" fill="#263238"/>
<path d="M71.5918 205.385C71.5918 205.48 75.4992 205.558 80.3177 205.558C85.1385 205.558 89.0451 205.48 89.0451 205.385C89.0451 205.289 85.1385 205.211 80.3177 205.211C75.4992 205.21 71.5918 205.288 71.5918 205.385Z" fill="#263238"/>
<path d="M34.6646 209.718H52.6113V204.718H34.6646V209.718Z" fill="white"/>
<path d="M49.8162 209.209C49.9127 209.209 49.9898 208.317 49.9898 207.218C49.9898 206.117 49.9119 205.226 49.8162 205.226C49.7205 205.226 49.6426 206.118 49.6426 207.218C49.6418 208.318 49.7198 209.209 49.8162 209.209Z" fill="#E0E0E0"/>
<path d="M47.4412 209.209C47.5377 209.209 47.6156 208.317 47.6156 207.218C47.6156 206.117 47.5377 205.226 47.4412 205.226C47.3455 205.226 47.2676 206.118 47.2676 207.218C47.2676 208.318 47.3455 209.209 47.4412 209.209Z" fill="#E0E0E0"/>
<path d="M45.0682 209.209C45.1646 209.209 45.2425 208.317 45.2425 207.218C45.2425 206.117 45.1646 205.226 45.0682 205.226C44.9724 205.226 44.8945 206.118 44.8945 207.218C44.8945 208.318 44.9724 209.209 45.0682 209.209Z" fill="#E0E0E0"/>
<path d="M42.6951 209.209C42.7916 209.209 42.8687 208.317 42.8687 207.218C42.8687 206.117 42.7908 205.226 42.6951 205.226C42.5994 205.226 42.5215 206.118 42.5215 207.218C42.5215 208.318 42.5994 209.209 42.6951 209.209Z" fill="#E0E0E0"/>
<path d="M40.324 209.209C40.4205 209.209 40.4976 208.317 40.4976 207.218C40.4976 206.117 40.4197 205.226 40.324 205.226C40.2283 205.226 40.1504 206.118 40.1504 207.218C40.1504 208.318 40.2283 209.209 40.324 209.209Z" fill="#E0E0E0"/>
<path d="M37.951 209.209C38.0474 209.209 38.1246 208.317 38.1246 207.218C38.1246 206.117 38.0467 205.226 37.951 205.226C37.8553 205.226 37.7773 206.118 37.7773 207.218C37.7773 208.318 37.8553 209.209 37.951 209.209Z" fill="#E0E0E0"/>
<path d="M69.8924 212.35C69.9888 212.35 70.066 210.13 70.066 207.39C70.066 204.65 69.9881 202.429 69.8924 202.429C69.7967 202.429 69.7188 204.65 69.7188 207.39C69.7187 210.13 69.7967 212.35 69.8924 212.35Z" fill="#263238"/>
<path d="M32.2714 187.786V185.346L83.3151 185.453H86.2645V187.822H83.3151V202.43H28.1874V187.786H32.2714Z" fill="#F5F5F5"/>
<path d="M44.7867 202.43V185.346H32.2714V187.786H28.1874V202.43H44.7867Z" fill="#EBEBEB"/>
<path d="M32.2714 185.346C32.2714 185.443 44.2554 185.52 59.0353 185.52C73.8204 185.52 85.8022 185.442 85.8022 185.346C85.8022 185.251 73.8204 185.173 59.0353 185.173C44.2554 185.173 32.2714 185.251 32.2714 185.346Z" fill="#E0E0E0"/>
<path d="M28.5976 193.02C28.5976 193.116 40.802 193.194 55.8527 193.194C70.9094 193.194 83.1108 193.116 83.1108 193.02C83.1108 192.924 70.9094 192.847 55.8527 192.847C40.8013 192.846 28.5976 192.924 28.5976 193.02Z" fill="#E0E0E0"/>
<path d="M28.1874 198.254C28.1874 198.35 40.4831 198.428 55.6474 198.428C70.8168 198.428 83.1103 198.35 83.1103 198.254C83.1103 198.158 70.8168 198.081 55.6474 198.081C40.4831 198.08 28.1874 198.158 28.1874 198.254Z" fill="#E0E0E0"/>
<path d="M85.803 187.786C85.803 187.689 73.819 187.612 59.0383 187.612C44.2532 187.612 32.2714 187.69 32.2714 187.786C32.2714 187.882 44.2532 187.96 59.0383 187.96C73.819 187.96 85.803 187.882 85.803 187.786Z" fill="#E0E0E0"/>
<path d="M67.6356 220.875H86.6523V213.382H67.6356V220.875Z" fill="#EBEBEB"/>
<path d="M27.7198 213.665H87.4434V212.096H27.7198V213.665Z" fill="#5274B8"/>
<path d="M27.7212 222.11H87.168V220.541H27.7212V222.11Z" fill="#5274B8"/>
<path d="M67.6358 212.469L67.5461 221.811H27.7207V212.469H67.6358Z" fill="#5274B8"/>
<path d="M57.9569 217.131C57.9569 218.414 58.9208 219.456 60.1095 219.456C61.2982 219.456 62.262 218.414 62.262 217.131C62.262 215.847 61.2982 214.806 60.1095 214.806C58.9208 214.806 57.9569 215.847 57.9569 217.131Z" fill="#263238"/>
<path d="M57.623 217.131C57.623 215.665 58.739 214.472 60.1102 214.472C61.4814 214.472 62.5974 215.665 62.5974 217.131C62.5974 218.597 61.4814 219.789 60.1102 219.789C58.7383 219.789 57.623 218.597 57.623 217.131ZM58.2908 217.131C58.2908 218.228 59.107 219.122 60.1095 219.122C61.1119 219.122 61.9281 218.228 61.9281 217.131C61.9281 216.033 61.1119 215.141 60.1095 215.141C59.107 215.141 58.2908 216.033 58.2908 217.131Z" fill="#E0E0E0"/>
<path d="M69.0645 219.039C69.0645 219.135 72.9718 219.212 77.7904 219.212C82.6111 219.212 86.5178 219.134 86.5178 219.039C86.5178 218.943 82.6111 218.865 77.7904 218.865C72.9718 218.864 69.0645 218.942 69.0645 219.039Z" fill="#263238"/>
<path d="M69.0645 217.733C69.0645 217.829 72.9718 217.907 77.7904 217.907C82.6111 217.907 86.5178 217.829 86.5178 217.733C86.5178 217.638 82.6111 217.56 77.7904 217.56C72.9718 217.559 69.0645 217.637 69.0645 217.733Z" fill="#263238"/>
<path d="M69.0645 216.428C69.0645 216.525 72.9718 216.602 77.7904 216.602C82.6111 216.602 86.5178 216.524 86.5178 216.428C86.5178 216.332 82.6111 216.255 77.7904 216.255C72.9718 216.254 69.0645 216.332 69.0645 216.428Z" fill="#263238"/>
<path d="M69.0645 215.123C69.0645 215.219 72.9718 215.297 77.7904 215.297C82.6111 215.297 86.5178 215.219 86.5178 215.123C86.5178 215.027 82.6111 214.949 77.7904 214.949C72.9718 214.949 69.0645 215.027 69.0645 215.123Z" fill="#263238"/>
<path d="M32.1372 219.456H50.084V214.456H32.1372V219.456Z" fill="white"/>
<path d="M47.2889 218.947C47.3846 218.947 47.4625 218.055 47.4625 216.955C47.4625 215.855 47.3846 214.964 47.2889 214.964C47.1932 214.964 47.1152 215.856 47.1152 216.955C47.1145 218.056 47.1924 218.947 47.2889 218.947Z" fill="#E0E0E0"/>
<path d="M44.9139 218.947C45.0103 218.947 45.0882 218.055 45.0882 216.955C45.0882 215.855 45.0103 214.964 44.9139 214.964C44.8181 214.964 44.7402 215.856 44.7402 216.955C44.7402 218.056 44.8181 218.947 44.9139 218.947Z" fill="#E0E0E0"/>
<path d="M42.5408 218.947C42.6373 218.947 42.7152 218.055 42.7152 216.955C42.7152 215.855 42.6373 214.964 42.5408 214.964C42.4451 214.964 42.3672 215.856 42.3672 216.955C42.3672 218.056 42.4451 218.947 42.5408 218.947Z" fill="#E0E0E0"/>
<path d="M40.1678 218.947C40.2642 218.947 40.3421 218.055 40.3421 216.955C40.3421 215.855 40.2642 214.964 40.1678 214.964C40.0721 214.964 39.9941 215.856 39.9941 216.955C39.9941 218.056 40.0721 218.947 40.1678 218.947Z" fill="#E0E0E0"/>
<path d="M37.7967 218.947C37.8931 218.947 37.9703 218.055 37.9703 216.955C37.9703 215.855 37.8924 214.964 37.7967 214.964C37.701 214.964 37.623 215.856 37.623 216.955C37.623 218.056 37.701 218.947 37.7967 218.947Z" fill="#E0E0E0"/>
<path d="M35.4236 218.947C35.5201 218.947 35.598 218.055 35.598 216.955C35.598 215.855 35.5201 214.964 35.4236 214.964C35.3279 214.964 35.25 215.856 35.25 216.955C35.25 218.056 35.3279 218.947 35.4236 218.947Z" fill="#E0E0E0"/>
<path d="M67.365 222.09C67.4615 222.09 67.5387 219.869 67.5387 217.129C67.5387 214.389 67.4608 212.169 67.365 212.169C67.2693 212.169 67.1914 214.39 67.1914 217.129C67.1914 219.868 67.2693 222.09 67.365 222.09Z" fill="#263238"/>
<path d="M334.548 122.437C334.12 121.042 332.718 120.006 331.258 120.007C329.84 118.389 327.241 117.964 325.381 119.045C324.265 118.074 322.629 117.742 321.223 118.201C319.817 118.66 318.692 119.894 318.364 121.336C316.952 120.838 315.247 121.339 314.329 122.523C313.412 123.706 313.351 125.483 314.186 126.727C312.508 126.951 311.136 128.57 311.191 130.262C311.245 131.954 312.718 133.481 314.407 133.597L333.187 126.295C334.396 125.477 334.976 123.833 334.548 122.437Z" fill="#B38C67"/>
<path d="M313.825 133.982C315.8 126.604 323.111 121.98 330.625 123.357L331.371 123.493C339.335 125.438 342.132 133.288 339.969 141.195L333.325 168.241L333.147 168.501L319.71 177.802L317.41 176.105L314.46 168.727L315.605 162.571C315.605 162.571 308.086 159.95 309.408 152.195C310.046 148.45 311.988 140.845 313.825 133.982Z" fill="#FDD7C6"/>
<path d="M315.612 162.584C315.612 162.584 320.429 163.75 326.224 161.438C326.224 161.438 322.759 166.622 315.236 164.547L315.612 162.584Z" fill="#F6BAA6"/>
<path d="M314.237 141.761C314.11 142.34 314.496 142.926 315.099 143.07C315.701 143.214 316.293 142.862 316.42 142.283C316.548 141.703 316.162 141.117 315.56 140.973C314.956 140.829 314.364 141.181 314.237 141.761Z" fill="#263238"/>
<path d="M314.637 138.45C314.748 138.619 315.698 138.152 316.887 138.373C318.077 138.577 318.838 139.348 318.994 139.227C319.069 139.174 318.977 138.888 318.648 138.542C318.324 138.198 317.735 137.813 316.994 137.68C316.253 137.549 315.58 137.707 315.17 137.921C314.753 138.135 314.581 138.373 314.637 138.45Z" fill="#B38C67"/>
<path d="M324.505 143.772C324.377 144.352 324.763 144.938 325.366 145.082C325.968 145.226 326.56 144.874 326.688 144.295C326.815 143.715 326.43 143.128 325.828 142.984C325.225 142.84 324.632 143.193 324.505 143.772Z" fill="#263238"/>
<path d="M326.041 140.367C326.152 140.536 327.104 140.07 328.291 140.291C329.481 140.495 330.242 141.266 330.398 141.145C330.473 141.092 330.382 140.806 330.051 140.46C329.728 140.115 329.139 139.731 328.398 139.598C327.657 139.467 326.984 139.626 326.574 139.839C326.159 140.053 325.986 140.29 326.041 140.367Z" fill="#B38C67"/>
<path d="M324.559 150.324C324.363 150.273 323.971 151.257 322.942 151.889C321.923 152.537 320.841 152.476 320.808 152.671C320.788 152.761 321.047 152.911 321.524 152.946C321.994 152.984 322.689 152.874 323.328 152.475C323.966 152.075 324.358 151.506 324.518 151.073C324.684 150.635 324.652 150.343 324.559 150.324Z" fill="#263238"/>
<path d="M320.511 148.462C320.529 148.395 319.813 148.132 318.644 147.759C318.347 147.673 318.07 147.56 318.056 147.343C318.025 147.111 318.212 146.807 318.424 146.48C318.844 145.798 319.284 145.082 319.745 144.333C321.595 141.269 322.993 138.729 322.87 138.655C322.745 138.582 321.146 141.005 319.296 144.069C318.847 144.826 318.419 145.547 318.01 146.237C317.832 146.561 317.563 146.916 317.635 147.4C317.675 147.641 317.868 147.847 318.053 147.935C318.237 148.029 318.407 148.064 318.555 148.101C319.747 148.386 320.494 148.529 320.511 148.462Z" fill="#263238"/>
<path d="M326.65 136.969C326.734 137.303 327.81 137.213 329.05 137.462C330.296 137.682 331.279 138.159 331.464 137.875C331.546 137.739 331.39 137.42 331.002 137.076C330.617 136.734 329.99 136.393 329.245 136.252C328.499 136.112 327.803 136.204 327.334 136.386C326.861 136.566 326.614 136.81 326.65 136.969Z" fill="#F6BAA6"/>
<path d="M315.504 135.238C315.637 135.559 316.516 135.5 317.486 135.748C318.465 135.962 319.224 136.408 319.487 136.181C319.606 136.068 319.548 135.768 319.258 135.421C318.973 135.076 318.438 134.713 317.769 134.553C317.099 134.395 316.459 134.481 316.049 134.662C315.634 134.842 315.448 135.085 315.504 135.238Z" fill="#F6BAA6"/>
<path d="M315.219 130.57C315.219 130.57 318.147 126.098 320.69 125.395C323.77 124.544 324.419 127.872 327.253 127.612C330.086 127.352 333.027 126.533 335.4 129.121C337.997 131.954 336.292 133.296 335.849 136.763C334.055 150.82 335.876 155.222 337.8 148.798C338.011 148.095 340.109 147.889 340.96 144.908C342.064 141.043 343.09 136.293 342.724 133.34C342.415 130.85 341.371 128.978 339.292 126.745C336.012 123.219 330.804 122.202 327.195 121.91C323.586 121.617 316.007 124.444 315.219 130.57Z" fill="#B38C67"/>
<path d="M337.345 148.498C337.613 147.312 338.814 146.558 339.983 146.889C341.401 147.291 342.857 148.405 342.216 151.369C341.079 156.627 336.033 154.401 336.057 154.248C336.072 154.144 336.849 150.694 337.345 148.498Z" fill="#FDD7C6"/>
<path d="M337.631 152.517C337.657 152.505 337.709 152.601 337.848 152.705C337.984 152.807 338.233 152.911 338.53 152.868C339.13 152.784 339.788 152.003 340.019 151.061C340.136 150.585 340.134 150.108 340.047 149.694C339.969 149.275 339.779 148.952 339.51 148.842C339.246 148.718 339.012 148.842 338.915 148.977C338.813 149.109 338.823 149.221 338.793 149.224C338.776 149.234 338.7 149.111 338.789 148.903C338.833 148.804 338.922 148.692 339.067 148.619C339.216 148.543 339.413 148.531 339.603 148.595C340.002 148.71 340.287 149.162 340.384 149.617C340.502 150.078 340.516 150.617 340.384 151.151C340.122 152.204 339.365 153.078 338.557 153.133C338.166 153.15 337.881 152.972 337.749 152.813C337.612 152.646 337.61 152.523 337.631 152.517Z" fill="#F6BAA6"/>
<path d="M339.12 138.23C338.346 138.573 337.533 138.924 336.69 138.854C335.847 138.784 334.987 138.136 334.998 137.29C335.003 136.91 335.171 136.5 334.981 136.171C334.754 135.779 334.202 135.787 333.75 135.753C332.182 135.635 330.806 134.259 330.688 132.69C330.189 133.206 329.278 133.012 328.754 132.521C328.23 132.03 327.963 131.333 327.596 130.717C327.228 130.099 326.664 129.504 325.946 129.476C325.545 129.46 325.136 129.626 324.749 129.519C324.066 129.33 323.876 128.454 323.897 127.746C323.918 127.037 323.984 126.218 323.464 125.735C322.983 125.288 322.239 125.359 321.583 125.336C320.926 125.313 320.127 125.012 320.078 124.357C320.052 124.013 320.257 123.694 320.491 123.441C321.552 122.295 323.454 122.048 324.773 122.884C325.611 121.231 327.495 120.17 329.342 120.311C331.191 120.451 332.892 121.785 333.469 123.547C334.773 122.737 336.476 122.609 337.886 123.214C339.297 123.819 340.377 125.142 340.688 126.645C342.037 126.541 343.413 127.308 344.035 128.508C344.658 129.709 344.491 131.275 343.63 132.318C344.481 133.035 345.122 134.129 344.941 135.228C344.76 136.326 343.494 137.223 342.491 136.74C342.761 137.671 342.202 138.764 341.289 139.089C340.376 139.414 339.252 138.92 338.873 138.028" fill="#B38C67"/>
<path d="M342.88 136.8C342.901 136.789 342.897 137.262 342.365 137.757C342.103 137.99 341.69 138.205 341.188 138.194C340.697 138.187 340.135 137.963 339.761 137.48L339.991 137.487C339.646 137.895 339.215 138.295 338.693 138.613C338.358 138.815 337.997 138.973 337.619 139.036C337.247 139.111 336.85 139.051 336.536 138.94C335.879 138.743 335.36 138.276 335.17 137.785C334.968 137.301 334.951 136.884 334.944 136.606C334.94 136.325 334.962 136.172 334.982 136.171C335.005 136.17 335.024 136.324 335.064 136.596C335.107 136.865 335.16 137.268 335.368 137.691C335.73 138.542 337.293 139.229 338.534 138.348C339.019 138.053 339.433 137.676 339.767 137.296L339.888 137.157L339.997 137.303C340.297 137.709 340.775 137.921 341.198 137.944C341.626 137.971 341.994 137.806 342.248 137.614C342.761 137.21 342.836 136.778 342.88 136.8Z" fill="#B38C67"/>
<path d="M335.097 122.889C335.096 122.907 334.952 122.9 334.698 122.957C334.448 123.015 334.071 123.152 333.748 123.504L333.666 123.593L333.611 123.482C333.238 122.728 332.566 121.724 331.433 120.943C330.869 120.559 330.192 120.242 329.434 120.105C328.681 119.963 327.853 120.036 327.077 120.335C326.473 120.566 325.936 120.923 325.511 121.355C325.093 121.793 324.791 122.31 324.637 122.843L324.589 123.007L324.437 122.934C323.683 122.569 322.844 122.576 322.19 122.799C321.526 123.02 321.05 123.455 320.751 123.867C320.154 124.72 320.187 125.391 320.134 125.374C320.123 125.374 320.106 125.218 320.15 124.93C320.197 124.646 320.31 124.223 320.609 123.769C320.902 123.321 321.397 122.833 322.111 122.573C322.813 122.314 323.721 122.286 324.561 122.677L324.362 122.768C324.52 122.185 324.844 121.62 325.292 121.145C325.747 120.676 326.321 120.293 326.965 120.047C327.792 119.728 328.685 119.653 329.488 119.811C330.293 119.964 331.004 120.309 331.586 120.722C332.757 121.56 333.418 122.621 333.763 123.412L333.626 123.39C334.002 123.019 334.416 122.904 334.682 122.87C334.954 122.838 335.098 122.877 335.097 122.889Z" fill="#B38C67"/>
<path d="M251.211 223.052C251.211 223.052 251.754 217.349 254.334 215.719C256.914 214.09 263.806 212.678 263.806 212.678L266.556 220.843L261.939 226.663L251.211 223.052Z" fill="#FDD7C6"/>
<path d="M235.955 306.365L236.567 323.936C236.567 323.936 219.001 330.094 218.799 333.352L252.822 333.755L252.991 306.337L235.955 306.365Z" fill="black"/>
<path d="M247.054 322.532C247.719 322.714 248.178 323.462 248.023 324.134C247.868 324.805 247.111 325.278 246.443 325.108C245.775 324.937 245.196 324.056 245.426 323.406C245.656 322.756 246.574 322.249 247.182 322.575" fill="#E0E0E0"/>
<path d="M252.985 333.752L252.999 331.569L219.969 331.842C219.969 331.842 218.884 332.506 218.791 333.533L252.985 333.752Z" fill="#455B64"/>
<path d="M236.421 324.047C236.426 324.215 237.265 324.292 238.09 324.832C238.929 325.351 239.353 326.078 239.508 326.012C239.663 325.98 239.413 324.976 238.404 324.339C237.4 323.694 236.385 323.893 236.421 324.047Z" fill="#455B64"/>
<path d="M232.816 325.533C232.777 325.697 233.504 325.982 234.073 326.692C234.663 327.385 234.806 328.153 234.973 328.146C235.131 328.173 235.247 327.19 234.524 326.321C233.807 325.445 232.82 325.374 232.816 325.533Z" fill="#455B64"/>
<path d="M230.766 329.844C230.918 329.88 231.153 329.042 230.723 328.123C230.3 327.201 229.509 326.837 229.437 326.977C229.342 327.115 229.851 327.609 230.193 328.369C230.552 329.12 230.599 329.827 230.766 329.844Z" fill="#455B64"/>
<path d="M236.729 319.998C236.799 320.151 237.569 319.921 238.517 319.986C239.467 320.032 240.204 320.351 240.292 320.208C240.389 320.087 239.669 319.465 238.551 319.403C237.433 319.333 236.646 319.866 236.729 319.998Z" fill="#455B64"/>
<path d="M236.121 316.212C236.119 316.281 236.782 316.386 237.842 316.205C238.369 316.114 238.99 315.943 239.643 315.654C239.968 315.509 240.302 315.337 240.631 315.131C240.79 315.029 240.977 314.927 241.151 314.727C241.337 314.552 241.443 314.107 241.229 313.834C241.053 313.57 240.742 313.456 240.494 313.45C240.241 313.441 240.036 313.492 239.85 313.538C239.467 313.63 239.108 313.757 238.78 313.904C238.123 314.202 237.59 314.579 237.192 314.943C236.394 315.681 236.121 316.307 236.179 316.34C236.255 316.395 236.643 315.871 237.455 315.262C237.86 314.96 238.377 314.646 238.99 314.399C239.298 314.278 239.629 314.172 239.979 314.096C240.343 314.001 240.652 313.999 240.746 314.16C240.779 314.222 240.784 314.247 240.708 314.353C240.63 314.451 240.482 314.547 240.326 314.648C240.023 314.846 239.716 315.018 239.417 315.167C238.818 315.463 238.244 315.666 237.753 315.802C236.766 316.076 236.118 316.122 236.121 316.212Z" fill="#455B64"/>
<path d="M221.533 272.31L213.248 287.817C213.248 287.817 194.964 284.332 193.154 287.049L222.385 304.465L236.285 280.832L221.533 272.31Z" fill="black"/>
<path d="M222.882 291.781C223.366 292.272 223.387 293.149 222.916 293.653C222.445 294.156 221.553 294.185 221.061 293.702C220.569 293.22 220.51 292.167 221.035 291.72C221.559 291.272 222.609 291.295 222.97 291.881" fill="#E0E0E0"/>
<path d="M222.385 304.463L223.492 302.58L194.782 286.247C194.782 286.247 193.509 286.278 192.914 287.121L222.385 304.463Z" fill="#455B64"/>
<path d="M212.924 287.758C212.845 287.905 213.532 288.393 213.974 289.274C214.439 290.144 214.442 290.986 214.609 291.006C214.759 291.056 215.046 290.063 214.492 289.006C213.948 287.943 212.97 287.606 212.924 287.758Z" fill="#455B64"/>
<path d="M209.058 287.235C208.943 287.357 209.429 287.968 209.564 288.868C209.726 289.764 209.465 290.5 209.613 290.577C209.736 290.679 210.33 289.889 210.14 288.773C209.96 287.656 209.142 287.099 209.058 287.235Z" fill="#455B64"/>
<path d="M205.121 289.935C205.235 290.042 205.858 289.436 205.948 288.424C206.044 287.414 205.543 286.703 205.411 286.788C205.259 286.86 205.452 287.542 205.366 288.371C205.3 289.201 204.986 289.837 205.121 289.935Z" fill="#455B64"/>
<path d="M215.221 284.409C215.205 284.577 215.987 284.763 216.774 285.296C217.572 285.812 218.05 286.458 218.198 286.378C218.343 286.321 218.032 285.423 217.095 284.808C216.165 284.187 215.216 284.253 215.221 284.409Z" fill="#455B64"/>
<path d="M216.593 280.829C216.557 280.888 217.078 281.312 218.085 281.686C218.587 281.873 219.211 282.036 219.92 282.113C220.274 282.152 220.649 282.169 221.037 282.156C221.226 282.147 221.439 282.153 221.689 282.067C221.938 282.009 222.252 281.677 222.204 281.334C222.185 281.017 221.973 280.763 221.761 280.633C221.547 280.498 221.343 280.44 221.159 280.386C220.781 280.274 220.407 280.203 220.049 280.165C219.332 280.093 218.681 280.152 218.154 280.268C217.095 280.506 216.544 280.911 216.578 280.968C216.615 281.054 217.214 280.795 218.222 280.676C218.724 280.617 219.328 280.606 219.983 280.7C220.311 280.748 220.65 280.823 220.99 280.932C221.353 281.033 221.622 281.186 221.621 281.373C221.619 281.444 221.611 281.467 221.491 281.521C221.374 281.566 221.198 281.575 221.013 281.584C220.65 281.603 220.299 281.598 219.966 281.577C219.298 281.533 218.7 281.42 218.207 281.292C217.219 281.035 216.637 280.749 216.593 280.829Z" fill="#263238"/>
<path d="M328.436 246.332C328.408 245.967 328.389 245.764 328.389 245.764L328.436 246.332Z" fill="#263238"/>
<path d="M328.971 246.336L289.86 231.698C289.86 231.698 266.751 220.911 258.35 218.595C249.358 216.116 241.246 222.881 236.233 233.369C232.838 240.472 213.867 284.768 213.867 284.768L228.904 294.513L258.947 240.953L302.888 269.475C302.888 269.475 311.55 269.303 319.923 269.303C327.491 269.303 329.236 249.79 328.971 246.336Z" fill="black"/>
<path d="M233.357 321.056L238.864 260.328C238.864 260.328 239.834 247.686 247.128 245.162C254.424 242.639 262.952 243.654 262.952 243.654L303.836 269.458L261.891 270.179C261.891 270.179 259.757 279.004 259.149 282.831C258.423 287.396 252.998 321.847 252.998 321.847L233.357 321.056Z" fill="black"/>
<path d="M302.888 267.215C302.888 267.215 302.826 267.17 302.699 267.09C302.563 267.007 302.376 266.892 302.132 266.742C301.621 266.435 300.88 265.989 299.922 265.413C297.979 264.257 295.159 262.58 291.614 260.471C288.057 258.363 283.774 255.827 278.923 252.954C276.494 251.518 273.924 249.998 271.231 248.407C269.884 247.611 268.507 246.797 267.101 245.967C265.68 245.163 264.231 244.342 262.755 243.507L262.726 243.491L262.692 243.49C260.899 243.434 258.968 243.374 257.005 243.312H256.999H256.993C254.582 243.432 252.1 243.667 249.629 244.264C249.013 244.418 248.398 244.586 247.791 244.827C247.216 245.131 246.636 245.413 246.085 245.758L245.294 246.331L244.897 246.619L244.539 246.954L243.821 247.627C243.591 247.86 243.391 248.123 243.174 248.37C241.663 250.174 240.606 252.286 239.907 254.452C239.19 256.616 238.788 258.847 238.655 261.045C238.262 265.416 237.882 269.632 237.52 273.649C236.804 281.682 236.158 288.915 235.616 294.994C235.084 301.063 234.655 305.978 234.357 309.386C234.215 311.077 234.104 312.394 234.029 313.3C233.994 313.74 233.969 314.079 233.951 314.318C233.934 314.548 233.934 314.666 233.934 314.666C233.934 314.666 233.954 314.55 233.98 314.321C234.005 314.082 234.04 313.745 234.086 313.306C234.174 312.401 234.302 311.086 234.467 309.396C234.787 305.989 235.248 301.077 235.818 295.011C236.378 288.933 237.044 281.7 237.784 273.669C238.151 269.652 238.536 265.436 238.935 261.065C239.07 258.882 239.468 256.683 240.178 254.541C240.871 252.402 241.913 250.322 243.394 248.555C243.606 248.312 243.803 248.055 244.028 247.826L244.73 247.168L245.08 246.84L245.467 246.559L246.24 245.999C246.775 245.663 247.352 245.384 247.9 245.091C248.478 244.861 249.09 244.692 249.696 244.54C252.136 243.95 254.606 243.713 257.005 243.591H256.994C258.958 243.65 260.889 243.708 262.682 243.762L262.619 243.744C264.094 244.576 265.544 245.394 266.966 246.195C268.373 247.023 269.752 247.834 271.1 248.627C273.797 250.212 276.372 251.725 278.803 253.154C283.666 256.007 287.96 258.525 291.526 260.617C295.087 262.696 297.921 264.351 299.873 265.491C300.84 266.05 301.589 266.483 302.106 266.781C302.354 266.922 302.546 267.031 302.684 267.109C302.818 267.184 302.888 267.215 302.888 267.215Z" fill="#455B64"/>
<path d="M294.66 215.99L283.442 218.266L273.644 221.564L290.178 231.761L292.998 225.333L294.66 215.99Z" fill="#FCB86A"/>
<path d="M335.346 167.325C335.346 167.325 344.314 179.585 341.067 195.605C337.819 211.627 332.363 242.947 332.203 246.421C332.071 249.276 330.513 248.994 330.513 248.994L290.334 232.208L298.822 198.05L311.531 174.859L313.494 168.902L334.504 163.412L335.346 167.325Z" fill="#FCB86A"/>
<path d="M291.887 227.063C291.887 227.063 292.478 234.161 292.545 235.046C292.612 235.931 291.38 238.816 291.369 240.426C291.358 242.035 291.856 243.596 291.172 244.096C290.489 244.595 288.824 244.197 288.466 243.027C288.109 241.857 288.379 238.307 288.379 238.307L287.401 241.473L287.076 247.417C287.076 247.417 286.91 248.347 285.842 248.251C284.774 248.154 284.171 247.258 284.171 247.258C284.171 247.258 282.892 247.514 282.279 246.101C282.279 246.101 280.334 246.607 279.822 243.359C279.822 243.359 278.926 243.616 278.399 242.744C277.871 241.872 276.84 239.707 276.84 239.707C276.84 239.707 277.077 231.86 277.63 230.165C278.183 228.471 283.095 222.649 283.095 222.649C283.095 222.649 288.229 223.066 290.266 222.909L291.887 227.063Z" fill="#FDD7C6"/>
<path d="M284.949 233.657C284.931 233.65 284.849 233.818 284.716 234.127C284.579 234.435 284.412 234.894 284.231 235.469C283.868 236.617 283.509 238.259 283.41 240.102C283.316 241.946 283.5 243.615 283.741 244.796C283.86 245.386 283.979 245.86 284.083 246.18C284.183 246.502 284.247 246.677 284.265 246.671C284.311 246.659 284.122 245.941 283.935 244.761C283.746 243.582 283.595 241.934 283.688 240.116C283.786 238.298 284.109 236.675 284.42 235.523C284.73 234.37 284.993 233.675 284.949 233.657Z" fill="#F7996E"/>
<path d="M281.248 233.303C281.229 233.3 281.184 233.474 281.12 233.791C281.056 234.108 280.972 234.568 280.882 235.138C280.707 236.279 280.491 237.873 280.54 239.65C280.589 241.427 280.972 243.019 281.435 244.088C281.662 244.625 281.89 245.039 282.068 245.311C282.245 245.584 282.36 245.723 282.374 245.713C282.417 245.687 282.018 245.089 281.619 244.016C281.211 242.948 280.868 241.389 280.819 239.641C280.77 237.893 280.952 236.308 281.078 235.164C281.209 234.02 281.288 233.309 281.248 233.303Z" fill="#F7996E"/>
<path d="M279.707 233.023C279.666 233.021 279.6 233.583 279.454 234.488C279.318 235.392 279.072 236.639 278.969 238.049C278.865 239.458 279.026 240.758 279.331 241.639C279.479 242.081 279.642 242.422 279.776 242.644C279.908 242.868 279.998 242.98 280.013 242.971C280.056 242.947 279.759 242.457 279.52 241.582C279.271 240.711 279.146 239.452 279.247 238.067C279.348 236.682 279.563 235.429 279.649 234.513C279.747 233.597 279.743 233.024 279.707 233.023Z" fill="#F7996E"/>
<g opacity="0.3">
<path d="M273.016 223.103C273.016 223.103 279.69 224.986 283.884 226.099C288.077 227.212 290.37 227.542 292.598 226.577C294.826 225.611 303.526 221.216 305.546 219.671C308.37 217.513 318.341 210.332 320.134 208.423C323.54 204.797 328.412 199.07 328.412 199.07L289.262 220.482L273.961 221.343L273.016 223.103Z" fill="black"/>
</g>
<path d="M335.398 183.723C335.271 183.055 334.767 181.853 334.498 181.277C330.749 173.27 317.614 177.882 312.089 182.783C307.147 187.166 288.019 208.422 288.019 208.422L263.307 212.678L266.048 221.864C266.048 221.864 271.01 223.253 277.454 223.915C285.863 224.778 287.188 224.998 291.828 223.875C296.114 222.839 310.468 212.935 318.447 207.173C326.375 201.448 337.166 193.05 335.398 183.723Z" fill="#FCB86A"/>
<path d="M335.398 183.723C335.398 183.723 335.427 183.872 335.466 184.167C335.503 184.476 335.555 184.912 335.623 185.48C335.593 186.632 335.548 188.393 334.705 190.465C333.897 192.533 332.434 194.868 330.324 197.21C328.224 199.561 325.548 201.975 322.402 204.397C319.262 206.828 315.704 209.332 311.874 212.018C308.029 214.682 303.891 217.502 299.381 220.253C298.251 220.937 297.101 221.621 295.904 222.262C294.71 222.902 293.494 223.548 292.138 223.968C290.793 224.339 289.414 224.617 287.99 224.753C286.566 224.885 285.124 224.816 283.685 224.71C282.245 224.6 280.798 224.448 279.339 224.3C277.882 224.149 276.406 224.009 274.925 223.804C271.964 223.392 268.98 222.836 265.998 222.052L265.896 222.025L265.865 221.921C265.414 220.41 264.93 218.788 264.442 217.155C263.999 215.672 263.559 214.197 263.123 212.734L263.061 212.526L263.275 212.489C271.939 211 280.266 209.569 287.989 208.242L287.884 208.3C294.068 201.46 299.859 195.148 305.132 189.587C306.45 188.196 307.74 186.856 309.007 185.577C310.281 184.307 311.49 183.05 312.82 182.004C315.501 179.955 318.362 178.632 321.043 177.791C323.726 176.953 326.299 176.655 328.494 176.969C329.589 177.126 330.583 177.443 331.414 177.892C332.248 178.337 332.907 178.91 333.409 179.49C334.412 180.673 334.784 181.83 335.072 182.561C335.208 182.935 335.295 183.225 335.344 183.422C335.391 183.619 335.398 183.723 335.398 183.723C335.391 183.724 335.37 183.624 335.312 183.43C335.253 183.237 335.158 182.951 335.012 182.582C334.707 181.86 334.315 180.716 333.315 179.569C332.337 178.42 330.64 177.411 328.468 177.144C326.306 176.852 323.764 177.161 321.109 178.007C318.458 178.854 315.622 180.184 312.986 182.217C311.685 183.248 310.48 184.509 309.213 185.781C307.953 187.063 306.669 188.406 305.356 189.799C300.103 195.373 294.327 201.698 288.154 208.544L288.112 208.591L288.05 208.602C280.328 209.936 272.003 211.373 263.34 212.869L263.492 212.623C263.928 214.085 264.369 215.56 264.812 217.043C265.299 218.676 265.783 220.298 266.234 221.809L266.101 221.678C269.052 222.455 272.033 223.013 274.976 223.424C276.448 223.628 277.918 223.769 279.377 223.922C280.835 224.071 282.281 224.224 283.713 224.335C285.144 224.442 286.564 224.511 287.956 224.383C289.344 224.252 290.721 223.977 292.039 223.616C293.328 223.219 294.55 222.578 295.734 221.945C296.922 221.312 298.071 220.632 299.198 219.952C303.701 217.218 307.845 214.409 311.694 211.759C315.53 209.087 319.096 206.595 322.239 204.184C325.388 201.783 328.065 199.392 330.168 197.069C332.28 194.753 333.749 192.45 334.569 190.41C335.425 188.366 335.493 186.627 335.547 185.481C335.495 184.915 335.455 184.479 335.427 184.171C335.403 183.877 335.398 183.723 335.398 183.723Z" fill="#263238"/>
<path d="M334.949 167.052C334.946 167.043 334.858 167.073 334.696 167.138C334.505 167.218 334.273 167.316 333.991 167.434C333.342 167.709 332.469 168.08 331.408 168.531C329.22 169.44 326.177 170.648 322.754 171.804C319.985 172.743 317.396 173.511 315.323 174.085L315.447 174.136C314.61 172.762 314.167 171.501 313.915 170.618C313.789 170.175 313.71 169.823 313.655 169.584C313.604 169.345 313.573 169.218 313.561 169.219C313.55 169.221 313.559 169.351 313.59 169.595C313.624 169.84 313.684 170.197 313.792 170.65C314.009 171.551 314.426 172.84 315.256 174.251L315.298 174.323L315.381 174.301C317.466 173.759 320.068 173.009 322.844 172.068C326.275 170.908 329.315 169.668 331.486 168.712C332.571 168.23 333.44 167.824 334.037 167.533C334.309 167.395 334.535 167.282 334.719 167.189C334.874 167.107 334.953 167.06 334.949 167.052Z" fill="#263238"/>
<path d="M330.467 269.851H334.066C335.961 269.851 337.56 268.434 337.787 266.555C338.497 260.68 339.909 244.326 339.923 244.162L337.356 243.94C337.341 244.104 335.934 260.415 335.229 266.245C335.158 266.831 334.658 267.273 334.066 267.273H330.467V269.851Z" fill="#E0E0E0"/>
<path d="M330.466 269.851C330.47 269.848 330.474 269.787 330.478 269.673C330.482 269.543 330.486 269.379 330.492 269.173C330.5 268.72 330.512 268.086 330.526 267.274L330.467 267.334C331.049 267.339 331.718 267.346 332.47 267.352C332.848 267.355 333.247 267.358 333.666 267.361C333.875 267.355 334.087 267.383 334.327 267.337C334.558 267.29 334.784 267.176 334.96 267C335.138 266.827 335.266 266.594 335.314 266.339C335.35 266.089 335.366 265.855 335.393 265.606C335.443 265.111 335.494 264.599 335.548 264.069C335.653 263.008 335.765 261.879 335.883 260.69C336.346 255.919 336.903 250.177 337.507 243.955L337.342 244.093C337.946 244.145 338.593 244.202 339.245 244.258C339.472 244.277 339.699 244.297 339.909 244.315L339.77 244.15C338.959 252.842 338.228 260.679 337.697 266.369C337.598 267.778 336.708 268.872 335.728 269.366C334.732 269.905 333.721 269.758 332.948 269.794C332.172 269.808 331.562 269.819 331.122 269.827C330.924 269.832 330.765 269.836 330.638 269.839C330.529 269.844 330.47 269.848 330.466 269.851C330.463 269.855 330.514 269.859 330.618 269.862C330.74 269.866 330.894 269.87 331.085 269.875C331.527 269.883 332.14 269.894 332.919 269.908C333.322 269.909 333.768 269.928 334.26 269.914C334.751 269.892 335.289 269.778 335.805 269.516C336.836 269.019 337.793 267.865 337.91 266.394C338.464 260.703 339.228 252.867 340.075 244.175L340.09 244.023L339.936 244.01C339.727 243.992 339.499 243.972 339.272 243.952C338.62 243.896 337.973 243.84 337.368 243.788L337.217 243.776L337.203 243.928C336.621 250.15 336.083 255.891 335.636 260.662C335.527 261.852 335.424 262.981 335.327 264.043C335.279 264.573 335.233 265.086 335.188 265.581C335.163 265.825 335.148 266.078 335.118 266.302C335.08 266.518 334.974 266.716 334.825 266.864C334.677 267.015 334.487 267.115 334.289 267.159C334.097 267.2 333.874 267.179 333.666 267.187C333.247 267.19 332.848 267.193 332.47 267.196C331.718 267.203 331.048 267.209 330.467 267.214L330.406 267.215L330.407 267.274C330.422 268.1 330.433 268.746 330.441 269.207C330.447 269.408 330.452 269.568 330.455 269.695C330.459 269.802 330.463 269.854 330.466 269.851Z" fill="#263238"/>
<path d="M273.097 272.998H330.598C332.74 272.998 334.476 271.559 334.476 269.784C334.476 268.01 332.74 266.571 330.598 266.571H273.097C270.955 266.571 269.219 268.01 269.219 269.784C269.219 271.559 270.955 272.998 273.097 272.998Z" fill="#455B64"/>
<path d="M342.898 246.086L350.744 184.534C351.015 182.409 349.512 180.467 347.387 180.196C345.262 179.925 343.32 181.429 343.049 183.553L335.203 245.105C334.933 247.231 336.435 249.172 338.56 249.443C340.685 249.714 342.627 248.211 342.898 246.086Z" fill="#455B64"/>
<path d="M273.478 270.597L264.908 333.492L268.317 333.49L281.111 272.998L273.478 270.597Z" fill="#455B64"/>
<path d="M329.929 270.597L338.261 333.492L334.852 333.489L322.295 272.998L329.929 270.597Z" fill="#455B64"/>
<path d="M273.098 272.998C273.098 273.083 286.151 273.151 302.249 273.151C318.352 273.151 331.403 273.083 331.403 272.998C331.403 272.913 318.352 272.845 302.249 272.845C286.151 272.845 273.098 272.913 273.098 272.998Z" fill="#263238"/>
</svg>
