<svg width="460" height="302" viewBox="0 0 460 302" fill="none" xmlns="http://www.w3.org/2000/svg">
<path d="M127.846 167.347C121.638 170.563 116.877 176.1 113.454 182.197C110.031 188.294 107.824 194.984 105.639 201.626L103.727 235.88C110.951 223.59 116.749 209.143 118.316 194.973C116.713 194.83 115.111 194.688 113.508 194.545C116.732 194.053 119.437 191.718 121.159 188.948C122.88 186.179 123.767 182.986 124.632 179.842C122.677 180.132 120.721 180.423 118.766 180.713C123.358 177.647 126.689 172.746 127.846 167.347Z" fill="#5274B8"/>
<path d="M102.658 243.905C102.658 243.905 86.978 225.137 87.159 207.221H93.4931C93.4931 207.221 86.6127 202.696 87.1577 200.163C87.7021 197.629 87.8831 188.038 87.8831 188.038L93.6741 189.486C93.6741 189.486 89.3305 187.314 88.7875 183.876C88.2444 180.437 90.0545 164.512 90.0545 164.512C90.0545 164.512 97.1126 171.932 99.2841 179.533C101.456 187.134 107.156 196.002 105.482 219.166C103.809 242.329 102.658 243.905 102.658 243.905Z" fill="#5274B8"/>
<path d="M110.608 245.677C110.608 245.677 127.596 234.36 131.37 219.916L126.278 218.53C126.278 218.53 132.799 216.398 132.916 214.242C133.033 212.085 134.986 204.335 134.986 204.335L130.013 204.232C130.013 204.232 133.98 203.436 135.169 200.791C136.358 198.145 138.387 184.945 138.387 184.945C138.387 184.945 131.089 189.366 127.68 195.002C124.271 200.638 117.748 206.52 114.025 225.51C110.303 244.5 110.608 245.677 110.608 245.677Z" fill="#5274B8"/>
<path d="M94.3378 180.874C94.3438 180.873 94.3638 180.939 94.3972 181.068C94.4333 181.217 94.4787 181.407 94.5362 181.646C94.6564 182.178 94.8247 182.923 95.0385 183.872C95.2575 184.838 95.512 186.024 95.7872 187.404C96.0677 188.784 96.3944 190.353 96.7136 192.097C97.3876 195.576 98.0983 199.737 98.829 204.365C99.5377 208.997 100.244 214.1 100.872 219.472C101.487 224.847 101.963 229.978 102.33 234.65C102.674 239.324 102.931 243.537 103.069 247.078C103.156 248.848 103.196 250.451 103.238 251.858C103.285 253.265 103.307 254.477 103.315 255.468C103.323 256.44 103.329 257.204 103.334 257.75C103.332 257.995 103.331 258.19 103.33 258.344C103.327 258.477 103.322 258.546 103.316 258.546C103.31 258.546 103.303 258.478 103.294 258.344C103.286 258.191 103.276 257.996 103.263 257.752C103.243 257.206 103.215 256.443 103.179 255.472C103.151 254.482 103.108 253.271 103.044 251.865C102.984 250.46 102.926 248.859 102.824 247.091C102.655 243.553 102.372 239.345 102.01 234.676C101.626 230.009 101.14 224.883 100.526 219.513C99.899 214.146 99.2024 209.046 98.5124 204.414C97.7997 199.787 97.1144 195.625 96.4718 192.142C96.1686 190.397 95.8587 188.826 95.5968 187.443C95.3397 186.06 95.1046 184.871 94.9062 183.9C94.7192 182.947 94.5729 182.197 94.468 181.662C94.4246 181.42 94.3899 181.228 94.3625 181.077C94.3405 180.943 94.3318 180.875 94.3378 180.874Z" fill="#5274B8"/>
<path d="M100.482 255.398C100.482 255.398 86.1327 239.117 81.6769 229.275L85.0406 227.837C82.6027 228.239 80.1046 227.192 78.2143 225.6C76.3241 224.009 74.9354 221.916 73.5742 219.854L78.0053 219.105C73.9763 217.975 70.4262 215.225 68.3242 211.606C73.5528 212.466 78.2831 215.338 82.1812 218.928C85.3378 221.835 88.0109 225.209 90.5778 228.657C91.8302 230.339 92.9256 232.131 93.8387 234.018C96.2499 239.004 100.49 249.42 100.482 255.398Z" fill="#5274B8"/>
<path d="M131.593 194.421C131.598 194.424 131.577 194.48 131.529 194.588C131.472 194.714 131.4 194.869 131.311 195.062C131.101 195.5 130.81 196.104 130.442 196.871C129.676 198.435 128.589 200.71 127.272 203.533C124.636 209.176 121.162 217.053 117.731 225.915C114.306 234.783 111.578 242.948 109.731 248.897C108.806 251.871 108.08 254.285 107.595 255.958C107.352 256.773 107.161 257.415 107.022 257.88C106.957 258.083 106.905 258.246 106.864 258.378C106.827 258.489 106.805 258.546 106.799 258.544C106.792 258.543 106.803 258.483 106.829 258.368C106.862 258.235 106.903 258.068 106.953 257.861C107.077 257.392 107.248 256.743 107.464 255.921C107.91 254.236 108.601 251.81 109.496 248.825C111.283 242.854 113.977 234.667 117.405 225.789C120.84 216.918 124.354 209.048 127.048 203.428C128.394 200.617 129.515 198.357 130.319 196.811C130.712 196.057 131.022 195.462 131.247 195.031C131.348 194.844 131.43 194.693 131.496 194.572C131.555 194.47 131.588 194.418 131.593 194.421Z" fill="#5274B8"/>
<path d="M101.699 262.375C101.675 262.378 101.599 261.963 101.48 261.213C101.367 260.461 101.178 259.378 100.913 258.048C100.387 255.387 99.4618 251.745 98.0037 247.871C96.537 243.998 94.8237 240.654 93.4598 238.309C92.7791 237.136 92.2061 236.197 91.794 235.56C91.3872 234.919 91.1714 234.557 91.1908 234.543C91.2102 234.53 91.464 234.865 91.9068 235.485C92.3543 236.101 92.9615 237.022 93.6715 238.184C95.0949 240.506 96.8542 243.854 98.329 247.748C99.7958 251.645 100.688 255.319 101.154 258.003C101.389 259.344 101.542 260.437 101.613 261.195C101.692 261.952 101.723 262.372 101.699 262.375Z" fill="#5274B8"/>
<path d="M120.634 258.545H89.2285V264.951H120.634V258.545Z" fill="#6F453A"/>
<path d="M92.2207 264.951L95.6178 286.499H114.594L117.761 264.951H92.2207Z" fill="#6F453A"/>
<path d="M118.707 264.951C118.707 265.047 112.766 265.125 105.439 265.125C98.1099 265.125 92.1699 265.047 92.1699 264.951C92.1699 264.855 98.1099 264.777 105.439 264.777C112.766 264.777 118.707 264.855 118.707 264.951Z" fill="#E0E0E0"/>
<path d="M153.162 280.838C152.273 280.076 150.29 277.661 151.82 274.852C152.38 273.822 153.571 273.313 154.648 272.858C155.726 272.405 156.859 272.01 157.75 271.252C159.432 269.821 159.896 267.444 161.013 265.536C162.294 263.345 164.686 261.703 167.213 261.818C170.107 261.95 172.52 264.314 173.614 267.009C174.709 269.704 174.747 272.696 174.769 275.606C174.782 277.215 174.71 279.03 173.529 280.116C172.44 281.118 170.8 281.131 169.323 281.085C164.052 280.924 158.78 280.761 153.508 280.6" fill="#FCB86A"/>
<path d="M183.416 237.349H141.824L149.316 282.023C149.644 283.974 151.056 285.478 152.867 286C152.915 286.016 152.965 286.026 153.013 286.04C153.136 286.072 153.256 286.114 153.383 286.136C153.657 286.193 153.941 286.221 154.228 286.233C154.23 286.247 154.233 286.262 154.235 286.276L154.438 286.244H154.44H172.976C173.325 286.244 173.665 286.208 173.995 286.143C176.183 285.804 177.936 284.047 178.202 281.776L181.813 250.995L181.976 249.772H181.957L183.387 237.581L183.416 237.349ZM175.569 265.845H171.301L171.732 252.88H176.677L175.569 265.845ZM177.091 252.88H181.178L179.656 265.845H175.983L177.091 252.88ZM164.897 280.218L164.638 268.955H170.785L170.41 280.218H164.897ZM158.252 268.955H164.225L164.484 280.218H159.127L158.252 268.955ZM158.714 280.218H153.706C153.231 277.177 152.611 273.225 151.941 268.955H157.838L158.714 280.218ZM158.01 265.845L157.002 252.88H163.854L164.153 265.845H158.01ZM164.566 265.845L164.267 252.88H171.318L170.887 265.845H164.566ZM164.196 249.771L163.919 237.763H171.82L171.422 249.771H164.196ZM163.783 249.771H156.761L155.828 237.763H163.506L163.783 249.771ZM156.347 249.771H148.918C148.655 248.112 148.406 246.543 148.181 245.131C147.406 240.276 147.114 238.451 146.953 237.764H155.415L156.347 249.771ZM156.589 252.88L157.597 265.845H151.453C151.246 264.53 151.037 263.199 150.828 261.867C150.346 258.807 149.864 255.747 149.411 252.88H156.589ZM151.035 265.845H147.021L144.847 252.88H148.992C149.626 256.887 150.328 261.346 151.035 265.845ZM151.523 268.955C152.135 272.852 152.737 276.695 153.289 280.218H149.433L147.544 268.955H151.523ZM170.823 280.218L171.197 268.955H175.303L174.341 280.218H170.823ZM171.835 249.771L172.234 237.763H177.969L176.943 249.771H171.835ZM146.559 237.763C146.724 238.632 147.483 243.356 148.5 249.771H144.326L142.312 237.763H146.559ZM177.97 280.218H174.756L175.719 268.955H179.292L177.97 280.218ZM181.542 249.771H177.357L178.383 237.763H182.952L181.542 249.771Z" fill="#5274B8"/>
<path d="M447.412 0H443.408V86.0947H447.412V0Z" fill="#3E629B"/>
<path d="M385.322 0.723471V86.157C385.322 86.189 385.348 86.2151 385.38 86.2151H442.742C442.774 86.2151 442.8 86.189 442.8 86.157V0.723471C442.8 0.69141 442.774 0.666028 442.742 0.666028H385.38C385.348 0.66536 385.322 0.69141 385.322 0.723471Z" fill="#5274B8"/>
<path d="M443.412 86.8809H384.718C384.686 86.8809 384.66 86.8549 384.66 86.8228V0.0581102C384.66 0.0260494 384.686 0 384.718 0H443.412C443.444 0 443.47 0.0260494 443.47 0.0581102V86.8228C443.47 86.8549 443.444 86.8809 443.412 86.8809ZM386.049 85.549H442.08C442.112 85.549 442.137 85.523 442.137 85.4909V1.38997C442.137 1.35791 442.111 1.33186 442.08 1.33186H386.049C386.017 1.33186 385.992 1.35791 385.992 1.38997V85.4916C385.992 85.523 386.017 85.549 386.049 85.549Z" fill="#5274B8"/>
<path d="M391.109 6.0008V80.8221C391.109 80.8542 391.135 80.8803 391.167 80.8803H437.056C437.088 80.8803 437.114 80.8542 437.114 80.8221V6.0008C437.114 5.96874 437.088 5.94336 437.056 5.94336H391.167C391.135 5.94336 391.109 5.96874 391.109 6.0008Z" fill="white"/>
<path d="M426.933 57.4646H401.187C401.163 57.4646 401.145 57.4452 401.145 57.4219V27.2312C401.145 27.2072 401.164 27.1885 401.187 27.1885H426.932C426.956 27.1885 426.975 27.2078 426.975 27.2312V57.4212C426.976 57.4452 426.956 57.4646 426.933 57.4646Z" fill="#5274B8"/>
<path d="M424.932 53.7589C424.966 53.8564 423.691 54.4148 421.265 54.1303C420.071 53.968 418.584 53.5385 417.142 52.4825C415.732 51.4258 414.392 49.7219 413.939 47.4443C413.468 45.1846 414.223 42.3673 416.389 40.5572C416.927 40.1083 417.552 39.729 418.246 39.4685C418.984 39.1946 419.78 39.1044 420.57 39.2006C421.356 39.2968 422.189 39.57 422.893 40.2152C423.605 40.8611 423.995 41.9512 423.81 42.9217C423.641 43.9015 423.108 44.6516 422.534 45.2448C421.942 45.8492 421.272 46.2954 420.588 46.6781C419.199 47.4456 417.611 47.9265 415.946 48.004C414.289 48.0835 412.537 47.7435 410.999 46.8779C409.475 46.0222 408.173 44.7251 407.358 43.104C406.532 41.5017 406.269 39.5573 406.705 37.8187C407.123 36.086 408.108 34.5371 409.49 33.4637C410.184 32.926 410.969 32.5293 411.826 32.2848C412.689 32.0637 413.578 32.0223 414.455 32.2027C415.322 32.385 416.209 32.8118 416.841 33.5492C417.482 34.2799 417.768 35.2338 417.776 36.0994C417.79 36.9697 417.552 37.8187 417.154 38.5287C416.762 39.2407 416.235 39.8185 415.681 40.2994C414.563 41.2452 413.309 41.8684 412.021 42.2437C410.735 42.6138 409.415 42.7113 408.171 42.541C406.932 42.366 405.764 41.9098 404.821 41.2572C402.917 39.9654 401.817 38.0023 401.621 36.1882C401.405 34.3414 402.081 32.8265 402.806 31.8427C403.553 30.8394 404.41 30.3258 404.999 30.0907C405.602 29.8622 405.946 29.8702 405.962 29.9277C405.987 30.0098 405.689 30.1428 405.199 30.4694C404.72 30.802 404.042 31.3631 403.494 32.3022C402.957 33.2233 402.515 34.5591 402.796 36.0146C403.051 37.464 404.042 39.0223 405.641 39.9988C407.206 40.9934 409.402 41.2492 411.51 40.5579C412.555 40.2212 413.596 39.6575 414.447 38.896C415.292 38.1386 415.867 37.1634 415.819 36.1442C415.792 35.1215 415.148 34.4008 414.051 34.1911C413.517 34.0869 412.918 34.1203 412.363 34.2706C411.812 34.4389 411.251 34.7201 410.769 35.1055C409.794 35.8723 409.057 37.0358 408.76 38.3076C408.454 39.578 408.636 40.9246 409.253 42.1462C409.86 43.3645 410.871 44.3785 412.032 45.035C413.188 45.6936 414.533 45.9741 415.856 45.9247C417.181 45.8773 418.482 45.5033 419.616 44.8968C420.19 44.5868 420.718 44.2375 421.117 43.8388C421.526 43.4393 421.81 42.9831 421.879 42.5977C421.953 42.2077 421.834 41.869 421.571 41.5992C421.294 41.3247 420.823 41.1176 420.327 41.0515C419.828 40.9753 419.312 41.0227 418.863 41.1757C418.369 41.3447 417.908 41.6032 417.498 41.9231C416.679 42.5657 416.064 43.4453 415.719 44.3744C415.368 45.3062 415.286 46.2707 415.42 47.1898C415.693 49.0366 416.733 50.5655 417.881 51.5501C419.051 52.5399 420.344 53.0496 421.419 53.3161C423.603 53.8264 424.915 53.5746 424.932 53.7589Z" fill="#FCB86A"/>
<path d="M54.4878 8.08716H2.60733V83.2852H54.4878V8.08716Z" fill="#3E629B"/>
<path d="M51.8922 8.08691H0.0117188V83.285H51.8922V8.08691Z" fill="#5274B8"/>
<path d="M45.4457 16.2322H6.45705V75.1413H45.4457V16.2322Z" fill="white"/>
<path d="M45.4486 75.1407C45.4486 75.1407 45.4433 75.0411 45.4406 74.8528C45.4386 74.6584 45.4366 74.3805 45.4333 74.0172C45.4299 73.2771 45.4246 72.1931 45.4179 70.7864C45.4099 67.963 45.3979 63.8486 45.3832 58.6514C45.3678 48.2636 45.3458 33.5537 45.3197 16.2315L45.4493 16.3611C33.5374 16.3644 20.3383 16.3684 6.46532 16.3731H6.46065L6.60158 16.2322C6.59089 38.455 6.58087 58.9453 6.57286 75.1413L6.46065 75.0291C18.3345 75.0538 28.067 75.0739 34.8392 75.0886C38.2269 75.1012 40.8726 75.1106 42.6794 75.1173C43.5778 75.1226 44.2657 75.1266 44.7373 75.13C45.2028 75.1326 45.4486 75.1407 45.4486 75.1407C45.4486 75.1407 45.2189 75.1487 44.7607 75.1527C44.2938 75.1554 43.6125 75.16 42.7235 75.1654C40.9221 75.1721 38.2851 75.1814 34.908 75.1941C28.1184 75.2081 18.3619 75.2282 6.45931 75.2535H6.3471V75.1407C6.33908 58.9446 6.32906 38.4544 6.31837 16.2315V16.0906H6.45931H6.46399C20.337 16.0946 33.536 16.0986 45.448 16.1019H45.5776V16.2315C45.5515 33.5885 45.5295 48.3278 45.5141 58.7362C45.4994 63.9207 45.4874 68.0252 45.4794 70.8418C45.4727 72.2378 45.4673 73.3125 45.464 74.0473C45.4607 74.4039 45.458 74.6771 45.4567 74.8681C45.454 75.0512 45.4486 75.1407 45.4486 75.1407Z" fill="#E0E0E0"/>
<path d="M52.0345 8.08682C52.0645 8.11019 51.7125 8.6245 51.11 9.4307C50.5076 10.2362 49.6519 11.333 48.6761 12.5179C47.6996 13.7035 46.7872 14.7528 46.1119 15.4989C45.4366 16.245 44.9991 16.6891 44.9704 16.6638C44.9403 16.6377 45.3244 16.1475 45.9603 15.3686C46.6556 14.525 47.5119 13.4864 48.4583 12.3382C49.4035 11.1894 50.2584 10.1507 50.9538 9.30646C51.5956 8.53366 52.0037 8.06277 52.0345 8.08682Z" fill="#E0E0E0"/>
<path d="M45.6445 74.9521C47.5809 78.0313 49.8672 80.8908 52.4448 83.457L45.6445 74.9521Z" fill="white"/>
<path d="M52.4431 83.4567C52.4177 83.4827 51.9548 83.0813 51.2575 82.378C50.5602 81.676 49.6364 80.6647 48.6926 79.4851C47.7488 78.3042 46.966 77.1801 46.4343 76.3458C45.902 75.5109 45.6121 74.9712 45.6428 74.9519C45.6782 74.9298 46.0269 75.4314 46.5993 76.2336C47.1711 77.0365 47.9746 78.1346 48.9131 79.3088C49.8515 80.4817 50.7459 81.507 51.4031 82.2417C52.0597 82.9758 52.4718 83.4273 52.4431 83.4567Z" fill="#E0E0E0"/>
<path d="M0.00390625 83.2254C2.26887 80.4308 4.53451 77.6361 6.79947 74.8408L0.00390625 83.2254Z" fill="white"/>
<path d="M6.79738 74.8418C6.85816 74.8906 5.38537 76.8075 3.50914 79.1226C1.63224 81.4383 0.0619306 83.2751 0.00181646 83.2257C-0.0589656 83.1769 1.41316 81.26 3.29006 78.9442C5.16695 76.6299 6.73727 74.7924 6.79738 74.8418Z" fill="#E0E0E0"/>
<path d="M0.00588419 8.0869C0.0666662 8.03881 1.54414 9.80416 3.30414 12.0297C5.06482 14.2559 6.44277 16.0994 6.38132 16.1482C6.32054 16.1963 4.84373 14.4316 3.08306 12.2047C1.32238 9.97916 -0.0555658 8.13566 0.00588419 8.0869Z" fill="#E0E0E0"/>
<path d="M33.2969 28.1924H20.2421V65.2594H33.2969V28.1924Z" fill="#FCB86A"/>
<path d="M451.339 286.179C451.339 286.275 352.148 286.352 229.82 286.352C107.448 286.352 8.27905 286.274 8.27905 286.179C8.27905 286.082 107.448 286.005 229.82 286.005C352.148 286.005 451.339 286.083 451.339 286.179Z" fill="#263238"/>
<path d="M299.805 164.18H97.708C95.2273 164.18 93.2168 162.169 93.2168 159.689V5.82096C93.2168 3.34025 95.2279 1.3291 97.708 1.3291H299.805C302.286 1.3291 304.297 3.34025 304.297 5.82096V159.688C304.297 162.169 302.286 164.18 299.805 164.18Z" fill="#3B55A5"/>
<path opacity="0.9" d="M299.805 164.18H97.708C95.2273 164.18 93.2168 162.169 93.2168 159.689V5.82096C93.2168 3.34025 95.2279 1.3291 97.708 1.3291H299.805C302.286 1.3291 304.297 3.34025 304.297 5.82096V159.688C304.297 162.169 302.286 164.18 299.805 164.18Z" fill="white"/>
<path d="M284.473 56.0194H241.081C239.965 56.0194 239.061 55.115 239.061 53.9989V35.8418C239.061 34.7257 239.965 33.8213 241.081 33.8213H284.473C285.589 33.8213 286.493 34.7257 286.493 35.8418V53.9989C286.493 55.115 285.588 56.0194 284.473 56.0194Z" fill="white"/>
<path d="M277.067 38.7285H249.055V40.5092H277.067V38.7285Z" fill="#5274B8"/>
<path d="M280.558 44.3564H244.281V46.1372H280.558V44.3564Z" fill="#FCB86A"/>
<path d="M262.211 49.0938H244.281V50.8745H262.211V49.0938Z" fill="#FCB86A"/>
<path d="M246.727 39.6192C246.727 40.2951 246.179 40.8428 245.503 40.8428C244.827 40.8428 244.279 40.2951 244.279 39.6192C244.279 38.9432 244.827 38.3955 245.503 38.3955C246.179 38.3955 246.727 38.9432 246.727 39.6192Z" fill="#5274B8"/>
<path d="M304.298 10.8024H93.1719V4.11366C93.1719 2.32092 94.6246 0.868164 96.4174 0.868164H301.706C303.138 0.868164 304.298 2.02837 304.298 3.45975V10.8024Z" fill="#5274B8"/>
<path d="M299.26 5.83528C299.26 7.00083 298.315 7.94596 297.15 7.94596C295.984 7.94596 295.039 7.00083 295.039 5.83528C295.039 4.66974 295.984 3.72461 297.15 3.72461C298.315 3.72394 299.26 4.66907 299.26 5.83528Z" fill="white"/>
<path d="M293.262 5.83528C293.262 7.00083 292.317 7.94596 291.152 7.94596C289.986 7.94596 289.041 7.00083 289.041 5.83528C289.041 4.66974 289.986 3.72461 291.152 3.72461C292.317 3.72461 293.262 4.66907 293.262 5.83528Z" fill="white"/>
<path d="M287.262 5.83528C287.262 7.00083 286.317 7.94596 285.152 7.94596C283.986 7.94596 283.041 7.00083 283.041 5.83528C283.041 4.66974 283.986 3.72461 285.152 3.72461C286.318 3.72394 287.262 4.66907 287.262 5.83528Z" fill="white"/>
<path d="M162.253 23.209H103.248V157.675H162.253V23.209Z" stroke="#5274B8" stroke-miterlimit="10"/>
<path d="M226.876 23.209H167.871V157.675H226.876V23.209Z" stroke="#5274B8" stroke-miterlimit="10"/>
<path d="M291.501 23.209H232.496V157.675H291.501V23.209Z" stroke="#5274B8" stroke-miterlimit="10"/>
<path d="M154.087 54.577H110.696C109.58 54.577 108.676 53.6727 108.676 52.5565V34.3994C108.676 33.2833 109.58 32.3789 110.696 32.3789H154.087C155.203 32.3789 156.108 33.2833 156.108 34.3994V52.5565C156.108 53.6727 155.203 54.577 154.087 54.577Z" fill="white"/>
<path d="M146.682 37.2861H118.67V39.0668H146.682V37.2861Z" fill="#5274B8"/>
<path d="M150.171 42.9131H113.895V44.6938H150.171V42.9131Z" fill="#FCB86A"/>
<path d="M131.824 47.6504H113.895V49.4311H131.824V47.6504Z" fill="#FCB86A"/>
<path d="M116.342 38.1768C116.342 38.8527 115.794 39.4004 115.118 39.4004C114.442 39.4004 113.895 38.8527 113.895 38.1768C113.895 37.5008 114.442 36.9531 115.118 36.9531C115.794 36.9538 116.342 37.5015 116.342 38.1768Z" fill="#5274B8"/>
<path d="M154.087 138.318H110.696C109.58 138.318 108.676 137.414 108.676 136.298V118.141C108.676 117.024 109.58 116.12 110.696 116.12H154.087C155.203 116.12 156.108 117.024 156.108 118.141V136.298C156.108 137.414 155.203 138.318 154.087 138.318Z" fill="white"/>
<path d="M146.682 121.027H118.67V122.808H146.682V121.027Z" fill="#5274B8"/>
<path d="M150.171 126.655H113.895V128.436H150.171V126.655Z" fill="#FCB86A"/>
<path d="M131.824 131.392H113.895V133.172H131.824V131.392Z" fill="#FCB86A"/>
<path d="M116.342 121.918C116.342 122.594 115.794 123.142 115.118 123.142C114.442 123.142 113.895 122.594 113.895 121.918C113.895 121.242 114.442 120.694 115.118 120.694C115.794 120.694 116.342 121.242 116.342 121.918Z" fill="#5274B8"/>
<path d="M219.068 102.547H175.677C174.561 102.547 173.656 101.642 173.656 100.526V73.6504C173.656 72.5343 174.561 71.6299 175.677 71.6299H219.068C220.185 71.6299 221.089 72.5343 221.089 73.6504V100.526C221.089 101.642 220.184 102.547 219.068 102.547Z" fill="white"/>
<path d="M211.662 76.5381H183.65V78.3188H211.662V76.5381Z" fill="#5274B8"/>
<path d="M181.322 77.4287C181.322 78.1047 180.775 78.6524 180.099 78.6524C179.423 78.6524 178.875 78.1047 178.875 77.4287C178.875 76.7528 179.423 76.2051 180.099 76.2051C180.775 76.2051 181.322 76.7528 181.322 77.4287Z" fill="#5274B8"/>
<path d="M219.068 66.2204H175.677C174.561 66.2204 173.656 65.316 173.656 64.1999V37.3242C173.656 36.2081 174.561 35.3037 175.677 35.3037H219.068C220.185 35.3037 221.089 36.2081 221.089 37.3242V64.1999C221.089 65.316 220.184 66.2204 219.068 66.2204Z" fill="white"/>
<path d="M211.662 40.2109H183.65V41.9917H211.662V40.2109Z" fill="#5274B8"/>
<path d="M181.322 41.1026C181.322 41.7785 180.775 42.3262 180.099 42.3262C179.423 42.3262 178.875 41.7785 178.875 41.1026C178.875 40.4266 179.423 39.8789 180.099 39.8789C180.775 39.8789 181.322 40.4266 181.322 41.1026Z" fill="#5274B8"/>
<path d="M195.765 46.1377H180.223V61.6799H195.765V46.1377Z" fill="#5274B8"/>
<path opacity="0.4" d="M195.765 46.1377H180.223V61.6799H195.765V46.1377Z" fill="white"/>
<path d="M194.874 47.0283H181.113V60.7891H194.874V47.0283Z" fill="#5274B8"/>
<path d="M194.874 47.0283H181.113V60.7891H194.874V47.0283Z" fill="white"/>
<path d="M181.113 60.7885L185.787 54.572L188.881 56.6894L192.612 52.5615L194.874 54.6749V60.7885H181.113Z" fill="#5274B8"/>
<path d="M189.7 50.3381C189.7 51.2798 188.936 52.0433 187.994 52.0433C187.053 52.0433 186.289 51.2798 186.289 50.3381C186.289 49.3963 187.053 48.6328 187.994 48.6328C188.936 48.6328 189.7 49.3963 189.7 50.3381Z" fill="#FCB86A"/>
<path d="M217.002 52.1279H199.072V53.9086H217.002V52.1279Z" fill="#FCB86A"/>
<path d="M206.895 56.9602H199.072V58.7409H206.895V56.9602Z" fill="#FCB86A"/>
<path d="M217.002 47.2949H199.072V49.0756H217.002V47.2949Z" fill="#FCB86A"/>
<path d="M195.766 89.8314L198.797 81.5049C199.926 81.9157 200.959 82.5522 201.835 83.3751C202.711 84.198 203.409 85.1906 203.89 86.292L195.766 89.8314Z" fill="#5274B8"/>
<path d="M195.766 89.8314L198.797 81.5049C199.926 81.9157 200.959 82.5522 201.835 83.3751C202.711 84.198 203.409 85.1906 203.89 86.292L195.766 89.8314Z" fill="black"/>
<path d="M195.765 89.8315L198.347 98.3076C197.51 98.5628 196.64 98.6923 195.765 98.6923C190.905 98.6923 186.904 94.6928 186.904 89.8315C186.904 84.971 190.904 80.9707 195.765 80.9707C196.784 80.9707 197.796 81.1464 198.756 81.491L195.765 89.8315Z" fill="#5274B8"/>
<path d="M195.766 89.8317L203.906 86.3311C204.381 87.4372 204.626 88.6281 204.626 89.8317C204.626 93.7071 202.084 97.1536 198.382 98.2978L195.766 89.8317Z" fill="#5274B8"/>
<path d="M195.766 89.8317L203.906 86.3311C204.381 87.4372 204.626 88.6281 204.626 89.8317C204.626 93.7071 202.084 97.1536 198.382 98.2978L195.766 89.8317Z" fill="#FCB86A"/>
<path d="M253.186 63.1602H240.82V75.5256H253.186V63.1602Z" fill="#5274B8"/>
<path d="M188.676 109.346H176.311V121.711H188.676V109.346Z" fill="#5274B8"/>
<path d="M203.647 109.346H191.281V121.711H203.647V109.346Z" fill="#FCB86A"/>
<path d="M219.24 109.346H206.875V121.711H219.24V109.346Z" fill="black"/>
<path d="M188.744 125.296H176.379V137.661H188.744V125.296Z" fill="white"/>
<path d="M269.244 63.1602H256.879V75.5256H269.244V63.1602Z" fill="#FCB86A"/>
<path d="M370.045 226.07H362.584V265.981H370.045V226.07Z" fill="#E0E0E0"/>
<path d="M339.621 219.642C339.743 219.642 362.585 226.81 362.585 226.81H370.046L396.233 219.642H339.621Z" fill="#E0E0E0"/>
<path d="M334.625 280.139C334.625 280.139 338.077 269.598 342.837 267.049C350.486 262.952 368.113 260.99 368.113 260.99L370.046 265.979C370.046 265.979 346.536 266.904 342.837 271.647C339.421 276.028 336.934 280.139 336.934 280.139H334.625V280.139Z" fill="#E0E0E0"/>
<path d="M341.072 284.879C343.021 282.929 343.021 279.768 341.072 277.818C339.122 275.868 335.96 275.868 334.011 277.818C332.061 279.768 332.061 282.929 334.011 284.879C335.96 286.828 339.122 286.828 341.072 284.879Z" fill="#263238"/>
<path d="M398.348 279.934C398.348 279.934 394.896 269.393 390.136 266.844C382.487 262.746 364.86 260.785 364.86 260.785L362.928 265.774C362.928 265.774 386.438 266.699 390.137 271.442C393.553 275.823 396.039 279.934 396.039 279.934H398.348V279.934Z" fill="#E0E0E0"/>
<path d="M391.598 281.267C391.598 284.025 393.833 286.26 396.59 286.26C399.348 286.26 401.583 284.025 401.583 281.267C401.583 278.51 399.348 276.275 396.59 276.275C393.833 276.275 391.598 278.51 391.598 281.267Z" fill="#263238"/>
<path d="M363.744 263.668L364.838 277.23L367.921 277.839V263.668" fill="#E0E0E0"/>
<path d="M370.821 283.529C372.012 281.042 370.961 278.061 368.474 276.87C365.987 275.679 363.006 276.729 361.815 279.216C360.624 281.703 361.674 284.685 364.161 285.876C366.648 287.067 369.63 286.016 370.821 283.529Z" fill="#263238"/>
<path d="M369.872 226.968C369.872 227.055 368.28 227.126 366.316 227.126C364.351 227.126 362.76 227.056 362.76 226.968C362.76 226.882 364.351 226.811 366.316 226.811C368.28 226.811 369.872 226.881 369.872 226.968Z" fill="#263238"/>
<path d="M370.012 261.839C370.064 261.895 368.547 262.784 366.442 262.827C364.337 262.894 362.777 262.085 362.825 262.026C362.855 261.929 364.411 262.579 366.434 262.512C368.458 262.473 369.978 261.743 370.012 261.839Z" fill="#263238"/>
<path d="M359.685 111.018H395.279C403.772 111.018 410.657 117.903 410.657 126.396V204.149C410.657 208.395 407.215 211.837 402.969 211.837H351.995C347.749 211.837 344.307 208.395 344.307 204.149V126.396C344.307 117.903 351.192 111.018 359.685 111.018Z" fill="#455B64"/>
<path d="M335.573 219.642H406.628C408.854 219.642 410.66 217.837 410.66 215.61V214.119C410.66 211.892 408.854 210.086 406.628 210.086H335.573C333.346 210.086 331.541 211.892 331.541 214.119V215.61C331.541 217.837 333.346 219.642 335.573 219.642Z" fill="#455B64"/>
<path d="M342.898 210.035C342.898 209.939 357.498 209.862 375.504 209.862C393.515 209.862 408.112 209.94 408.112 210.035C408.112 210.131 393.516 210.209 375.504 210.209C357.498 210.209 342.898 210.131 342.898 210.035Z" fill="#263238"/>
<path d="M324.923 260.711L328.657 274.517C328.657 274.517 316.267 283.056 316.715 285.677L343.002 279.192L338.043 257.436L324.923 260.711Z" fill="black"/>
<path d="M336.484 271.338C337.026 271.355 337.515 271.857 337.52 272.414C337.525 272.972 337.034 273.488 336.491 273.48C335.949 273.472 335.344 272.889 335.4 272.334C335.455 271.779 336.065 271.206 336.59 271.347" fill="#E0E0E0"/>
<path d="M342.974 279.192L342.391 277.019L317.405 284.048C317.405 284.048 316.357 284.861 316.687 285.676L342.974 279.192Z" fill="black"/>
<path d="M328.192 274.484C328.228 274.615 328.883 274.517 329.614 274.785C330.351 275.034 330.81 275.526 330.916 275.444C331.028 275.39 330.653 274.648 329.763 274.338C328.876 274.021 328.136 274.37 328.192 274.484Z" fill="white"/>
<path d="M325.715 276.335C325.715 276.47 326.324 276.557 326.89 277.008C327.469 277.441 327.72 278.019 327.847 277.98C327.972 277.972 327.881 277.177 327.166 276.63C326.457 276.077 325.689 276.208 325.715 276.335Z" fill="white"/>
<path d="M324.95 280.116C325.073 280.115 325.097 279.411 324.6 278.77C324.105 278.124 323.434 277.988 323.405 278.112C323.358 278.238 323.838 278.53 324.24 279.064C324.653 279.586 324.819 280.134 324.95 280.116Z" fill="white"/>
<path d="M327.679 271.239C327.762 271.346 328.308 271.019 329.045 270.891C329.78 270.747 330.403 270.858 330.444 270.728C330.496 270.615 329.831 270.262 328.965 270.426C328.097 270.583 327.593 271.151 327.679 271.239Z" fill="white"/>
<path d="M348.052 269.462L345.277 286.563L339.29 299.437C338.859 300.365 339.282 301.475 340.212 301.854C340.732 302.067 341.316 302.01 341.785 301.696C344.774 299.699 355.513 292.116 355.739 291.217C356.096 289.792 359.958 273.193 359.958 273.193L348.052 269.462Z" fill="black"/>
<path d="M340.215 301.854L356.084 289.881L355.95 290.602C355.752 291.325 355.51 291.789 355.029 292.187C353.742 293.251 350.126 296.112 341.838 301.706C341.356 302.032 340.744 302.088 340.215 301.854Z" fill="black"/>
<g opacity="0.6">
<path d="M353.716 283.721C353.246 283.935 352.991 284.554 353.179 285.045C353.368 285.537 353.978 285.809 354.451 285.604C354.923 285.398 355.252 284.665 355.012 284.199C354.771 283.732 354.038 283.453 353.627 283.769" fill="white"/>
</g>
<path d="M345.384 295.154C345.281 295.182 345.073 294.217 344.177 293.545C343.3 292.845 342.341 292.905 342.34 292.796C342.333 292.751 342.568 292.66 342.965 292.68C343.36 292.696 343.909 292.862 344.4 293.24C344.888 293.619 345.195 294.117 345.32 294.503C345.448 294.891 345.427 295.148 345.384 295.154Z" fill="white"/>
<path d="M343.783 297.204C343.69 297.262 343.261 296.604 342.451 296.184C341.651 295.746 340.881 295.764 340.874 295.653C340.842 295.557 341.706 295.352 342.622 295.847C343.542 296.331 343.877 297.174 343.783 297.204Z" fill="white"/>
<path d="M348.117 292.662C348.024 292.727 347.369 291.712 346.166 290.946C344.973 290.16 343.8 289.99 343.818 289.876C343.808 289.78 345.082 289.784 346.363 290.624C347.652 291.45 348.205 292.63 348.117 292.662Z" fill="white"/>
<path d="M349.384 287.535C349.321 287.628 348.479 287.056 347.296 286.779C346.117 286.485 345.116 286.61 345.1 286.498C345.07 286.406 346.114 286.095 347.381 286.408C348.652 286.709 349.451 287.466 349.384 287.535Z" fill="white"/>
<path d="M350.31 282.537C350.24 282.625 349.425 281.877 348.157 281.69C346.893 281.473 345.897 281.933 345.857 281.827C345.836 281.786 346.056 281.607 346.481 281.455C346.901 281.302 347.533 281.206 348.215 281.314C348.896 281.424 349.469 281.712 349.825 281.988C350.184 282.265 350.341 282.505 350.31 282.537Z" fill="white"/>
<path d="M348.382 280.743C348.361 280.739 348.366 280.503 348.479 280.094C348.592 279.689 348.821 279.105 349.29 278.505C349.527 278.223 349.788 277.854 350.293 277.719C350.543 277.651 350.878 277.762 351.032 278.026C351.186 278.283 351.196 278.575 351.152 278.846C350.935 279.923 349.839 280.792 348.628 280.716C347.416 280.618 346.469 279.71 346.172 278.685C346.114 278.423 346.098 278.113 346.28 277.85C346.459 277.584 346.818 277.535 347.047 277.623C347.525 277.795 347.781 278.147 348.03 278.42C348.513 279.004 348.775 279.569 348.915 279.964C349.056 280.362 349.081 280.597 349.06 280.602C348.994 280.635 348.797 279.684 347.835 278.599C347.589 278.344 347.309 278.029 346.962 277.926C346.793 277.874 346.631 277.916 346.543 278.047C346.454 278.171 346.449 278.393 346.504 278.6C346.759 279.441 347.626 280.269 348.652 280.336C349.672 280.411 350.634 279.646 350.817 278.78C350.858 278.571 350.843 278.35 350.757 278.204C350.672 278.06 350.515 277.994 350.351 278.029C350.004 278.099 349.722 278.415 349.49 278.677C348.56 279.792 348.453 280.774 348.382 280.743Z" fill="white"/>
<path d="M342.051 188.118C337.043 190.803 317.524 202.057 312.287 205.468C308.452 207.967 306.092 214.736 307.314 218.96C312.386 236.492 326.799 272.082 326.799 272.082L343.409 269.99L331.803 220.317L355.262 209.286L378.165 186.547L342.051 188.118Z" fill="black"/>
<path d="M369.465 189.178C369.465 189.178 348.609 213.572 348.173 218.598C347.586 225.368 342.051 285.24 342.051 285.24L359.44 287.861L372.795 226.051L389.128 207.019L391.207 196.48L388.92 185.395L369.465 189.178Z" fill="black"/>
<path d="M363.809 196.48C363.814 196.484 363.767 196.552 363.673 196.681C363.565 196.823 363.423 197.012 363.243 197.251C362.848 197.764 362.287 198.494 361.571 199.425C360.118 201.312 358.005 204.035 355.438 207.432C354.155 209.131 352.754 210.995 351.297 213.029C350.576 214.049 349.816 215.101 349.133 216.233C348.77 216.779 348.662 217.42 348.532 218.098C348.403 218.766 348.316 219.456 348.221 220.15C347.549 225.731 347.127 231.913 346.586 238.387C346.31 241.626 346.041 244.787 345.781 247.841C345.487 250.891 345.204 253.833 344.934 256.637C344.387 262.239 343.894 267.284 343.479 271.529C343.053 275.751 342.709 279.175 342.468 281.565C342.343 282.734 342.245 283.648 342.176 284.292C342.14 284.589 342.112 284.823 342.091 285C342.07 285.16 342.056 285.24 342.05 285.24C342.044 285.239 342.046 285.157 342.056 284.996C342.068 284.818 342.085 284.582 342.106 284.284C342.159 283.639 342.236 282.722 342.333 281.551C342.547 279.158 342.854 275.731 343.234 271.504C343.627 267.258 344.095 262.21 344.614 256.607C344.878 253.803 345.155 250.861 345.441 247.811C345.699 244.757 345.966 241.596 346.239 238.358C346.78 231.883 347.211 225.707 347.903 220.108C348 219.409 348.09 218.718 348.223 218.04C348.277 217.7 348.362 217.363 348.448 217.029C348.536 216.698 348.683 216.342 348.868 216.076C349.569 214.927 350.333 213.881 351.061 212.86C352.532 210.831 353.944 208.973 355.241 207.283C357.834 203.903 359.977 201.204 361.462 199.341C362.2 198.427 362.779 197.712 363.186 197.207C363.377 196.978 363.528 196.796 363.642 196.659C363.749 196.537 363.805 196.476 363.809 196.48Z" fill="#455B64"/>
<path d="M325.772 214.864C325.838 214.794 327.345 216.109 329.139 217.798C330.934 219.49 332.335 220.916 332.269 220.987C332.203 221.057 330.696 219.743 328.901 218.052C327.107 216.362 325.706 214.934 325.772 214.864Z" fill="#455B64"/>
<path d="M343.207 188.068L365.097 125.783L368.064 122.122L384.51 119.994L387.313 127.871L378.165 188.561L343.207 188.068Z" fill="#FAFBFB"/>
<path d="M363.086 173.714C363.074 173.714 363.07 173.578 363.074 173.319C363.082 173.022 363.094 172.648 363.107 172.187C363.119 171.694 363.161 171.095 363.215 170.398C363.261 169.701 363.328 168.908 363.425 168.034C363.772 164.533 364.519 159.726 365.593 154.47C366.671 149.213 367.83 144.496 368.708 141.094C369.147 139.392 369.516 138.019 369.78 137.072C369.907 136.629 370.01 136.269 370.092 135.984C370.167 135.736 370.213 135.608 370.224 135.611C370.235 135.614 370.213 135.748 370.16 136.001C370.094 136.291 370.012 136.656 369.911 137.105C369.672 138.107 369.346 139.478 368.947 141.152C368.13 144.569 367.01 149.291 365.933 154.54C364.86 159.788 364.078 164.576 363.67 168.062C363.557 168.932 363.473 169.721 363.408 170.415C363.336 171.109 363.275 171.706 363.243 172.196C363.203 172.654 363.17 173.028 363.144 173.323C363.117 173.58 363.098 173.715 363.086 173.714Z" fill="#263238"/>
<path d="M342.74 178.993C342.74 178.349 349.551 128.385 349.551 128.385L351.655 125.178C352.26 124.257 353.288 123.702 354.389 123.702H364.733L367.967 121.196L368.106 122.704L364.733 133.683L350.868 179.095L342.74 178.993Z" fill="black"/>
<path d="M375.874 177.791C375.874 176.502 374.666 166.953 375.478 159.36C376.077 153.757 377.684 144.165 378.881 137.348C379.792 132.162 381.392 127.124 383.642 122.364L385.014 119.461L387.874 124.018L400.238 128.911L395.575 177.791H375.874Z" fill="black"/>
<path d="M377.162 176.967L379.419 211.373L407.033 203.787L400.236 179.237" fill="black"/>
<path d="M400.236 179.238C400.24 179.237 400.256 179.275 400.281 179.35C400.31 179.441 400.345 179.551 400.388 179.69C400.483 180.01 400.614 180.452 400.781 181.016C401.119 182.2 401.605 183.897 402.217 186.036C403.433 190.372 405.152 196.498 407.185 203.746L407.228 203.897L407.075 203.94C401.616 205.444 395.445 207.146 388.931 208.941C385.667 209.836 382.488 210.708 379.464 211.537L379.263 211.593L379.25 211.385C378.628 201.538 378.086 192.943 377.696 186.784C377.517 183.731 377.374 181.283 377.273 179.575C377.231 178.748 377.199 178.101 377.175 177.639C377.168 177.433 377.162 177.268 377.157 177.138C377.155 177.025 377.157 176.968 377.161 176.967C377.167 176.966 377.175 177.024 377.188 177.136C377.2 177.265 377.216 177.429 377.235 177.635C377.272 178.096 377.324 178.742 377.391 179.567C377.515 181.273 377.692 183.719 377.914 186.77C378.333 192.926 378.918 201.518 379.588 211.362L379.374 211.21C382.397 210.378 385.575 209.503 388.839 208.605C395.355 206.821 401.529 205.131 406.99 203.636L406.881 203.829C404.897 196.568 403.221 190.431 402.034 186.086C401.459 183.938 401.002 182.233 400.683 181.043C400.536 180.473 400.421 180.027 400.338 179.704C400.304 179.563 400.277 179.45 400.255 179.358C400.239 179.279 400.232 179.239 400.236 179.238Z" fill="#455B64"/>
<path d="M372.322 167.689L393.999 166.032L394.632 142.451L399.552 128.641C399.552 128.641 407.187 131.421 407.368 140.66C407.549 149.9 407.798 169.539 406.171 175.341C404.544 181.143 399.302 182.647 399.302 182.647L370.412 178.765L372.322 167.689Z" fill="black"/>
<path d="M351.979 124.685C351.979 124.685 347.744 130.964 344.129 138.27C340.514 145.576 328.043 165.454 328.404 169.266C328.766 173.079 333.284 180.169 333.284 180.169L344.129 179.095L342.604 166.979L358.01 136.556L351.979 124.685Z" fill="black"/>
<path d="M394.93 143.7C394.942 143.701 394.947 143.855 394.946 144.149C394.941 144.479 394.934 144.905 394.925 145.434C394.89 146.592 394.842 148.195 394.784 150.158C394.629 154.182 394.418 159.672 394.186 165.737C394.182 165.84 394.177 165.944 394.173 166.039L394.166 166.193L394.013 166.205C388.027 166.67 382.625 167.09 378.668 167.397C376.739 167.531 375.164 167.64 374.026 167.719C373.506 167.747 373.088 167.771 372.764 167.789C372.475 167.801 372.323 167.802 372.322 167.79C372.322 167.777 372.472 167.753 372.758 167.719C373.081 167.685 373.498 167.641 374.015 167.585C375.15 167.48 376.723 167.333 378.649 167.154C382.604 166.82 388.003 166.364 393.985 165.859L393.826 166.025C393.83 165.93 393.834 165.827 393.838 165.724C394.111 159.66 394.357 154.172 394.538 150.149C394.643 148.188 394.728 146.586 394.79 145.43C394.825 144.902 394.854 144.476 394.876 144.147C394.9 143.853 394.918 143.7 394.93 143.7Z" fill="#455B64"/>
<path d="M350.3 133.513C350.312 133.516 350.286 133.675 350.228 133.977C350.157 134.312 350.066 134.749 349.952 135.293C349.705 136.433 349.353 138.085 348.939 140.13C348.102 144.217 347.05 149.884 346.038 156.169C345.026 162.457 344.228 168.167 343.672 172.303C343.4 174.341 343.178 176.004 343.017 177.201C342.939 177.751 342.877 178.193 342.829 178.532C342.782 178.836 342.751 178.995 342.74 178.994C342.728 178.993 342.735 178.831 342.759 178.524C342.791 178.184 342.832 177.739 342.883 177.186C342.997 176.024 343.181 174.345 343.429 172.272C343.921 168.126 344.682 162.407 345.694 156.115C346.708 149.825 347.799 144.158 348.699 140.079C349.144 138.04 349.532 136.394 349.821 135.263C349.961 134.725 350.073 134.293 350.16 133.962C350.24 133.664 350.288 133.51 350.3 133.513Z" fill="#455B64"/>
<path d="M399.547 130.127C399.636 130.202 397.855 131.835 396.642 134.482C395.397 137.115 395.293 139.529 395.177 139.51C395.138 139.509 395.109 138.909 395.242 137.95C395.373 136.993 395.702 135.681 396.326 134.336C396.954 132.993 397.746 131.897 398.394 131.181C399.043 130.462 399.52 130.098 399.547 130.127Z" fill="#455B64"/>
<path d="M388.167 124.801C388.178 124.802 388.174 124.933 388.157 125.182C388.137 125.431 388.113 125.8 388.058 126.272C387.959 127.218 387.779 128.587 387.476 130.275C386.878 133.648 385.714 138.299 383.684 143.253L383.631 143.383L383.493 143.358C382.946 143.259 382.365 143.155 381.777 143.048C381.496 142.997 381.216 142.946 380.956 142.899L381.12 142.616C381.998 143.665 382.926 144.806 383.059 146.206C383.13 146.895 382.948 147.563 382.715 148.151C382.475 148.745 382.201 149.289 381.952 149.833C380.941 151.985 380.029 153.924 379.258 155.564C378.496 157.156 377.874 158.456 377.422 159.4C377.212 159.822 377.042 160.165 376.908 160.433C376.787 160.668 376.719 160.788 376.709 160.783C376.698 160.779 376.745 160.648 376.846 160.405C376.964 160.129 377.115 159.778 377.302 159.345C377.729 158.389 378.318 157.074 379.039 155.463C379.79 153.813 380.679 151.864 381.665 149.7C382.126 148.614 382.841 147.489 382.722 146.237C382.604 144.981 381.733 143.882 380.854 142.841L380.542 142.471L381.017 142.557C381.277 142.604 381.558 142.655 381.839 142.706C382.427 142.813 383.008 142.919 383.554 143.018L383.363 143.122C385.388 138.198 386.587 133.582 387.243 130.232C387.575 128.556 387.792 127.196 387.929 126.257C387.995 125.816 388.047 125.459 388.089 125.177C388.13 124.929 388.156 124.8 388.167 124.801Z" fill="#455B64"/>
<path d="M355.866 157.587C355.854 157.587 355.845 157.463 355.838 157.228C355.832 156.993 355.823 156.646 355.827 156.2C355.843 155.308 355.89 154.014 356.044 152.424C356.333 149.241 357.128 144.89 358.254 140.156C358.815 137.788 359.335 135.529 359.905 133.494C360.471 131.458 361.107 129.654 361.776 128.199C362.438 126.74 363.118 125.63 363.636 124.901C363.886 124.531 364.109 124.263 364.258 124.081C364.407 123.899 364.49 123.807 364.5 123.815C364.527 123.836 364.224 124.227 363.749 124.977C363.27 125.725 362.629 126.842 362.002 128.3C361.366 129.754 360.761 131.55 360.214 133.58C359.664 135.608 359.154 137.87 358.592 140.236C357.468 144.965 356.639 149.288 356.288 152.452C356.104 154.032 356.02 155.317 355.963 156.206C355.941 156.618 355.923 156.957 355.908 157.231C355.892 157.463 355.878 157.587 355.866 157.587Z" fill="#455B64"/>
<path d="M399.639 170.97C399.541 171.026 398.87 169.263 397.127 167.858C395.407 166.424 393.546 166.112 393.583 166.005C393.588 165.966 394.055 165.984 394.776 166.2C395.495 166.412 396.454 166.86 397.348 167.59C398.238 168.322 398.865 169.176 399.215 169.839C399.567 170.503 399.676 170.957 399.639 170.97Z" fill="#455B64"/>
<path d="M324.848 151.231C324.93 151.479 341.637 183.072 341.637 183.072H367.523L355.779 153.299C355.779 153.299 346.185 154.542 337.659 153.836C330.854 153.273 324.848 151.231 324.848 151.231Z" fill="#FAFBFB"/>
<path d="M324.848 151.232C324.841 151.228 324.898 151.239 324.99 151.266C325.095 151.296 325.23 151.335 325.402 151.384C325.781 151.49 326.319 151.64 327.013 151.833C328.428 152.206 330.516 152.725 333.21 153.174C338.588 154.146 346.467 154.221 355.761 153.15L355.878 153.137L355.921 153.245C359.268 161.711 363.218 171.703 367.432 182.366C367.518 182.582 367.603 182.798 367.686 183.01L367.78 183.248H367.525C358.234 183.242 349.438 183.236 341.638 183.231H341.543L341.499 183.147C336.548 173.719 332.367 165.755 329.414 160.134C327.962 157.333 326.811 155.116 326.016 153.585C325.635 152.834 325.34 152.251 325.132 151.842C324.93 151.441 324.844 151.215 324.848 151.232C324.913 151.347 325.001 151.504 325.178 151.818C325.395 152.222 325.705 152.796 326.105 153.538C326.918 155.059 328.095 157.262 329.581 160.045C332.56 165.652 336.78 173.595 341.776 182.998L341.637 182.915C349.437 182.91 358.234 182.904 367.524 182.898L367.362 183.136C367.279 182.924 367.193 182.708 367.108 182.492C362.91 171.823 358.974 161.826 355.641 153.354L355.8 153.448C346.473 154.492 338.574 154.373 333.181 153.346C330.482 152.871 328.398 152.324 326.988 151.921C326.284 151.718 325.748 151.547 325.388 151.429C325.218 151.369 325.085 151.323 324.983 151.287C324.89 151.256 324.856 151.234 324.848 151.232Z" fill="#263238"/>
<path d="M372.35 167.905L370.441 168.019C370.441 168.019 364.132 162.149 363.222 162.149C362.313 162.149 359.577 162.928 359.577 162.928L360.345 164.878C360.345 164.878 355.696 164.63 354.29 164.878C352.884 165.126 351.23 165.87 351.809 167.607C351.809 167.607 350.651 169.509 353.049 170.419C353.049 170.419 352.479 171.432 353.888 172.35C354.089 172.481 354.331 172.611 354.62 172.735C356.936 173.727 356.77 173.924 356.77 173.924C356.77 173.924 356.853 174.968 357.68 175.795C358.507 176.621 363.171 178.398 365.719 178.502C368.266 178.607 370.582 177.863 370.582 177.863L372.35 167.905Z" fill="#FDD7C6"/>
<path d="M365.696 164.863C365.693 164.959 364.466 165.035 362.954 165.031C361.442 165.029 360.215 164.948 360.213 164.852C360.211 164.756 361.438 164.681 362.955 164.684C364.472 164.687 365.699 164.767 365.696 164.863Z" fill="#F7996E"/>
<path d="M364.483 168.484C364.478 168.534 363.774 168.493 362.641 168.413C361.391 168.329 359.882 168.228 358.213 168.115C356.543 168.029 355.032 167.951 353.781 167.887C352.646 167.832 351.943 167.789 351.943 167.739C351.943 167.693 352.647 167.649 353.786 167.641C354.925 167.633 356.499 167.666 358.235 167.769C359.969 167.872 361.536 168.026 362.666 168.169C363.795 168.311 364.489 168.437 364.483 168.484Z" fill="#F7996E"/>
<path d="M361.834 171.809C361.82 171.904 359.785 171.694 357.288 171.341C354.791 170.988 352.778 170.624 352.791 170.529C352.804 170.434 354.84 170.643 357.337 170.997C359.834 171.35 361.847 171.713 361.834 171.809Z" fill="#F7996E"/>
<path d="M361.34 174.574C361.336 174.667 360.244 174.692 358.922 174.463C357.599 174.238 356.579 173.85 356.606 173.762C356.634 173.666 357.681 173.899 358.981 174.12C360.28 174.345 361.345 174.474 361.34 174.574Z" fill="#F7996E"/>
<path d="M334.69 177.035C334.69 177.035 334.525 174.228 336.261 173.976C338.017 173.72 343.797 173.256 342.411 177.028C342.411 177.028 346.762 176.472 347.175 177.96C347.589 179.449 346.759 179.791 346.759 179.791C346.759 179.791 348.111 180.923 346.759 181.911C345.434 182.879 343.903 183.074 343.903 183.074C343.903 183.074 345.096 184.198 344.035 184.81C343.161 185.315 337.832 187.622 336.261 182.329C334.69 177.035 334.69 177.035 334.69 177.035Z" fill="#FBBF9E"/>
<path d="M347.238 179.683C347.255 179.778 345.465 180.187 343.24 180.599C341.013 181.01 339.195 181.267 339.178 181.172C339.16 181.078 340.951 180.668 343.177 180.256C345.402 179.845 347.22 179.588 347.238 179.683Z" fill="#F7996E"/>
<path d="M337.639 177.308C337.633 177.212 338.802 177.059 340.252 176.965C341.701 176.87 342.881 176.872 342.887 176.968C342.893 177.063 341.724 177.218 340.274 177.312C338.825 177.406 337.645 177.405 337.639 177.308Z" fill="#F7996E"/>
<path d="M340.391 184.297C340.367 184.202 341.354 183.877 342.56 183.465C343.769 183.055 344.749 182.712 344.788 182.802C344.826 182.887 343.897 183.379 342.673 183.794C341.45 184.212 340.413 184.388 340.391 184.297Z" fill="#F7996E"/>
<g opacity="0.3">
<path d="M338.225 190.29L331.51 194.141L405.198 197.155L403.295 190.281L338.225 190.29Z" fill="black"/>
</g>
<path d="M370.418 134.521C370.349 134.525 370.55 133.815 370.117 132.847C370.006 132.619 369.857 132.345 369.65 132.18C369.445 132.008 369.185 132.103 368.95 132.352C368.478 132.86 368.015 133.499 367.641 134.219C367.4 134.676 367.213 135.142 367.069 135.587L366.961 135.922L366.769 135.631C366.037 134.525 365.7 133.404 365.573 132.608C365.444 131.807 365.489 131.323 365.521 131.323C365.569 131.32 365.599 131.797 365.782 132.566C365.964 133.331 366.331 134.394 367.048 135.444L366.748 135.488C366.891 135.022 367.083 134.535 367.333 134.058C367.725 133.306 368.206 132.658 368.725 132.125C368.864 131.992 369.025 131.864 369.237 131.81C369.451 131.752 369.687 131.83 369.828 131.954C370.111 132.207 370.229 132.49 370.343 132.751C370.553 133.28 370.568 133.748 370.537 134.056C370.507 134.366 370.437 134.526 370.418 134.521Z" fill="#263238"/>
<path d="M379.61 131.855C379.645 131.888 379.168 132.466 378.367 133.375C377.566 134.283 376.443 135.522 375.187 136.876C374.86 137.226 374.542 137.567 374.235 137.896L374.008 138.139L373.944 137.814C373.649 136.341 373.257 135.082 372.946 134.194C372.636 133.306 372.421 132.78 372.462 132.762C372.497 132.746 372.782 133.24 373.152 134.115C373.522 134.99 373.962 136.254 374.277 137.746L373.986 137.665C374.292 137.334 374.608 136.991 374.932 136.64C376.189 135.286 377.34 134.073 378.187 133.208C379.033 132.342 379.575 131.823 379.61 131.855Z" fill="#263238"/>
<path d="M358.395 81.5449C361.046 80.6519 363.901 82.9663 366.63 82.3511C368.287 81.9771 369.508 80.6105 370.967 79.7402C373.148 78.439 376.278 78.1505 378.575 79.2359C380.872 80.3213 382.366 81.5082 382.746 84.0196C384.774 82.7786 388.286 85.2754 389.528 87.7454C390.77 90.2154 390.549 92.8117 389.96 95.5128C388.947 100.164 387.009 104.611 384.293 108.52C384.052 108.866 383.664 109.253 383.277 109.085C383.009 108.968 382.914 108.643 382.859 108.356C382.396 105.915 382.636 103.402 382.778 100.921C382.92 98.4397 382.952 95.8842 382.104 93.5477C381.256 91.2113 379.349 89.112 376.898 88.6999C375.087 88.3953 373.234 89.0345 371.659 89.9776C370.084 90.9214 368.711 92.1631 367.216 93.2291C365.722 94.2951 364.035 95.2055 362.204 95.3371C360.372 95.4687 358.381 94.6598 357.553 93.0214C356.724 91.3829 357.534 88.9984 359.319 88.5669C357.666 88.4621 356.185 87.0781 355.969 85.4363C355.753 83.7939 356.826 82.074 358.395 81.5449Z" fill="#9E724D"/>
<path d="M360.897 110.82C360.878 107.42 361.409 100.417 361.962 94.0818C362.558 87.2696 368.284 82.057 375.121 82.1031L375.801 82.1078C383.123 82.5853 385.953 89.3475 385.274 96.654L384.511 119.995L371.119 132.797L368.33 125.132L367.762 118.962C367.762 118.962 360.936 117.862 360.897 110.82Z" fill="#FDD7C6"/>
<path d="M367.762 118.963C367.762 118.963 372.409 119.392 377.159 116.453C377.159 116.453 374.943 121.379 367.921 120.697L367.762 118.963Z" fill="#F6BAA6"/>
<path d="M364.991 100.826C364.968 101.357 365.4 101.814 365.954 101.848C366.507 101.881 366.974 101.479 366.996 100.948C367.018 100.417 366.588 99.9601 366.035 99.926C365.481 99.8926 365.013 100.296 364.991 100.826Z" fill="#263238"/>
<path d="M363.441 97.5345C363.565 97.666 364.33 97.1076 365.412 97.1177C366.493 97.1123 367.283 97.6741 367.402 97.5425C367.46 97.4844 367.334 97.2466 366.99 96.9928C366.651 96.7396 366.072 96.4918 365.398 96.4905C364.724 96.4898 364.155 96.7336 363.828 96.9861C363.495 97.2392 363.381 97.4757 363.441 97.5345Z" fill="#9E724D"/>
<path d="M375.479 100.826C375.457 101.357 375.888 101.814 376.442 101.847C376.995 101.88 377.462 101.478 377.485 100.947C377.507 100.416 377.076 99.9594 376.523 99.926C375.968 99.8926 375.501 100.296 375.479 100.826Z" fill="#263238"/>
<path d="M374.088 97.8082C374.212 97.9398 374.978 97.3821 376.06 97.3921C377.14 97.3867 377.93 97.9485 378.049 97.8169C378.107 97.7588 377.983 97.521 377.638 97.2672C377.299 97.014 376.721 96.7662 376.047 96.7649C375.373 96.7642 374.804 97.0087 374.477 97.2598C374.142 97.513 374.027 97.7488 374.088 97.8082Z" fill="#9E724D"/>
<path d="M370.11 105.805C370.116 105.744 369.444 105.623 368.356 105.476C368.08 105.446 367.818 105.389 367.773 105.2C367.71 105 367.827 104.703 367.963 104.382C368.227 103.716 368.504 103.016 368.794 102.284C369.949 99.2966 370.788 96.8393 370.667 96.7939C370.546 96.7484 369.512 99.133 368.357 102.121C368.079 102.857 367.813 103.56 367.56 104.231C367.453 104.545 367.271 104.9 367.409 105.315C367.482 105.522 367.684 105.673 367.861 105.721C368.038 105.777 368.193 105.781 368.33 105.79C369.426 105.857 370.106 105.866 370.11 105.805Z" fill="#263238"/>
<path d="M374.011 92.2629C374.116 92.5575 375.197 92.4259 376.465 92.5875C377.737 92.7238 378.758 93.1025 378.929 92.8393C379.005 92.7138 378.828 92.4359 378.416 92.148C378.008 91.8608 377.355 91.5863 376.594 91.4961C375.832 91.408 375.134 91.5242 374.67 91.7092C374.202 91.8929 373.966 92.1226 374.011 92.2629Z" fill="#F6BAA6"/>
<path d="M363.869 94.4056C364.058 94.6527 364.805 94.4022 365.701 94.3969C366.597 94.3595 367.355 94.5732 367.531 94.3174C367.609 94.1932 367.491 93.946 367.16 93.7116C366.835 93.4778 366.29 93.2848 365.674 93.2988C365.058 93.3142 364.523 93.5333 364.21 93.7831C363.892 94.0329 363.786 94.2854 363.869 94.4056Z" fill="#F6BAA6"/>
<path d="M384.961 101.543C385.081 101.493 390.365 100.188 390.179 105.001C389.992 109.813 385.199 108.633 385.197 108.495C385.193 108.357 384.961 101.543 384.961 101.543Z" fill="#FDD7C6"/>
<path d="M386.737 106.729C386.759 106.714 386.819 106.791 386.958 106.861C387.094 106.93 387.33 106.982 387.584 106.898C388.1 106.731 388.559 105.94 388.616 105.073C388.646 104.636 388.569 104.215 388.428 103.864C388.295 103.506 388.077 103.251 387.823 103.196C387.57 103.127 387.383 103.273 387.319 103.406C387.25 103.538 387.276 103.635 387.25 103.643C387.236 103.654 387.15 103.558 387.197 103.361C387.22 103.266 387.281 103.154 387.398 103.067C387.517 102.977 387.688 102.936 387.866 102.962C388.236 103.002 388.557 103.356 388.713 103.742C388.889 104.13 388.985 104.604 388.951 105.095C388.883 106.063 388.352 106.952 387.648 107.125C387.306 107.201 387.028 107.087 386.886 106.968C386.742 106.845 386.721 106.737 386.737 106.729Z" fill="#F6BAA6"/>
<path d="M361.92 87.5111C362.556 86.1318 363.681 85.0331 364.899 84.126C367.525 82.171 370.743 80.9634 374.017 80.9353C377.291 80.9072 380.6 82.1029 382.952 84.3812C384.833 86.2046 386.054 88.6506 386.611 91.2108C387.167 93.771 387.408 97.2115 386.929 99.7871C386.718 100.918 386.078 101.323 385.278 102.149C384.777 102.665 383.923 103.001 383.357 102.56C383.023 102.3 382.904 101.856 382.804 101.446C381.902 97.7252 381.015 93.7249 382.4 90.1561C381.488 88.9505 380.424 87.8264 379.105 87.0863C377.787 86.3462 376.184 86.0236 374.736 86.4584C372.585 87.1043 371.25 89.183 369.528 90.6237C367.066 92.6829 363.576 93.4437 360.48 92.5974L361.92 87.5111Z" fill="#9E724D"/>
<path d="M390.3 93.8184C390.294 93.7656 389.784 93.8244 388.971 93.7643C388.159 93.7075 387.043 93.4837 385.919 92.9547C384.799 92.4197 383.92 91.6963 383.362 91.1039C382.801 90.5121 382.524 90.0799 382.479 90.108C382.451 90.122 382.665 90.6002 383.201 91.2475C383.732 91.894 384.625 92.6755 385.789 93.2306C386.954 93.7803 388.124 93.978 388.961 93.98C389.801 93.9853 390.306 93.8484 390.3 93.8184Z" fill="#E0E0E0"/>
<path d="M390.227 96.1873C390.231 96.1345 389.676 96.0858 388.817 95.8667C387.958 95.6503 386.802 95.2201 385.665 94.4894C384.532 93.754 383.664 92.875 383.115 92.181C382.562 91.4877 382.29 91.0028 382.243 91.0275C382.214 91.0409 382.421 91.5665 382.942 92.3106C383.459 93.054 384.33 93.9871 385.499 94.7452C386.67 95.4987 387.879 95.9101 388.769 96.0764C389.662 96.2468 390.226 96.2187 390.227 96.1873Z" fill="#E0E0E0"/>
<path d="M358.151 90.1525C358.116 90.1632 358.167 90.4911 358.418 90.96C358.664 91.4256 359.141 92.0207 359.848 92.4381C360.555 92.8563 361.307 92.9865 361.833 92.9772C362.365 92.9705 362.676 92.8563 362.668 92.8209C362.661 92.7734 362.343 92.8089 361.842 92.7608C361.345 92.7153 360.657 92.5604 360.003 92.1743C359.349 91.7883 358.881 91.2613 358.601 90.8471C358.318 90.4317 358.195 90.1364 358.151 90.1525Z" fill="#E0E0E0"/>
<path d="M357.583 91.1451C357.549 91.1564 357.61 91.4683 357.85 91.9172C358.088 92.3647 358.535 92.9325 359.172 93.386C359.812 93.8375 360.495 94.0706 360.996 94.1461C361.5 94.2242 361.814 94.1781 361.814 94.1427C361.829 94.0492 360.559 94.0118 359.349 93.1362C358.122 92.2859 357.665 91.0996 357.583 91.1451Z" fill="#E0E0E0"/>
<path d="M373.187 107.112C372.163 107.497 371.169 107.977 370.214 108.547L369.207 109.125C369.659 109.672 370.16 110.597 370.773 110.83C371.385 111.063 372.396 110.988 372.859 110.495C373.228 110.1 373.392 109.49 373.406 108.893C373.421 108.295 373.303 107.699 373.187 107.112Z" fill="#F6BAA6"/>
<path d="M369.697 109.786C369.725 109.771 369.802 109.922 369.995 110.138C370.182 110.353 370.518 110.629 371.016 110.725C371.503 110.817 372.16 110.733 372.692 110.357C373.193 109.977 373.369 109.156 373.281 108.399C373.231 107.947 373.103 107.514 372.955 107.115L373.179 107.2C372.018 107.79 371.001 108.291 370.27 108.637C369.538 108.983 369.093 109.172 369.075 109.138C369.057 109.104 369.47 108.85 370.175 108.454C370.88 108.058 371.878 107.52 373.031 106.915L373.19 106.831L373.255 107C373.416 107.414 373.555 107.871 373.61 108.363C373.696 109.192 373.53 110.106 372.871 110.603C372.229 111.031 371.513 111.084 370.966 110.954C370.41 110.814 370.059 110.471 369.894 110.218C369.721 109.961 369.684 109.791 369.697 109.786Z" fill="#263238"/>
<path d="M441.982 185.98H433.834V286.179H441.982V185.98Z" fill="#59322A"/>
<path d="M215.482 178.681H207.334V286.179H215.482V178.681Z" fill="#59322A"/>
<path d="M459.712 177.327H192.58V190.282H459.712V177.327Z" fill="#6F453A"/>
<path d="M350.611 173.14H308.934V177.368H350.611V173.14Z" fill="#E0E0E0"/>
<path d="M336.118 174.614C336.118 174.71 330.059 174.788 322.587 174.788C315.112 174.788 309.055 174.71 309.055 174.614C309.055 174.519 315.112 174.44 322.587 174.44C330.059 174.44 336.118 174.518 336.118 174.614Z" fill="#263238"/>
<path d="M340.173 175.779C340.173 175.875 334.114 175.953 326.642 175.953C319.167 175.953 313.109 175.875 313.109 175.779C313.109 175.683 319.167 175.605 326.642 175.605C334.114 175.605 340.173 175.683 340.173 175.779Z" fill="#263238"/>
<path d="M49.9893 264.446L49.449 278.765C49.449 278.765 63.8229 284.124 63.9806 286.779L36.1778 286.729L36.1037 264.383L49.9893 264.446Z" fill="black"/>
<path d="M40.8485 277.549C40.3101 277.695 39.9374 278.299 40.061 278.843C40.1846 279.387 40.7964 279.771 41.3368 279.635C41.8771 279.498 42.3473 278.786 42.1637 278.259C41.98 277.733 41.2372 277.321 40.745 277.583" fill="#E0E0E0"/>
<path d="M36.174 286.733L36.2548 284.48L62.8813 285.371C62.8813 285.371 64.1183 285.912 63.9767 286.783L36.174 286.733Z" fill="#263238"/>
<path d="M49.8903 278.624C49.8856 278.76 49.207 278.821 48.5377 279.255C47.8577 279.674 47.5124 280.261 47.3875 280.207C47.2626 280.181 47.4663 279.369 48.2852 278.856C49.0994 278.336 49.9203 278.5 49.8903 278.624Z" fill="white"/>
<path d="M52.7819 279.84C52.8126 279.971 52.2242 280.201 51.762 280.775C51.283 281.334 51.1655 281.955 51.0306 281.949C50.903 281.97 50.8108 281.175 51.3986 280.473C51.9804 279.765 52.7792 279.71 52.7819 279.84Z" fill="white"/>
<path d="M54.4633 283.33C54.3397 283.359 54.152 282.68 54.502 281.937C54.8473 281.192 55.4872 280.899 55.5447 281.013C55.6215 281.124 55.208 281.523 54.9302 282.137C54.6383 282.744 54.5982 283.317 54.4633 283.33Z" fill="white"/>
<path d="M49.6547 275.35C49.5973 275.473 48.9748 275.285 48.2073 275.336C47.4392 275.371 46.8414 275.627 46.7706 275.511C46.6924 275.413 47.2762 274.911 48.1813 274.864C49.085 274.81 49.7215 275.243 49.6547 275.35Z" fill="white"/>
<path d="M27.1035 265.244L22.5175 281.963L22.7032 296.233C22.7165 297.261 21.8562 298.086 20.829 298.029C20.2539 297.997 19.7329 297.694 19.4263 297.207C17.4746 294.104 10.6309 282.585 10.7979 281.673C11.0624 280.226 14.4235 263.491 14.4235 263.491L27.1035 265.244Z" fill="black"/>
<path d="M20.8296 298.03L11.0403 280.313L10.862 281.026C10.7438 281.768 10.7745 282.293 11.057 282.862C11.8111 284.384 13.9859 288.54 19.3755 297.195C19.6894 297.698 20.2365 298.013 20.8296 298.03Z" fill="#263238"/>
<g opacity="0.6">
<path d="M15.8574 275.75C16.2061 276.147 16.1847 276.819 15.8026 277.183C15.4206 277.547 14.7366 277.531 14.3819 277.141C14.0266 276.751 14.0273 275.943 14.4481 275.624C14.8682 275.304 15.6697 275.367 15.9215 275.831" fill="white"/>
</g>
<path d="M18.8191 289.72C18.9026 289.79 19.5017 289.004 20.6205 288.78C21.7326 288.523 22.6023 288.993 22.6497 288.894C22.6744 288.856 22.4941 288.672 22.1147 288.518C21.7393 288.363 21.1562 288.277 20.5403 288.408C19.9252 288.542 19.4302 288.861 19.1517 289.158C18.8692 289.454 18.781 289.696 18.8191 289.72Z" fill="white"/>
<path d="M19.4553 292.272C19.5167 292.365 20.1933 291.953 21.1258 291.922C22.0575 291.869 22.7682 292.218 22.821 292.12C22.8911 292.046 22.1704 291.487 21.1084 291.541C20.0464 291.584 19.3791 292.205 19.4553 292.272Z" fill="white"/>
<path d="M17.3162 286.276C17.3749 286.376 18.4122 285.737 19.8576 285.56C21.3004 285.361 22.4666 285.713 22.498 285.602C22.5481 285.519 21.3565 284.973 19.8089 285.182C18.2586 285.377 17.2467 286.209 17.3162 286.276Z" fill="white"/>
<path d="M18.2861 281.077C18.3054 281.189 19.332 281.033 20.5517 281.291C21.7753 281.533 22.6577 282.08 22.7198 281.985C22.7866 281.914 21.9423 281.181 20.6278 280.919C19.3167 280.643 18.2527 280.985 18.2861 281.077Z" fill="white"/>
<path d="M19.5126 276.134C19.5406 276.244 20.6147 275.917 21.8771 276.294C23.1482 276.643 23.8849 277.49 23.967 277.411C24.0038 277.383 23.8722 277.126 23.5409 276.805C23.2123 276.484 22.6639 276.124 21.9819 275.928C21.2993 275.733 20.6434 275.747 20.1952 275.845C19.7437 275.942 19.4966 276.091 19.5126 276.134Z" fill="white"/>
<path d="M22.0887 275.349C22.1101 275.354 22.2049 275.138 22.2711 274.719C22.3352 274.302 22.3672 273.673 22.1816 272.926C22.078 272.568 21.9892 272.119 21.5751 271.78C21.37 271.609 21.0107 271.566 20.7562 271.739C20.5044 271.906 20.3728 272.166 20.3007 272.432C20.0515 273.504 20.7101 274.766 21.8723 275.219C23.0452 275.652 24.3089 275.237 25.0169 274.435C25.1813 274.222 25.3262 273.947 25.2667 273.631C25.21 273.312 24.8967 273.112 24.6456 273.093C24.1273 273.043 23.7405 273.252 23.3939 273.392C22.6979 273.713 22.217 274.113 21.9197 274.412C21.6212 274.713 21.4989 274.915 21.5163 274.928C21.5644 274.987 22.1475 274.208 23.5007 273.639C23.8374 273.514 24.2308 273.349 24.5981 273.405C24.7778 273.432 24.9114 273.539 24.9381 273.696C24.9689 273.848 24.8807 274.05 24.7431 274.215C24.1506 274.868 22.9944 275.246 22.0092 274.864C21.026 274.492 20.4483 273.381 20.6406 272.516C20.6901 272.309 20.7969 272.114 20.9385 272.019C21.0775 271.926 21.2518 271.934 21.3907 272.036C21.6853 272.249 21.8162 272.657 21.9224 272.996C22.3218 274.409 22.0099 275.347 22.0887 275.349Z" fill="white"/>
<path d="M62.3644 154.733C61.8861 151.58 62.3831 144.537 62.3831 144.537C62.3831 144.537 25.1317 141.973 25.1317 142.762L22.5882 158.131C22.5448 160.015 25.2679 173.798 25.2679 173.798C25.8537 186.657 22.4873 215.548 22.4873 215.548L9.01576 276.161L27.6905 278.44C27.6905 278.44 45.3915 225.398 46.4495 219.354C47.5075 213.311 55.8513 176.577 55.8513 176.577C55.8513 176.577 62.8426 157.886 62.3644 154.733Z" fill="black"/>
<path d="M70.5717 153.493C70.3072 154.806 70.8549 179.929 63.207 220.235L52.7685 278.487L32.7599 277.254L39.6189 227.066L55.7616 151.391L70.5717 153.493Z" fill="black"/>
<path d="M63.1132 158.07C63.1192 158.071 63.1105 158.165 63.0878 158.346C63.0644 158.528 63.0317 158.798 62.9722 159.15C62.8627 159.857 62.669 160.894 62.3965 162.226C62.1093 163.562 61.7599 165.189 61.3538 167.077C60.9457 168.97 60.4448 171.122 60.0253 173.524L60.0139 173.59L59.9538 173.617C59.1062 174.006 58.1865 174.427 57.2353 174.863L57.3121 174.764C55.8333 183.302 53.6392 194.391 50.6776 206.347C48.9863 213.191 47.213 219.669 45.4937 225.53C43.7684 231.389 42.0886 236.626 40.6338 241.01C39.165 245.388 37.9173 248.911 37.0297 251.336C36.5848 252.532 36.2368 253.467 35.9923 254.123C35.8755 254.428 35.7833 254.666 35.7145 254.845C35.6504 255.006 35.6143 255.088 35.6083 255.086C35.6029 255.084 35.627 254.998 35.6811 254.833C35.7419 254.652 35.8227 254.409 35.9262 254.099C36.1553 253.439 36.4826 252.496 36.9014 251.291C37.7497 248.852 38.9613 245.319 40.4 240.932C41.8241 236.541 43.4792 231.3 45.1858 225.44C46.887 219.578 48.649 213.102 50.3396 206.263C53.2992 194.316 55.5208 183.241 57.0476 174.717L57.0603 174.646L57.1245 174.618C58.0783 174.188 59.0007 173.771 59.851 173.388L59.7795 173.481C60.217 171.068 60.7353 168.922 61.1615 167.032C61.5903 165.149 61.9596 163.527 62.2622 162.195C62.5554 160.868 62.7698 159.837 62.9021 159.136C62.9655 158.798 63.0156 158.535 63.0524 158.338C63.0864 158.16 63.1071 158.069 63.1132 158.07Z" fill="#455B64"/>
<path d="M91.7456 125.659H94.7907C95.5435 124.519 96.3062 124.303 97.8899 123.366C101.924 120.98 107.302 119.053 108.448 119.971C109.594 120.888 108.183 121.898 107.743 122.173C107.302 122.448 103.423 123.958 103.599 125.222C103.776 126.486 116.438 128.765 116.999 129.973C117.754 131.598 116.41 132.261 111.033 131.343L109.506 131.074C109.506 131.074 110.388 132.359 109.418 133.369C108.448 134.378 107.654 133.919 107.654 133.919C107.654 133.919 107.743 135.112 106.508 135.662C105.274 136.213 104.748 135.662 104.748 135.662C104.748 135.662 105.04 138.693 102.364 138.232C99.9538 137.816 98.3034 137.816 95.9269 137.321C94.8568 137.098 93.9384 136.578 93.9384 136.578L90.9254 135.428C90.4344 133.261 91.5145 126.244 91.7456 125.659Z" fill="#FDD7C6"/>
<path d="M107.656 133.92C107.613 133.95 107.238 133.322 106.232 132.76C105.744 132.464 105.117 132.172 104.474 131.721C104.165 131.497 103.809 131.239 103.583 130.824C103.475 130.619 103.403 130.381 103.415 130.126C103.425 129.871 103.542 129.613 103.719 129.43C104.075 129.052 104.598 128.945 105.034 128.975C105.479 129.004 105.869 129.112 106.245 129.211C106.993 129.418 107.641 129.702 108.149 129.998C108.659 130.293 109.028 130.598 109.263 130.825C109.5 131.052 109.604 131.202 109.59 131.215C109.548 131.262 109.047 130.735 108.031 130.214C107.525 129.955 106.893 129.705 106.162 129.521C105.797 129.432 105.405 129.334 105.018 129.315C104.633 129.294 104.234 129.392 103.972 129.668C103.705 129.934 103.709 130.337 103.885 130.665C104.055 130.991 104.363 131.236 104.663 131.461C105.262 131.904 105.879 132.222 106.363 132.551C106.853 132.873 107.208 133.207 107.408 133.47C107.609 133.737 107.672 133.91 107.656 133.92Z" fill="#F6BAA6"/>
<path d="M102.587 126.057C102.626 126.066 102.575 126.519 102.327 127.211C102.081 127.901 101.604 128.816 100.871 129.671C100.134 130.523 99.3001 131.13 98.6542 131.475C98.0077 131.824 97.5668 131.942 97.5521 131.904C97.4974 131.806 99.1926 131.112 100.607 129.443C102.047 127.798 102.482 126.018 102.587 126.057Z" fill="#F6BAA6"/>
<path d="M104.752 135.662C104.729 135.703 104.343 135.543 103.777 135.183C103.495 135.002 103.166 134.775 102.827 134.479C102.491 134.193 102.123 133.784 101.966 133.255C101.799 132.738 101.832 132.162 102.096 131.739C102.357 131.307 102.803 131.114 103.152 131.074C103.895 130.997 104.236 131.405 104.196 131.416C104.172 131.471 103.81 131.187 103.193 131.317C102.899 131.381 102.558 131.561 102.372 131.901C102.179 132.238 102.155 132.705 102.298 133.15C102.434 133.604 102.728 133.948 103.042 134.241C103.353 134.535 103.661 134.778 103.919 134.982C104.438 135.386 104.776 135.619 104.752 135.662Z" fill="#F6BAA6"/>
<path d="M102.926 137.816C102.896 137.854 102.588 137.674 102.111 137.352C101.655 137.042 100.914 136.581 100.568 135.676C100.407 135.228 100.414 134.745 100.578 134.356C100.736 133.96 101.075 133.701 101.373 133.614C101.674 133.518 101.94 133.556 102.097 133.625C102.257 133.694 102.317 133.772 102.306 133.789C102.288 133.84 101.948 133.63 101.46 133.844C101.222 133.947 100.988 134.155 100.876 134.474C100.761 134.787 100.762 135.185 100.896 135.557C101.178 136.321 101.838 136.801 102.268 137.163C102.702 137.531 102.956 137.779 102.926 137.816Z" fill="#F6BAA6"/>
<path d="M39.8345 56.4977C38.7678 53.5789 37.7124 50.6373 37.1634 47.5788C36.615 44.5204 36.5923 41.3116 37.5688 38.362C37.7171 37.9151 39.0082 34.9041 39.4785 34.9328C39.8144 34.9535 39.053 37.7468 39.2327 38.0314C40.9486 40.7479 41.5083 44.0695 41.366 47.2796C41.2244 50.489 40.662 53.3925 39.8345 56.4977Z" fill="#B38C67"/>
<path d="M64.8075 42.7106C64.3533 35.535 58.4641 29.913 51.2751 29.7874L50.4289 29.7727C42.6414 30.0913 39.1602 37.0679 39.6938 44.8433L41.007 72.2066L43.6547 74.7708C48.2067 79.1792 55.9781 79.0556 57.861 73.0054C57.8042 70.8113 57.7782 69.1521 57.7949 69.1514C57.7949 69.1514 65.2938 68.1188 65.5162 60.6433C65.6251 57.0097 65.2357 49.4848 64.8075 42.7106Z" fill="#FDD7C6"/>
<path d="M57.7847 69.1513C57.7847 69.1513 53.067 69.3457 48.0996 66.1035C48.0996 66.1035 50.3786 71.5832 57.8515 71.0395L57.7847 69.1513Z" fill="#F6BAA6"/>
<path d="M62.5365 50.2889C62.5472 50.8533 62.0776 51.3269 61.4885 51.3483C60.9007 51.3697 60.4145 50.9308 60.4045 50.3664C60.3944 49.802 60.8633 49.3278 61.4518 49.3064C62.0402 49.285 62.5265 49.7252 62.5365 50.2889Z" fill="#263238"/>
<path d="M52.5821 50.2889C52.5928 50.8533 52.1232 51.3269 51.5334 51.3483C50.9457 51.3697 50.4594 50.9308 50.4494 50.3664C50.4394 49.8027 50.9082 49.3278 51.4967 49.3064C52.0865 49.285 52.5727 49.7252 52.5821 50.2889Z" fill="#263238"/>
<path d="M62.9363 46.8353C62.8014 46.9723 62.0032 46.3598 60.8537 46.3424C59.7062 46.309 58.8525 46.8854 58.7303 46.7425C58.6702 46.679 58.8091 46.4299 59.1812 46.1694C59.5472 45.9096 60.1684 45.6611 60.8837 45.6765C61.5991 45.6932 62.1969 45.967 62.5382 46.2429C62.8875 46.5201 63.0031 46.7739 62.9363 46.8353Z" fill="#B38C67"/>
<path d="M52.2221 46.8734C52.0872 47.0103 51.2877 46.3978 50.1389 46.3805C48.9913 46.3471 48.1384 46.9235 48.0155 46.7806C47.9554 46.7171 48.0936 46.4686 48.4663 46.2075C48.8324 45.9477 49.4529 45.6992 50.1689 45.7145C50.8849 45.7312 51.4821 46.0051 51.8241 46.281C52.1714 46.5588 52.2876 46.8126 52.2221 46.8734Z" fill="#B38C67"/>
<path d="M55.9306 55.8894C55.9266 55.824 56.6427 55.7131 57.8029 55.5855C58.0968 55.5608 58.3753 55.5067 58.4287 55.3077C58.5015 55.0966 58.384 54.7786 58.2477 54.4347C57.9839 53.72 57.7087 52.9705 57.4188 52.1851C56.2693 48.983 55.4424 46.3527 55.572 46.3072C55.7015 46.2618 56.7382 48.8207 57.8877 52.0228C58.1642 52.8122 58.4287 53.565 58.6799 54.285C58.7847 54.6203 58.9697 55.0017 58.8121 55.4392C58.7293 55.657 58.5109 55.8126 58.3225 55.86C58.1328 55.9141 57.9678 55.9141 57.8229 55.9208C56.6567 55.9622 55.934 55.9549 55.9306 55.8894Z" fill="#263238"/>
<path d="M52.115 43.2039C51.9741 43.5051 50.8446 43.2547 49.4874 43.2947C48.1288 43.3081 47.0107 43.6033 46.8577 43.3088C46.7902 43.1678 47.0053 42.892 47.4709 42.6308C47.9317 42.369 48.6504 42.1452 49.4646 42.1285C50.2789 42.1132 51.0056 42.3075 51.4765 42.5507C51.9507 42.7938 52.1771 43.0603 52.115 43.2039Z" fill="#F6BAA6"/>
<path d="M63.3013 43.049C63.0635 43.3082 62.1458 43.0283 61.039 43.0056C59.9336 42.9495 58.9938 43.1619 58.7807 42.8867C58.6872 42.7538 58.8369 42.4933 59.249 42.2501C59.6544 42.0077 60.3317 41.8127 61.0918 41.8394C61.8526 41.8674 62.5092 42.1099 62.8919 42.3804C63.2799 42.6522 63.4055 42.9221 63.3013 43.049Z" fill="#F6BAA6"/>
<path d="M40.2076 50.3364C40.0814 50.2789 35.0966 48.7273 35.1707 53.8417C35.2449 58.9567 40.3646 57.8266 40.3713 57.6803C40.378 57.5334 40.2076 50.3364 40.2076 50.3364Z" fill="#FDD7C6"/>
<path d="M38.6907 55.787C38.668 55.771 38.6025 55.8505 38.4529 55.9219C38.3073 55.9914 38.0555 56.0415 37.787 55.9453C37.2439 55.755 36.7764 54.9033 36.7383 53.9823C36.7183 53.5174 36.8098 53.0725 36.9688 52.7032C37.1197 52.3271 37.3575 52.0619 37.6293 52.0099C37.8992 51.9431 38.0942 52.1034 38.159 52.2463C38.2298 52.3886 38.1984 52.4908 38.2258 52.4994C38.2398 52.5121 38.334 52.4119 38.2899 52.2015C38.2672 52.1 38.2051 51.9805 38.0835 51.8836C37.9593 51.7854 37.7783 51.7373 37.5893 51.7607C37.1952 51.7934 36.8452 52.1615 36.6695 52.5669C36.4725 52.9744 36.3596 53.474 36.3816 53.997C36.4291 55.0269 36.9708 55.9841 37.7135 56.1871C38.0749 56.276 38.3734 56.1631 38.5264 56.0395C38.6833 55.9106 38.7081 55.7957 38.6907 55.787Z" fill="#F6BAA6"/>
<path d="M61.311 34.4417C62.1279 33.9654 59.5817 31.3431 57.5265 30.4681C54.4199 29.1449 49.7056 28.3955 46.8903 29.2658C43.5005 30.3132 40.7052 32.0772 39.0647 35.2225C37.4243 38.3684 36.8639 42.002 37.0469 45.5447C37.1024 46.6261 37.2406 47.7509 37.8404 48.652C38.5812 49.7661 39.9685 50.446 39.9444 52.007C39.9357 52.5774 40.1114 53.1492 40.5122 53.5553C41.4706 54.5291 42.5934 53.5673 43.0984 52.6168C44.1758 50.5876 44.2452 48.1931 44.2907 45.8961C44.3227 44.2636 44.3501 42.5958 43.8538 41.0402C43.584 40.1932 43.1632 39.3977 42.9401 38.5374C42.717 37.6771 42.721 36.6953 43.2427 35.9759C43.3275 35.859 43.4691 35.7107 43.6481 35.5458C45.0668 34.2426 47.0853 33.8151 48.9154 34.4149C51.819 35.3667 56.7724 36.7734 58.0341 35.7662C59.8495 34.3168 60.2697 33.3897 60.2697 33.3897L61.311 34.4417Z" fill="#B38C67"/>
<path d="M40.1998 69.9964L40.9198 67.8457L53.7128 75.4728L57.9668 71.8406L58.9514 76.1161L68.9477 86.1017L70.0037 143.131L67.871 155.051L41.8088 154.172L33.459 106.575L38.9895 82.0627L40.1998 69.9964Z" fill="#FAFBFB"/>
<path d="M40.3617 68.8887C39.7098 69.1091 37.4682 72.3152 37.4682 72.3152L23.813 76.8104L26.108 136.37L18.2852 166.553L53.7525 173.798C53.7525 173.798 56.5858 164.492 58.5409 141.338C60.4959 118.184 54.9341 99.6036 53.3557 95.4224C51.2617 89.8765 40.3617 68.8887 40.3617 68.8887Z" fill="#5274B8"/>
<path d="M60.4987 75.5421L69.7823 80.3124L71.73 124.507L72.6364 172.052L67.3718 172.803C67.3718 172.803 66.5168 117.076 66.082 107.022C65.6478 96.9687 58.8002 76.1205 58.8002 76.1205L58.2324 72.9912L60.4987 75.5421Z" fill="#5274B8"/>
<path d="M80.2176 121.244L78.8984 120.358L74.2282 87.61C73.8194 84.7446 72.195 81.8605 69.7818 80.3115L67.0586 87.1204L69.7737 132.507C69.7737 132.507 72.2458 133.779 76.8078 135.384C81.3698 136.988 90.4897 138.73 90.4897 138.73L93.428 125.142L80.2176 121.244Z" fill="#5274B8"/>
<path d="M56.7662 120.488C56.7555 120.493 56.6646 120.322 56.501 119.992C56.328 119.632 56.0949 119.148 55.803 118.54C55.1959 117.243 54.3429 115.417 53.2942 113.175C51.1943 108.604 48.3168 102.34 45.1381 95.4204C42.5933 89.8111 40.2435 84.6326 38.3566 80.4734L38.3292 80.4133L38.3572 80.3551C38.9951 79.044 39.5809 77.8404 40.1085 76.7563L40.192 76.9213C38.8528 76.6535 37.706 76.425 36.7368 76.2313L36.666 76.2173L36.6674 76.1472C36.6847 74.9776 36.6981 74.0619 36.7081 73.4033C36.7174 73.1121 36.7248 72.879 36.7301 72.6933C36.7375 72.5336 36.7455 72.4521 36.7535 72.4521C36.7615 72.4521 36.7689 72.5336 36.7762 72.6933C36.7822 72.879 36.7896 73.1121 36.7983 73.4033C36.8083 74.0619 36.8216 74.9783 36.839 76.1472L36.7695 76.063C37.7421 76.2393 38.8929 76.4484 40.2368 76.6929L40.3851 76.7196L40.3196 76.8578C39.8046 77.9486 39.2329 79.1589 38.6097 80.4767L38.611 80.3585C40.5153 84.5097 42.8865 89.6788 45.4547 95.2768C48.5973 102.213 51.4421 108.492 53.518 113.074C54.5246 115.335 55.3435 117.176 55.9259 118.485C56.1931 119.104 56.4061 119.597 56.5644 119.964C56.7074 120.302 56.7769 120.483 56.7662 120.488Z" fill="#263238"/>
<path d="M24.3724 76.8059C24.3724 76.8059 17.8554 76.8059 15.4655 91.7055C13.0756 106.605 8.07948 125.172 11.5554 129.299C15.0313 133.425 50.6576 145.116 50.6576 145.116L55.6538 131.362L27.4135 118.984L32.2327 94.8969" fill="#5274B8"/>
<path d="M32.2313 94.8965C32.2313 94.8965 32.2146 95.0421 32.1638 95.3233C32.1097 95.6159 32.0323 96.03 31.9321 96.5697C31.7183 97.6765 31.4071 99.2869 31.007 101.36C30.1854 105.531 28.9998 111.554 27.5324 119.008L27.4616 118.871C35.3252 122.306 44.9608 126.514 55.7186 131.212L55.8588 131.274L55.8067 131.418C54.2077 135.827 52.5392 140.428 50.8179 145.174L50.7611 145.33L50.6035 145.278C46.1818 143.817 41.5897 142.239 36.9215 140.574C31.4271 138.607 26.083 136.622 21.0027 134.496C18.4678 133.422 15.9838 132.34 13.6647 131.029C13.3735 130.869 13.0896 130.695 12.8118 130.51C12.5272 130.339 12.2607 130.135 11.9956 129.931C11.4572 129.519 11.0438 128.935 10.8086 128.311C10.3384 127.058 10.2402 125.75 10.2108 124.482C10.1701 121.936 10.4627 119.475 10.7766 117.099C11.1092 114.724 11.5 112.43 11.9034 110.218C12.7463 105.803 13.5318 101.689 14.2492 97.9329C14.9912 94.1858 15.4227 90.748 16.1815 87.7937C16.9329 84.8454 17.9642 82.3948 19.1538 80.6047C20.326 78.7946 21.7127 77.752 22.7206 77.257C23.2356 77.0226 23.6497 76.8923 23.9369 76.8476C24.2214 76.7915 24.3717 76.8055 24.3717 76.8055C24.3717 76.8095 24.335 76.8109 24.2628 76.8222C24.1907 76.8342 24.0832 76.8463 23.9436 76.8823C23.6617 76.9378 23.2549 77.078 22.7513 77.3198C21.7648 77.8308 20.4109 78.8748 19.2667 80.6795C18.1058 82.4649 17.0993 84.9042 16.3699 87.8418C15.6338 90.778 15.2183 94.2232 14.491 97.9777C13.7863 101.736 13.0155 105.851 12.1873 110.269C11.7905 112.481 11.4058 114.772 11.0798 117.141C10.7719 119.509 10.4867 121.963 10.5314 124.475C10.5615 125.724 10.6664 127.011 11.1126 128.191C11.518 129.411 12.7129 130.076 13.831 130.741C16.1227 132.034 18.6054 133.113 21.1349 134.181C26.2072 136.298 31.548 138.28 37.0391 140.246C41.704 141.91 46.2947 143.489 50.7111 144.952L50.4966 145.056C52.2233 140.312 53.8971 135.713 55.5008 131.306L55.589 131.511C44.8439 126.784 35.2196 122.55 27.3647 119.095L27.2739 119.055L27.2933 118.959C28.8068 111.514 30.0291 105.499 30.8761 101.333C31.3042 99.2655 31.6368 97.6584 31.8653 96.555C31.9802 96.0187 32.0683 95.6065 32.1311 95.3153C32.1912 95.0375 32.2313 94.8965 32.2313 94.8965Z" fill="#263238"/>
<path d="M18.2006 124.261C18.1692 124.249 18.3569 123.653 18.9059 122.815C19.4516 121.981 20.4088 120.933 21.7313 120.146C22.3925 119.757 23.0705 119.474 23.7037 119.276C24.3429 119.098 24.932 118.984 25.433 118.96C26.4349 118.895 27.0447 119.038 27.0387 119.07C27.034 119.133 26.4222 119.079 25.4584 119.205C24.9754 119.259 24.411 119.394 23.7999 119.582C23.1941 119.79 22.5468 120.071 21.909 120.445C20.6352 121.203 19.6887 122.181 19.1063 122.957C18.5219 123.735 18.256 124.288 18.2006 124.261Z" fill="#263238"/>
<path d="M69.7817 89.1191C69.7937 89.1178 69.8218 89.2721 69.8652 89.5673C69.9093 89.898 69.966 90.3268 70.0375 90.8598C70.1818 91.9833 70.3661 93.611 70.5739 95.6255C70.9907 99.6532 71.4702 105.228 71.8162 111.398C72.1595 117.57 72.3051 123.164 72.3392 127.213C72.3572 129.238 72.3552 130.876 72.3372 132.009C72.3259 132.546 72.3172 132.978 72.3105 133.312C72.3005 133.61 72.2898 133.767 72.2778 133.767C72.2657 133.767 72.2531 133.61 72.241 133.312C72.231 132.979 72.2183 132.546 72.203 132.009C72.1762 130.836 72.1395 129.21 72.0947 127.217C71.9972 123.172 71.8135 117.584 71.4702 111.417C71.1242 105.253 70.6847 99.6799 70.3301 95.6489C70.1531 93.6638 70.0081 92.0434 69.9039 90.8745C69.8598 90.3388 69.8238 89.9073 69.7964 89.5753C69.775 89.2774 69.7697 89.1205 69.7817 89.1191Z" fill="#263238"/>
<path d="M32.9656 89.3425C32.9115 89.3539 32.7552 88.7113 32.4266 87.7014C32.0993 86.6915 31.571 85.3209 30.8062 83.8969C30.038 82.4735 29.1844 81.2779 28.5198 80.4503C27.8566 79.6207 27.4044 79.1385 27.4438 79.0991C27.4718 79.0697 27.9875 79.4918 28.7082 80.2914C29.4289 81.0882 30.3313 82.2831 31.1128 83.7319C31.8916 85.1813 32.3925 86.592 32.663 87.632C32.9349 88.6719 33.0057 89.3352 32.9656 89.3425Z" fill="#263238"/>
<path d="M76.2493 130.239C76.2039 130.237 76.1705 129.681 76.1925 128.778C76.2219 127.881 76.3007 126.609 76.7723 125.283C77.2478 123.954 78.1095 122.936 78.8789 122.428C79.6504 121.906 80.2422 121.843 80.2435 121.875C80.2649 121.935 79.7159 122.082 79.0245 122.626C78.3319 123.158 77.5524 124.137 77.0996 125.4C76.648 126.667 76.5291 127.905 76.4376 128.793C76.3535 129.685 76.3 130.241 76.2493 130.239Z" fill="#263238"/>
<path d="M59.2501 76.8065C59.2655 76.8265 59.0003 77.0649 58.5081 77.4791C57.9564 77.9306 57.2497 78.509 56.4047 79.2003L56.2992 79.2865L56.2191 79.1716C55.5004 78.1383 54.6487 76.914 53.7123 75.5674L54.0002 75.5461C53.5607 76.4598 53.0871 77.4443 52.5962 78.4649C52.2769 79.1229 51.9643 79.7667 51.6631 80.3872L51.5783 80.5616L51.4166 80.4567C49.2151 79.0287 47.2921 77.7629 45.9242 76.8459C45.2863 76.4104 44.7533 76.0463 44.3245 75.7538C43.9538 75.4926 43.7561 75.341 43.7681 75.323C43.7795 75.3049 43.9985 75.4225 44.3899 75.6523C44.8328 75.9214 45.3852 76.2574 46.0451 76.6582C47.4451 77.5252 49.3921 78.7541 51.6016 80.1695L51.3552 80.239C51.6544 79.6178 51.965 78.9732 52.2829 78.314C52.7785 77.296 53.2561 76.3135 53.6996 75.4018L53.8265 75.1406L53.9875 75.3804C54.9006 76.743 55.7308 77.982 56.4315 79.028L56.2464 78.9993C57.1194 78.344 57.8495 77.7957 58.4199 77.3675C58.9389 76.9868 59.2341 76.7864 59.2501 76.8065Z" fill="#263238"/>
<path d="M63.0088 155.514C63.0028 155.513 63.0021 155.442 63.0061 155.305C63.0128 155.149 63.0214 154.948 63.0321 154.696C63.0642 154.138 63.109 153.354 63.1664 152.356C63.2345 151.341 63.3093 150.099 63.3547 148.655C63.4062 147.21 63.501 145.567 63.5124 143.749C63.5277 142.839 63.5444 141.886 63.5618 140.895C63.5765 139.902 63.5531 138.869 63.5511 137.801C63.5605 135.662 63.4703 133.379 63.3982 130.976C63.1891 126.173 62.8164 120.899 62.1899 115.385C61.538 109.874 60.6937 104.652 59.7987 99.9281C59.3184 97.5723 58.8843 95.3287 58.386 93.2494C58.1435 92.2081 57.9298 91.1975 57.6887 90.235C57.4449 89.2732 57.2111 88.3501 56.988 87.4678C56.5605 85.6997 56.0923 84.1221 55.7122 82.7281C55.3375 81.3321 54.9809 80.1405 54.6816 79.168C54.3978 78.2102 54.1747 77.4581 54.0157 76.9217C53.9476 76.6786 53.8935 76.4856 53.8507 76.3346C53.8153 76.2017 53.7999 76.1329 53.806 76.1309C53.8113 76.1289 53.838 76.1944 53.8848 76.3239C53.9355 76.4722 54.001 76.6619 54.0825 76.9004C54.2561 77.432 54.5006 78.1788 54.8112 79.1286C55.1298 80.0958 55.5059 81.2827 55.8993 82.6747C56.298 84.0646 56.7829 85.6396 57.2258 87.4056C57.4562 88.2873 57.698 89.2097 57.9492 90.1709C58.1976 91.1334 58.4181 92.1433 58.6672 93.1846C59.1788 95.2646 59.6243 97.5095 60.1133 99.8673C61.027 104.596 61.8826 109.825 62.5359 115.346C63.1631 120.868 63.5271 126.153 63.7188 130.964C63.7816 133.372 63.8617 135.658 63.8397 137.8C63.8357 138.871 63.8524 139.905 63.8303 140.899C63.8056 141.892 63.7816 142.845 63.7589 143.756C63.7315 145.577 63.6193 147.221 63.5498 148.665C63.4857 150.11 63.3915 151.352 63.3027 152.367C63.2178 153.363 63.151 154.145 63.1029 154.703C63.0776 154.954 63.0582 155.154 63.0422 155.309C63.0255 155.444 63.0148 155.514 63.0088 155.514Z" fill="#263238"/>
<path d="M73.947 144.189L60.8682 131.072C60.5596 130.763 60.5509 130.265 60.8475 129.945C61.1614 129.605 61.6945 129.595 62.0211 129.923L75.0999 143.04C75.4085 143.349 75.4172 143.846 75.1206 144.167C74.806 144.507 74.273 144.516 73.947 144.189Z" fill="#263238"/>
<path d="M55.4974 131.605C55.5829 131.668 61.255 131.878 63.007 132.255C64.759 132.633 68.9169 133.681 70.2461 134.625C71.5753 135.568 74.255 138.989 73.5804 139.488C72.9058 139.987 72.0822 139.896 71.6467 139.488C71.2801 139.145 68.0212 136.658 68.0212 136.658C68.0212 136.658 66.0655 136.002 66.0054 136.505C65.9453 137.008 70.8613 139.677 70.0758 140.872C69.2903 142.067 67.1756 141.752 67.1756 141.752C67.1756 141.752 67.7801 143.666 67.1155 144.628C66.4509 145.589 64.7891 146.092 64.7891 146.092C64.7891 146.092 65.3288 147.723 63.7144 148.377C62.5441 148.851 60.7788 147.665 60.7788 147.665L53.2184 143.829L51.043 143.7L55.4974 131.605Z" fill="#FDD7C6"/>
<path d="M51.9386 56.4805C52.8977 56.8412 53.8302 57.2913 54.7245 57.8257L55.6683 58.3667C55.2449 58.8797 54.7753 59.7467 54.2015 59.9651C53.6278 60.1835 52.68 60.1134 52.2472 59.6505C51.9012 59.2805 51.7482 58.7094 51.7335 58.1496C51.7202 57.5899 51.8297 57.0315 51.9386 56.4805Z" fill="#F6BAA6"/>
<path d="M55.2069 58.9867C55.1808 58.9727 55.108 59.1136 54.927 59.316C54.752 59.5184 54.4367 59.7755 53.9699 59.8664C53.5137 59.9526 52.8985 59.8737 52.4002 59.5211C51.9313 59.1651 51.7657 58.3956 51.8478 57.6869C51.8953 57.2634 52.0148 56.858 52.1544 56.4833L51.944 56.5635C53.0321 57.1158 53.9846 57.5861 54.6699 57.91C55.3552 58.234 55.7726 58.4116 55.7893 58.3789C55.806 58.3462 55.4199 58.1091 54.7587 57.7377C54.0981 57.3663 53.1623 56.862 52.0823 56.2949L51.9333 56.2168L51.8719 56.3751C51.7216 56.7625 51.5913 57.1913 51.5392 57.6522C51.4584 58.4297 51.6141 59.2853 52.2312 59.7508C52.8324 60.1523 53.5043 60.2017 54.0166 60.0795C54.5376 59.9485 54.8662 59.6273 55.0212 59.3895C55.1842 59.1504 55.2189 58.9914 55.2069 58.9867Z" fill="#263238"/>
</svg>
