<svg width="35" height="40" viewBox="0 0 35 40" fill="none" xmlns="http://www.w3.org/2000/svg">
<path d="M34.9987 16.4034C31.5584 16.4116 28.2024 15.3387 25.4049 13.3362V27.3022C25.4039 29.8889 24.6133 32.4136 23.1387 34.5388C21.6642 36.664 19.5759 38.2884 17.1532 39.1947C14.7306 40.1011 12.0889 40.2462 9.58155 39.6106C7.07418 38.9751 4.82058 37.5893 3.1221 35.6384C1.42362 33.6875 0.361219 31.2645 0.0769509 28.6935C-0.207317 26.1225 0.300099 23.526 1.53135 21.2512C2.7626 18.9764 4.659 17.1317 6.96697 15.9637C9.27495 14.7958 11.8845 14.3603 14.4466 14.7154V21.7399C13.2742 21.3711 12.0152 21.3822 10.8494 21.7716C9.68367 22.161 8.67077 22.9089 7.95537 23.9083C7.23998 24.9077 6.85867 26.1076 6.86591 27.3367C6.87315 28.5658 7.26857 29.7611 7.99568 30.752C8.7228 31.743 9.74444 32.4788 10.9147 32.8545C12.085 33.2301 13.344 33.2264 14.512 32.8438C15.6801 32.4613 16.6973 31.7194 17.4186 30.7242C18.1398 29.729 18.5282 28.5313 18.5281 27.3022V0H25.4049C25.4001 0.580725 25.4488 1.16066 25.5502 1.73247C25.7892 3.00895 26.286 4.22326 27.0104 5.30113C27.7348 6.37901 28.6714 7.29778 29.763 8.00124C31.3161 9.02814 33.1369 9.57547 34.9987 9.57508V16.4034Z" fill="#E8EBFF"/>
</svg>
